<svg width="142" height="22" viewBox="0 0 142 22" fill="none" xmlns="http://www.w3.org/2000/svg">
<path d="M9.1125 11.1L6.9125 11.7C6.6125 11.2 6.3125 10.9 6.1125 10.7C5.6125 10.3 4.9125 10.3 4.1125 10.5C3.4125 10.7 2.9125 11.1 2.6125 11.7C2.2125 12.5 2.1125 13.6 2.5125 14.9C2.8125 15.9 3.2125 16.7 3.8125 17.2C4.5125 17.8 5.2125 18 6.1125 17.7C6.7125 17.5 7.2125 17.2 7.5125 16.8C7.8125 16.4 7.9125 15.8 7.9125 15.1L10.1125 14.5C10.2125 15.7 10.0125 16.8 9.4125 17.7C8.8125 18.6 7.9125 19.3 6.6125 19.6C5.2125 20 3.9125 19.8 2.8125 19.1C1.6125 18.4 0.8125 17.1 0.3125 15.4C-0.1875 13.6 -0.0874999 12.1 0.6125 10.9C1.2125 9.69999 2.2125 8.99999 3.6125 8.59999C5.0125 8.19999 6.3125 8.29999 7.4125 8.89999C8.3125 9.49999 8.9125 10.2 9.1125 11.1Z" fill="#482323"/>
<path d="M11.3125 12.4C11.0125 10.9 11.0125 9.59999 11.5125 8.59999C11.9125 7.79999 12.5125 7.09999 13.3125 6.59999C13.9125 6.19999 14.5125 5.99999 15.2125 5.79999C15.9125 5.69999 16.5125 5.59999 17.2125 5.69999C18.2125 5.79999 19.0125 6.19999 19.7125 6.79999C20.6125 7.59999 21.2125 8.69999 21.5125 10.2C21.8125 11.7 21.8125 13 21.3125 14.1C20.9125 14.9 20.3125 15.6 19.5125 16.2C18.9125 16.6 18.3125 16.8 17.7125 17C17.0125 17.2 16.4125 17.2 15.7125 17.1C14.7125 17 13.9125 16.6 13.2125 16C12.3125 15.1 11.7125 13.9 11.3125 12.4ZM13.5125 11.9C13.8125 13.2 14.3125 14.1 15.1125 14.6C15.7125 15 16.4125 15.1 17.2125 14.9C17.9125 14.7 18.5125 14.4 18.9125 13.8C19.4125 13 19.5125 12 19.2125 10.6C18.9125 9.29999 18.4125 8.39999 17.6125 7.89999C17.0125 7.49999 16.3125 7.39999 15.6125 7.59999C14.9125 7.79999 14.3125 8.09999 13.9125 8.69999C13.3125 9.59999 13.2125 10.6 13.5125 11.9Z" fill="#482323"/>
<path d="M28.6125 3.49998L30.7125 3.09998L32.6125 13.7L30.4125 14.1L24.6125 7.29998L25.9125 14.9L23.9125 15.2L22.0125 4.59998L24.3125 4.19998L29.8125 10.9L28.6125 3.49998Z" fill="#482323"/>
<path d="M39.5125 8.69996L39.3125 6.89996L43.8125 6.29996L44.5125 12.1L43.0125 12.3L42.6125 11C42.2125 11.5 41.9125 11.9 41.6125 12.2C41.0125 12.7 40.3125 13 39.5125 13.1C38.1125 13.3 36.9125 13 35.9125 12.1C34.8125 11.2 34.1125 9.89996 33.9125 8.09996C33.7125 6.49996 34.0125 5.19996 34.7125 3.99996C35.5125 2.69996 36.8125 1.99996 38.5125 1.79996C40.0125 1.59996 41.2125 1.89996 42.2125 2.59996C43.0125 3.19996 43.5125 3.89996 43.6125 4.79996L41.4125 5.09996C41.4125 4.79996 41.1125 4.49996 40.7125 4.09996C40.2125 3.69996 39.5125 3.49996 38.8125 3.59996C37.9125 3.69996 37.3125 4.09996 36.8125 4.79996C36.3125 5.59996 36.1125 6.59996 36.2125 7.89996C36.4125 9.19996 36.8125 10.2 37.5125 10.7C38.1125 11.1 38.8125 11.3 39.7125 11.2C40.4125 11.1 40.9125 10.8 41.3125 10.4C41.7125 9.89996 41.9125 9.29996 42.0125 8.59996L39.5125 8.69996Z" fill="#482323"/>
<path d="M46.9125 11.9L46.1125 1.10002L51.5125 0.700024C52.7125 0.600024 53.7125 0.900025 54.3125 1.60002C54.8125 2.10002 55.0125 2.70002 55.1125 3.40002C55.1125 4.00002 55.0125 4.60002 54.8125 5.00002C54.6125 5.40002 54.2125 5.80002 53.6125 6.10002C54.1125 6.30002 54.5126 6.50002 54.7126 6.80002C55.0126 7.20002 55.1126 7.80002 55.2126 8.70002C55.3126 9.40002 55.3125 10 55.4125 10.2C55.4125 10.5 55.6125 10.7 55.9125 10.7V11L53.5125 11.3C53.4125 11 53.3125 10.7 53.3125 10.4C53.2125 10.1 53.2125 9.70002 53.1125 9.10002C53.0125 8.30002 52.9126 7.80002 52.7126 7.60002C52.4126 7.30002 51.9125 7.20002 51.1125 7.30002L48.8125 7.50002L49.1125 11.7L46.9125 11.9ZM48.7125 5.70002L51.3125 5.50002C51.9125 5.50002 52.3125 5.30002 52.6125 5.00002C52.9125 4.70002 53.0125 4.40002 52.9125 3.80002C52.9125 3.40002 52.7125 3.10002 52.5125 2.90002C52.2125 2.60002 51.8126 2.50002 51.2126 2.50002L48.4125 2.70002L48.7125 5.70002Z" fill="#482323"/>
<path d="M59.5125 8.79998L58.8125 11L56.4125 11.1L59.9125 0.199975L62.5125 0.0999756L66.7125 10.7L64.3125 10.8L63.5125 8.59998L59.5125 8.79998ZM60.0125 6.89998L62.8125 6.79998L61.3125 2.59998L60.0125 6.89998Z" fill="#482323"/>
<path d="M71.3125 1.9V10.8H69.0125V1.9H65.7125V0H74.5125V1.9H71.3125Z" fill="#482323"/>
<path d="M85.3125 0.4L85.0125 7.4C84.9125 8.8 84.5125 9.8 83.7125 10.4C82.9125 11 81.8125 11.3 80.4125 11.2C79.8125 11.2 79.2125 11.1 78.7125 10.9C78.0125 10.6 77.5125 10.3 77.0125 9.8C76.5125 9.1 76.2125 8.2 76.3125 7.1L76.6125 0L78.9125 0.1L78.6125 7.1C78.6125 7.8 78.7125 8.4 79.1125 8.7C79.5125 9 79.9125 9.3 80.5125 9.3C81.2125 9.3 81.8125 9.2 82.2125 8.8C82.6125 8.5 82.8125 8 82.8125 7.3L83.0125 0.3L85.3125 0.4Z" fill="#482323"/>
<path d="M90.2125 0.799975L89.4125 9.59997L94.7125 10.1L94.5125 12L86.9125 11.3L87.9125 0.599976L90.2125 0.799975Z" fill="#482323"/>
<path d="M98.4126 10.3L97.4126 12.4L95.1125 12.1L100.413 2L102.913 2.3L105.213 13.5L102.813 13.2L102.413 10.9L98.4126 10.3ZM99.3126 8.6L102.013 9L101.213 4.6L99.3126 8.6Z" fill="#482323"/>
<path d="M111.312 5.59995L109.712 14.3L107.512 13.9L109.112 5.19995L105.912 4.59995L106.212 2.69995L114.812 4.29995L114.512 6.19995L111.312 5.59995Z" fill="#482323"/>
<path d="M118.912 5.30005L116.612 15.8L114.412 15.3L116.712 4.80005L118.912 5.30005Z" fill="#482323"/>
<path d="M119.712 10.9C120.112 9.40002 120.712 8.30002 121.612 7.60002C122.312 7.00002 123.112 6.70002 124.112 6.60002C124.812 6.50002 125.512 6.60002 126.112 6.80002C126.812 7.00002 127.412 7.20002 127.912 7.60002C128.712 8.20002 129.312 8.90002 129.612 9.70002C130.012 10.8 130.012 12.1 129.612 13.6C129.212 15.1 128.612 16.2 127.712 16.9C127.012 17.5 126.212 17.8 125.212 17.9C124.512 18 123.812 17.9 123.212 17.8C122.512 17.6 121.912 17.3 121.412 17C120.612 16.4 120.012 15.7 119.712 14.9C119.312 13.7 119.312 12.4 119.712 10.9ZM121.812 11.5C121.512 12.8 121.512 13.9 122.012 14.7C122.412 15.3 122.912 15.7 123.712 15.9C124.412 16.1 125.112 16 125.712 15.7C126.512 15.2 127.112 14.3 127.412 13C127.712 11.7 127.712 10.6 127.212 9.80002C126.812 9.20002 126.312 8.80002 125.512 8.60002C124.812 8.40002 124.112 8.50002 123.412 8.80002C122.812 9.30002 122.212 10.2 121.812 11.5Z" fill="#482323"/>
<path d="M139.112 10.9L141.112 11.5L137.812 21.7L135.712 21L133.912 12.3L131.512 19.6L129.512 19L132.812 8.80005L135.112 9.50005L136.812 17.9L139.112 10.9Z" fill="#482323"/>
</svg>
