<svg width="33" height="32" viewBox="0 0 33 32" fill="none" xmlns="http://www.w3.org/2000/svg">
<path fill-rule="evenodd" clip-rule="evenodd" d="M16 0C24.8553 0 32 7.14465 32 16C32 24.8553 24.8553 32 16 32C7.14465 32 0 24.8553 0 16C0 7.14465 7.14465 0 16 0Z" fill="url(#paint0_linear_342_2393)"/>
<path fill-rule="evenodd" clip-rule="evenodd" d="M4.22641 16C4.22641 9.45912 9.55975 4.12579 16.1006 4.12579C22.6415 4.12579 27.9748 9.45912 27.9748 16C28.5786 14.1887 31.4969 13.8868 32.1006 16C32.1006 7.14465 24.956 0 16.1006 0C7.14465 0 0 7.14465 0 16C0.704402 13.8868 3.52201 14.1887 4.22641 16Z" fill="url(#paint1_linear_342_2393)"/>
<path fill-rule="evenodd" clip-rule="evenodd" d="M15.6981 3.92453C22.239 3.92453 27.5723 9.25786 27.5723 15.7987C27.5723 22.3396 22.239 27.673 15.6981 27.673C9.15725 27.673 3.82391 22.239 3.82391 15.6981C3.82391 9.15723 9.15725 3.92453 15.6981 3.92453Z" fill="#F7E984"/>
<path fill-rule="evenodd" clip-rule="evenodd" d="M15.9999 4.22644C22.5408 4.22644 27.8742 9.55977 27.8742 16.1007C27.8742 22.6415 22.5408 27.9749 15.9999 27.9749C9.45906 27.9749 4.12573 22.6415 4.12573 16.1007C4.22636 9.45914 9.45906 4.22644 15.9999 4.22644Z" fill="url(#paint2_radial_342_2393)"/>
<path fill-rule="evenodd" clip-rule="evenodd" d="M6.23894 22.7421L22.7421 6.239C20.8301 4.93083 18.5157 4.12579 15.9999 4.12579C14.9937 4.12579 13.9874 4.22642 12.9811 4.52831L4.52825 12.9811C4.32699 13.9874 4.12573 14.8931 4.12573 16C4.22636 18.5157 4.93076 20.8302 6.23894 22.7421Z" fill="url(#paint3_radial_342_2393)" fill-opacity="0.5"/>
<path fill-rule="evenodd" clip-rule="evenodd" d="M26.8679 11.7736L11.7736 26.8679L11.5723 26.9686C12.7799 27.4717 14.1887 27.7736 15.4969 27.7736L15.7987 27.4717L27.4717 15.7987L27.7736 15.4969C27.673 14.088 27.4717 12.7799 26.9686 11.5723L26.8679 11.7736Z" fill="#FFECA0" fill-opacity="0.6"/>
<path fill-rule="evenodd" clip-rule="evenodd" d="M16 0.402516C24.5535 0.402516 31.5975 7.34591 31.5975 16C31.5975 24.5535 24.6541 31.5975 16 31.5975C7.44654 31.5975 0.402516 24.6541 0.402516 16C0.402516 7.44654 7.44654 0.402516 16 0.402516ZM16 0C24.8553 0 32 7.14465 32 16C32 24.8553 24.8553 32 16 32C7.14465 32 0 24.8553 0 16C0 7.14465 7.14465 0 16 0Z" fill="url(#paint4_linear_342_2393)"/>
<path fill-rule="evenodd" clip-rule="evenodd" d="M0.804993 12.5786C2.9182 5.83646 8.95593 1.00627 16 1.00627C23.044 1.00627 29.0817 5.83646 31.1949 12.5786C29.5849 5.6352 23.4465 0.402496 16 0.402496C8.55342 0.402496 2.41506 5.6352 0.804993 12.5786Z" fill="#F7E984"/>
<path fill-rule="evenodd" clip-rule="evenodd" d="M10.1646 12.6991H12.4903L17.8308 8.13379H17.9169L18.0031 8.21993V13.3882C19.0367 13.6466 19.812 14.5941 19.812 15.8C19.812 16.9198 19.0367 17.8673 18.0031 18.2119V23.3801C18.0031 23.3801 18.0031 23.4662 17.9169 23.4662H17.8308L12.4903 18.901H10.1646C9.90618 18.901 9.64777 18.6425 9.64777 18.3841V13.3882C9.64777 12.9575 9.90618 12.6991 10.1646 12.6991ZM19.2951 12.2684C19.1229 12.1822 19.0367 11.9238 19.1229 11.6654C19.209 11.4931 19.4674 11.407 19.7258 11.4931C20.5011 11.9238 21.104 12.5268 21.5347 13.302C21.9654 13.9911 22.2238 14.8525 22.2238 15.7139C22.2238 16.5752 21.9654 17.4366 21.5347 18.1257C21.104 18.8148 20.5011 19.5039 19.7258 19.9346C19.5536 20.0207 19.209 20.0207 19.1229 19.7623C19.0367 19.5901 19.0367 19.2455 19.2951 19.1594C19.8981 18.8148 20.4149 18.298 20.7595 17.695C21.104 17.0921 21.2763 16.403 21.2763 15.7139C21.2763 15.0248 21.104 14.3357 20.7595 13.7327C20.4149 13.1298 19.8981 12.6129 19.2951 12.2684ZM20.1565 10.7179C19.9842 10.6318 19.8981 10.3734 19.9842 10.1149C20.0704 9.94267 20.3288 9.85654 20.5872 9.94267C21.6209 10.5456 22.4822 11.407 22.9991 12.3545C23.602 13.3882 23.8604 14.508 23.8604 15.6277C23.8604 16.8337 23.5159 17.9534 22.9991 18.9871C22.3961 20.0207 21.6209 20.796 20.5872 21.3989C20.4149 21.4851 20.0704 21.4851 19.9842 21.2267C19.8981 21.0544 19.8981 20.7098 20.1565 20.6237C21.0179 20.1069 21.7931 19.3316 22.31 18.4703C22.8268 17.6089 23.0852 16.5752 23.0852 15.5416C23.0852 14.508 22.8268 13.5604 22.31 12.6991C21.7931 11.9238 21.104 11.2347 20.1565 10.7179Z" fill="url(#paint5_linear_342_2393)"/>
<path fill-rule="evenodd" clip-rule="evenodd" d="M9.64777 18.9871C9.64777 19.2455 9.90618 19.5039 10.1646 19.5039H12.4903L17.8308 24.0692H17.9169L18.0031 23.983V23.2939C18.0031 23.2939 18.0031 23.3801 17.9169 23.3801H17.8308L12.4903 18.8148H10.1646C9.90618 18.8148 9.64777 18.5564 9.64777 18.298V18.9871ZM17.9169 18.1257V18.8148C18.9506 18.5564 19.7258 17.6089 19.7258 16.403C19.7258 16.3168 19.7258 16.1445 19.7258 16.0584C19.6397 17.0921 18.8645 17.8673 17.9169 18.1257ZM19.209 19.8485C19.0367 20.0207 18.9506 20.193 19.1229 20.4514C19.209 20.6237 19.4674 20.7098 19.7258 20.6237C20.5011 20.193 21.104 19.59 21.5347 18.8148C21.9654 18.1257 22.2238 17.2643 22.2238 16.403C22.2238 16.3168 22.2238 16.1445 22.2238 16.0584C22.1377 16.8336 21.9654 17.5227 21.6209 18.1257C21.1902 18.8148 20.5872 19.5039 19.812 19.9346C19.5536 20.0207 19.3813 20.0207 19.209 19.8485ZM20.1565 21.4851C19.9842 21.6573 19.8981 21.8296 20.0704 22.088C20.1565 22.2603 20.4149 22.3464 20.6733 22.2603C21.707 21.6573 22.5684 20.796 23.0852 19.8485C23.6882 18.8148 23.9466 17.695 23.9466 16.4891C23.9466 16.403 23.9466 16.2307 23.9466 16.1445C23.8604 17.1782 23.602 18.2118 23.0852 19.1594C22.4822 20.193 21.707 20.9682 20.6733 21.5712C20.5011 21.5712 20.3288 21.5712 20.1565 21.4851ZM19.2951 13.0436C19.8981 13.3882 20.4149 13.905 20.7595 14.5079C21.0179 15.0248 21.1902 15.5416 21.2763 16.1445C21.2763 16.0584 21.2763 15.8861 21.2763 15.8C21.2763 15.1109 21.104 14.4218 20.7595 13.8188C20.4149 13.2159 19.8981 12.6991 19.2951 12.3545C19.209 12.3545 19.209 12.4406 19.209 12.5268C19.0367 12.6129 19.0367 12.8713 19.2951 13.0436ZM20.1565 11.407C21.0179 11.9238 21.7931 12.6991 22.31 13.5604C22.7406 14.3357 22.9991 15.197 23.0852 16.0584C23.0852 15.9723 23.0852 15.8 23.0852 15.7139C23.0852 14.6802 22.8268 13.7327 22.31 12.8713C21.7931 12.01 21.104 11.2347 20.1565 10.7179C20.0704 10.7179 20.0704 10.804 20.0704 10.8902C19.8981 11.0624 19.9842 11.3209 20.1565 11.407Z" fill="#F7E984"/>
<path fill-rule="evenodd" clip-rule="evenodd" d="M17.8308 8.13379L12.4903 12.6991H10.1646C9.90618 12.6991 9.64777 12.9575 9.64777 13.2159V14.1634C9.64777 13.905 9.90618 13.6466 10.1646 13.6466H12.4903L17.8308 9.0813H17.9169L18.0031 9.16743V8.21992C18.0031 8.21992 18.0031 8.13379 17.9169 8.13379C17.8308 8.04765 17.8308 8.04765 17.8308 8.13379ZM20.0704 10.1149C19.9842 10.2872 19.9842 10.6318 20.2427 10.7179C20.3288 10.804 20.4149 10.804 20.5011 10.8902C20.5872 10.8902 20.5872 10.8902 20.6733 10.9763C21.707 11.5793 22.5684 12.4407 23.0852 13.3882C23.602 14.2495 23.8604 15.197 23.9466 16.2307C23.9466 16.0584 23.9466 15.8861 23.9466 15.7139C23.9466 14.5079 23.602 13.3882 23.0852 12.4407C22.4822 11.407 21.707 10.6318 20.6733 10.0288C20.4149 9.85653 20.1565 9.94267 20.0704 10.1149ZM19.7258 11.5793C19.5536 11.4931 19.209 11.4931 19.1229 11.7516C19.0367 11.9238 19.0367 12.2684 19.2951 12.3545C19.3813 12.4407 19.4674 12.4407 19.5536 12.5268C19.6397 12.5268 19.6397 12.5268 19.7258 12.6129C20.5011 13.0436 21.104 13.6466 21.5347 14.4218C21.8793 15.0248 22.0515 15.6277 22.1377 16.3168C22.1377 16.1446 22.1377 15.9723 22.1377 15.8C22.1377 14.9386 21.8793 14.0773 21.4486 13.3882C21.104 12.6129 20.5011 12.01 19.7258 11.5793ZM20.7595 17.695C20.4149 18.298 19.8981 18.8148 19.2951 19.1594C19.1229 19.2455 19.0367 19.5039 19.1229 19.7623C19.209 19.9346 19.3813 20.0207 19.5536 19.9346C20.0704 19.5901 20.4149 19.1594 20.7595 18.6425C21.104 18.0396 21.2763 17.3505 21.2763 16.6614C21.2763 16.4891 21.2763 16.3168 21.2763 16.1446C21.1902 16.7475 21.0179 17.2643 20.7595 17.695ZM22.31 18.6425C21.7931 19.5039 21.104 20.2792 20.1565 20.796C19.9842 20.8821 19.8981 21.1405 19.9842 21.3989C20.0704 21.5712 20.2427 21.6573 20.4149 21.5712C21.1902 21.0544 21.7931 20.3653 22.2238 19.59C22.7406 18.7287 22.9991 17.695 22.9991 16.6614C22.9991 16.4891 22.9991 16.3168 22.9991 16.1446C22.9991 17.0921 22.7406 17.8673 22.31 18.6425Z" fill="#753D29"/>
<defs>
<linearGradient id="paint0_linear_342_2393" x1="16.0035" y1="32.0009" x2="16.0035" y2="0.0270698" gradientUnits="userSpaceOnUse">
<stop stop-color="#DE8B00"/>
<stop offset="1" stop-color="#FFC75E"/>
</linearGradient>
<linearGradient id="paint1_linear_342_2393" x1="16.0035" y1="16.0141" x2="16.0035" y2="0.02707" gradientUnits="userSpaceOnUse">
<stop stop-color="#FFB805"/>
<stop offset="1" stop-color="#FFE89C"/>
</linearGradient>
<radialGradient id="paint2_radial_342_2393" cx="0" cy="0" r="1" gradientUnits="userSpaceOnUse" gradientTransform="translate(10.4246 5.72792) scale(26.2495)">
<stop stop-color="#FFEEB8"/>
<stop offset="1" stop-color="#FFBF00"/>
</radialGradient>
<radialGradient id="paint3_radial_342_2393" cx="0" cy="0" r="1" gradientUnits="userSpaceOnUse" gradientTransform="translate(11.711 -1.17967) scale(26.4879)">
<stop stop-color="#FFFD9E"/>
<stop offset="1" stop-color="#FFFD9E"/>
</radialGradient>
<linearGradient id="paint4_linear_342_2393" x1="16.0035" y1="32.0009" x2="16.0035" y2="0.0270698" gradientUnits="userSpaceOnUse">
<stop stop-color="#CF8000"/>
<stop offset="1" stop-color="#F5B133"/>
</linearGradient>
<linearGradient id="paint5_linear_342_2393" x1="16.8002" y1="23.3631" x2="16.8002" y2="8.08848" gradientUnits="userSpaceOnUse">
<stop stop-color="#D68329"/>
<stop offset="1" stop-color="#954B25"/>
</linearGradient>
</defs>
</svg>
