<svg width="33" height="32" viewBox="0 0 33 32" fill="none" xmlns="http://www.w3.org/2000/svg">
<path fill-rule="evenodd" clip-rule="evenodd" d="M16 0C24.8553 0 32 7.14465 32 16C32 24.8553 24.8553 32 16 32C7.14465 32 0 24.8553 0 16C0 7.14465 7.14465 0 16 0Z" fill="url(#paint0_linear_261_25369)"/>
<path fill-rule="evenodd" clip-rule="evenodd" d="M4.22641 16C4.22641 9.45912 9.55975 4.12579 16.1006 4.12579C22.6415 4.12579 27.9748 9.45912 27.9748 16C28.5786 14.1887 31.4969 13.8868 32.1006 16C32.1006 7.14465 24.956 0 16.1006 0C7.14465 0 0 7.14465 0 16C0.704402 13.8868 3.52201 14.1887 4.22641 16Z" fill="url(#paint1_linear_261_25369)"/>
<path fill-rule="evenodd" clip-rule="evenodd" d="M15.6981 3.92453C22.239 3.92453 27.5723 9.25786 27.5723 15.7987C27.5723 22.3396 22.239 27.673 15.6981 27.673C9.15725 27.673 3.82391 22.239 3.82391 15.6981C3.82391 9.15723 9.15725 3.92453 15.6981 3.92453Z" fill="#F7E984"/>
<path fill-rule="evenodd" clip-rule="evenodd" d="M15.9999 4.22644C22.5408 4.22644 27.8742 9.55977 27.8742 16.1007C27.8742 22.6415 22.5408 27.9749 15.9999 27.9749C9.45906 27.9749 4.12573 22.6415 4.12573 16.1007C4.22636 9.45914 9.45906 4.22644 15.9999 4.22644Z" fill="url(#paint2_radial_261_25369)"/>
<path fill-rule="evenodd" clip-rule="evenodd" d="M6.23894 22.7421L22.7421 6.239C20.8301 4.93083 18.5157 4.12579 15.9999 4.12579C14.9937 4.12579 13.9874 4.22642 12.9811 4.52831L4.52825 12.9811C4.32699 13.9874 4.12573 14.8931 4.12573 16C4.22636 18.5157 4.93076 20.8302 6.23894 22.7421Z" fill="url(#paint3_radial_261_25369)" fill-opacity="0.5"/>
<path fill-rule="evenodd" clip-rule="evenodd" d="M26.8679 11.7736L11.7736 26.8679L11.5723 26.9686C12.7799 27.4717 14.1887 27.7736 15.4969 27.7736L15.7987 27.4717L27.4717 15.7987L27.7736 15.4969C27.673 14.088 27.4717 12.7799 26.9686 11.5723L26.8679 11.7736Z" fill="#FFECA0" fill-opacity="0.6"/>
<path fill-rule="evenodd" clip-rule="evenodd" d="M16 0.402516C24.5535 0.402516 31.5975 7.34591 31.5975 16C31.5975 24.5535 24.6541 31.5975 16 31.5975C7.44654 31.5975 0.402516 24.6541 0.402516 16C0.402516 7.44654 7.44654 0.402516 16 0.402516ZM16 0C24.8553 0 32 7.14465 32 16C32 24.8553 24.8553 32 16 32C7.14465 32 0 24.8553 0 16C0 7.14465 7.14465 0 16 0Z" fill="url(#paint4_linear_261_25369)"/>
<path fill-rule="evenodd" clip-rule="evenodd" d="M0.804993 12.5786C2.9182 5.83646 8.95593 1.00627 16 1.00627C23.044 1.00627 29.0817 5.83646 31.1949 12.5786C29.5849 5.6352 23.4465 0.402496 16 0.402496C8.55342 0.402496 2.41506 5.6352 0.804993 12.5786Z" fill="#F7E984"/>
<path fill-rule="evenodd" clip-rule="evenodd" d="M10.1646 12.6991H12.4903L17.8308 8.13379H17.9169L18.0031 8.21993V13.3882C19.0367 13.6466 19.812 14.5941 19.812 15.8C19.812 16.9198 19.0367 17.8673 18.0031 18.2119V23.3801C18.0031 23.3801 18.0031 23.4662 17.9169 23.4662H17.8308L12.4903 18.901H10.1646C9.90618 18.901 9.64777 18.6425 9.64777 18.3841V13.3882C9.64777 12.9575 9.90618 12.6991 10.1646 12.6991Z" fill="url(#paint5_linear_261_25369)"/>
<path fill-rule="evenodd" clip-rule="evenodd" d="M9.64777 18.9871C9.64777 19.2455 9.90618 19.5039 10.1646 19.5039H12.4903L17.8308 24.0692H17.9169L18.0031 23.983V23.2939C18.0031 23.2939 18.0031 23.3801 17.9169 23.3801H17.8308L12.4903 18.8148H10.1646C9.90618 18.8148 9.64777 18.5564 9.64777 18.298V18.9871ZM17.9169 18.1257V18.8148C18.9506 18.5564 19.7258 17.6089 19.7258 16.403C19.7258 16.3168 19.7258 16.1445 19.7258 16.0584C19.6397 17.0921 18.8645 17.8673 17.9169 18.1257Z" fill="#F7E984"/>
<path fill-rule="evenodd" clip-rule="evenodd" d="M17.8308 8.13379L12.4903 12.6991H10.1646C9.90618 12.6991 9.64777 12.9575 9.64777 13.2159V14.1634C9.64777 13.905 9.90618 13.6466 10.1646 13.6466H12.4903L17.8308 9.0813H17.9169L18.0031 9.16743V8.21992C18.0031 8.21992 18.0031 8.13379 17.9169 8.13379C17.8308 8.04765 17.8308 8.04765 17.8308 8.13379Z" fill="#753D29"/>
<rect x="9" y="10.0977" width="1.55243" height="17" rx="0.776214" transform="rotate(-45 9 10.0977)" fill="#E49612"/>
<defs>
<linearGradient id="paint0_linear_261_25369" x1="16.0035" y1="32.0009" x2="16.0035" y2="0.0270698" gradientUnits="userSpaceOnUse">
<stop stop-color="#DE8B00"/>
<stop offset="1" stop-color="#FFC75E"/>
</linearGradient>
<linearGradient id="paint1_linear_261_25369" x1="16.0035" y1="16.0141" x2="16.0035" y2="0.02707" gradientUnits="userSpaceOnUse">
<stop stop-color="#FFB805"/>
<stop offset="1" stop-color="#FFE89C"/>
</linearGradient>
<radialGradient id="paint2_radial_261_25369" cx="0" cy="0" r="1" gradientUnits="userSpaceOnUse" gradientTransform="translate(10.4246 5.72792) scale(26.2495)">
<stop stop-color="#FFEEB8"/>
<stop offset="1" stop-color="#FFBF00"/>
</radialGradient>
<radialGradient id="paint3_radial_261_25369" cx="0" cy="0" r="1" gradientUnits="userSpaceOnUse" gradientTransform="translate(11.711 -1.17967) scale(26.4879)">
<stop stop-color="#FFFD9E"/>
<stop offset="1" stop-color="#FFFD9E"/>
</radialGradient>
<linearGradient id="paint4_linear_261_25369" x1="16.0035" y1="32.0009" x2="16.0035" y2="0.0270698" gradientUnits="userSpaceOnUse">
<stop stop-color="#CF8000"/>
<stop offset="1" stop-color="#F5B133"/>
</linearGradient>
<linearGradient id="paint5_linear_261_25369" x1="16.8002" y1="23.3631" x2="16.8002" y2="8.08848" gradientUnits="userSpaceOnUse">
<stop stop-color="#D68329"/>
<stop offset="1" stop-color="#954B25"/>
</linearGradient>
</defs>
</svg>
