<svg width="141" height="22" viewBox="0 0 141 22" fill="none" xmlns="http://www.w3.org/2000/svg">
<path d="M2.2 9.5L5.2 19.8L3 20.4L0 10.1L2.2 9.5Z" fill="#482323"/>
<path d="M7.40001 8.10001L9.60001 16.6L14.8 15.3L15.3 17.2L7.80001 19.1L5.20001 8.70001L7.40001 8.10001Z" fill="#482323"/>
<path d="M23.4 4.5L24.8 11.3C25.1 12.7 24.9 13.8 24.3 14.6C23.7 15.4 22.7 15.9 21.3 16.2C20.7 16.3 20.1 16.4 19.6 16.3C18.9 16.2 18.2 16 17.7 15.6C17 15.1 16.6 14.3 16.3 13.2L14.8 6.2L17.1 5.7L18.5 12.5C18.6 13.2 18.9 13.7 19.4 14C19.8 14.3 20.3 14.4 20.9 14.3C21.6 14.2 22.1 13.9 22.4 13.5C22.7 13.1 22.7 12.5 22.6 11.9L21.2 5L23.4 4.5Z" fill="#482323"/>
<path d="M36 5.90001L33.8 6.30001C33.6 5.80001 33.3 5.50001 33.1 5.20001C32.6 4.80001 32 4.70001 31.2 4.80001C30.5 4.90001 30 5.20001 29.6 5.80001C29.1 6.50001 28.9 7.60001 29.2 9.00001C29.4 10 29.7 10.8 30.2 11.4C30.8 12.1 31.5 12.3 32.4 12.2C33 12.1 33.5 11.8 33.9 11.4C34.3 11 34.4 10.5 34.5 9.80001L36.7 9.40001C36.7 10.6 36.3 11.7 35.7 12.5C35 13.4 34 13.9 32.7 14.1C31.2 14.3 30 14 29 13.2C27.9 12.4 27.2 11 27 9.20001C26.7 7.40001 27 5.90001 27.7 4.80001C28.4 3.70001 29.5 3.10001 30.9 2.80001C32.4 2.60001 33.6 2.80001 34.6 3.50001C35.4 4.30001 35.9 5.00001 36 5.90001Z" fill="#482323"/>
<path d="M41.7 8.9L42.1 12.5L39.8 12.7L38.6 2L40.8 1.7L41.3 6.1L44.9 1.3L47.8 1L43.9 5.9L49.2 11.7L46.3 12L42.5 7.7L41.7 8.9Z" fill="#482323"/>
<path d="M55.2 7.20001L55.5 11.2L53.3 11.4L52.9 7.30001L48.8 0.900013L51.4 0.700012L54 5.20001L55.8 0.400013L58.3 0.200012L55.2 7.20001Z" fill="#482323"/>
<path d="M68.2 6.9V10.8H66V0H70.9C71.9 0 72.8 0.300001 73.4 0.900001C74 1.5 74.3 2.4 74.3 3.4C74.3 4.2 74.1 4.8 73.7 5.5C73.1 6.4 72.2 6.9 70.9 6.9H68.2ZM68.2 5H70.3C71 5 71.5 4.8 71.8 4.3C71.9 4.1 72 3.7 72 3.3C72 2.8 71.8 2.4 71.5 2.2C71.2 2 70.7 1.9 70 1.9H68.2V5Z" fill="#482323"/>
<path d="M76.8 10.8L77.3 0L82.7 0.3C83.9 0.4 84.8 0.799999 85.4 1.6C85.8 2.2 86 2.8 85.9 3.5C85.9 4.1 85.7 4.6 85.4 5.1C85.1 5.6 84.7 5.9 84.1 6C84.6 6.2 84.9 6.5 85.1 6.8C85.3 7.2 85.4 7.9 85.4 8.8C85.4 9.5 85.4 10.1 85.4 10.3C85.4 10.6 85.6 10.8 85.8 10.9V11.2L83.3 11.1C83.2 10.8 83.2 10.5 83.2 10.2C83.2 9.9 83.2 9.5 83.2 8.9C83.2 8.1 83.2 7.6 83 7.3C82.8 7 82.3 6.8 81.5 6.8L79.2 6.7L79 10.9L76.8 10.8ZM79.3 4.9L81.9 5C82.5 5 82.9 4.9 83.2 4.7C83.5 4.5 83.6 4.1 83.7 3.6C83.7 3.2 83.6 2.9 83.4 2.7C83.1 2.4 82.7 2.2 82.1 2.1L79.3 2V4.9Z" fill="#482323"/>
<path d="M97.3 1.49999L97.1 3.39999L91.4 2.79999L91.2 5.09999L96.4 5.59999L96.2 7.49999L91 6.99999L90.7 9.79999L96.6 10.4L96.4 12.3L88.3 11.5L89.4 0.799988L97.3 1.49999Z" fill="#482323"/>
<path d="M111 3.6L109.3 14.2L107.2 13.9L108.6 5L105.2 13.6L103 13.2L102.5 4L101 12.9L98.9 12.6L100.6 2L103.8 2.5L104.4 11.2L107.7 3.1L111 3.6Z" fill="#482323"/>
<path d="M116.4 4.70001L114.2 15.2L112 14.7L114.2 4.20001L116.4 4.70001Z" fill="#482323"/>
<path d="M127.8 7.39999L126.1 14.2C125.8 15.6 125.1 16.5 124.2 16.9C123.3 17.3 122.2 17.4 120.8 17.1C120.2 17 119.7 16.7 119.2 16.4C118.6 16 118.1 15.5 117.8 15C117.4 14.2 117.4 13.3 117.6 12.3L119.3 5.39999L121.5 5.99999L119.8 12.8C119.6 13.5 119.7 14.1 119.9 14.5C120.2 14.9 120.6 15.2 121.1 15.4C121.8 15.6 122.4 15.5 122.8 15.3C123.2 15 123.5 14.6 123.7 13.9L125.4 6.99999L127.8 7.39999Z" fill="#482323"/>
<path d="M140.8 11.4L137.5 21.7L135.5 21.1L138.2 12.5L133.5 20.5L131.4 19.8L132.3 10.6L129.5 19.2L127.5 18.6L130.8 8.29999L133.9 9.29999L133.2 18L137.6 10.5L140.8 11.4Z" fill="#482323"/>
</svg>
