<svg width="340" height="209" viewBox="0 0 340 209" fill="none" xmlns="http://www.w3.org/2000/svg">
<path fill-rule="evenodd" clip-rule="evenodd" d="M7.89355 20.4261H331.175V200.186H7.89355V20.4261Z" fill="url(#paint0_radial_0_1)"/>
<path fill-rule="evenodd" clip-rule="evenodd" d="M7.89367 110.486V20.4261L5.02324 17.5556V102.592C5.02324 106.539 2.87042 109.05 0 110.127H7.89367V110.486Z" fill="url(#paint1_linear_0_1)"/>
<path fill-rule="evenodd" clip-rule="evenodd" d="M7.89375 110.486V200.186L5.38213 203.057V118.02C5.38213 114.074 3.22931 111.562 0.358887 110.486H7.89375Z" fill="url(#paint2_linear_0_1)"/>
<path fill-rule="evenodd" clip-rule="evenodd" d="M169.714 200.186H7.89346L5.38184 203.057H162.179C166.126 203.057 168.637 205.21 169.714 208.08V200.186Z" fill="url(#paint3_linear_0_1)"/>
<path fill-rule="evenodd" clip-rule="evenodd" d="M169.714 200.186H331.534L334.404 203.057H177.249C173.302 203.057 170.79 205.21 169.714 208.08V200.186Z" fill="url(#paint4_linear_0_1)"/>
<path fill-rule="evenodd" clip-rule="evenodd" d="M331.175 110.486V20.4261L334.045 17.5556V102.592C334.045 106.539 336.198 109.05 339.068 110.127H331.175V110.486Z" fill="url(#paint5_linear_0_1)"/>
<path fill-rule="evenodd" clip-rule="evenodd" d="M331.175 110.486V200.186L334.045 203.057V118.02C334.045 114.074 336.198 111.562 339.068 110.486H331.175Z" fill="url(#paint6_linear_0_1)"/>
<path fill-rule="evenodd" clip-rule="evenodd" d="M169.714 20.4261H7.89338L5.02295 17.5557H161.82C165.767 17.5557 168.278 15.4028 169.355 12.5324V20.4261H169.714Z" fill="url(#paint7_linear_0_1)"/>
<path fill-rule="evenodd" clip-rule="evenodd" d="M169.714 20.4261H331.534L334.404 17.5557H177.249C173.302 17.5557 170.79 15.4028 169.714 12.5324V20.4261Z" fill="url(#paint8_linear_0_1)"/>
<path fill-rule="evenodd" clip-rule="evenodd" d="M10.764 23.2965H328.663L331.175 20.4261H7.89355L10.764 23.2965Z" fill="url(#paint9_radial_0_1)"/>
<path fill-rule="evenodd" clip-rule="evenodd" d="M10.764 197.675V23.2965L7.89355 20.4261V60.612V200.186L10.764 197.675Z" fill="url(#paint10_linear_0_1)"/>
<path fill-rule="evenodd" clip-rule="evenodd" d="M328.664 23.2965V197.675L331.175 200.186V60.612V20.4261L328.664 23.2965Z" fill="url(#paint11_linear_0_1)"/>
<path fill-rule="evenodd" clip-rule="evenodd" d="M328.663 197.675H10.764L7.89355 200.186H331.175L328.663 197.675Z" fill="url(#paint12_radial_0_1)"/>
<path fill-rule="evenodd" clip-rule="evenodd" d="M107.245 6.63747C126.91 3.06345 160.766 0 168.672 0C176.782 0 210.435 3.06345 230.1 6.63747C230.303 9.19034 230.911 19.4018 230.911 20.1677C230.911 20.9336 230.303 30.8898 230.1 33.4426C210.435 37.0166 176.579 40.0801 168.672 40.0801C160.563 40.0801 126.91 37.0166 107.245 33.4426C107.042 30.8898 106.434 20.6783 106.434 19.9124C106.434 19.1465 107.042 8.93505 107.245 6.63747Z" fill="#999999"/>
<path fill-rule="evenodd" clip-rule="evenodd" d="M227.465 9.70092C220.166 8.42449 212.868 7.65862 205.772 6.63748C198.271 5.87161 190.77 5.10575 183.066 4.33989C180.228 4.0846 177.187 3.82932 174.349 3.57403C172.524 3.57403 170.497 3.31874 168.673 3.31874C166.848 3.31874 164.821 3.31874 162.996 3.57403C160.158 3.82932 157.117 4.0846 154.279 4.33989C146.778 4.85046 139.074 5.61633 131.573 6.63748C124.275 7.40334 116.976 8.42449 109.881 9.70092C109.881 10.9774 109.678 11.9985 109.678 13.2749C109.475 15.5725 109.475 17.8701 109.272 19.9124C109.272 22.21 109.475 24.5076 109.678 26.5499C109.678 27.571 109.881 28.8475 109.881 30.1239C117.179 31.4003 124.275 32.1662 131.573 33.1873C139.074 33.9532 146.575 34.7191 154.279 35.4849C157.117 35.7402 160.158 35.9955 162.996 36.2508C164.821 36.2508 166.848 36.5061 168.673 36.5061C170.497 36.5061 172.524 36.5061 174.349 36.2508C177.187 35.9955 180.228 35.7402 183.066 35.4849C190.568 34.9744 198.271 34.2085 205.772 33.1873C213.071 32.4215 220.369 31.4003 227.465 30.1239C227.465 28.8475 227.667 27.8263 227.667 26.5499C227.87 24.2523 227.87 21.9547 228.073 19.9124C228.073 17.6148 227.87 15.3172 227.667 13.2749C227.465 11.9985 227.465 10.9774 227.465 9.70092Z" fill="url(#paint13_linear_0_1)"/>
<path fill-rule="evenodd" clip-rule="evenodd" d="M109.272 19.9124C109.272 17.6148 109.475 15.3173 109.678 13.275C109.678 12.2538 109.881 10.9774 109.881 9.70094L107.245 6.3822C107.042 8.93507 106.434 19.1466 106.434 19.9124H109.272Z" fill="url(#paint14_linear_0_1)"/>
<path fill-rule="evenodd" clip-rule="evenodd" d="M109.881 9.70091C117.179 8.42448 124.275 7.65862 131.573 6.63747C139.074 5.87161 146.575 5.10574 154.279 4.33988C157.117 4.08459 160.158 3.82931 162.996 3.57402C164.821 3.57402 166.848 3.31873 168.673 3.31873V0C160.563 0 126.91 3.06345 107.245 6.63747L109.881 9.70091Z" fill="url(#paint15_linear_0_1)"/>
<path fill-rule="evenodd" clip-rule="evenodd" d="M168.672 0V3.57402C170.497 3.57402 172.524 3.57402 174.349 3.82931C177.187 4.0846 180.228 4.33988 183.066 4.59517C190.567 5.10574 198.271 5.8716 205.772 6.89275C213.07 7.65862 220.369 8.67976 227.464 9.9562L230.1 6.63747C210.435 3.06345 176.579 0 168.672 0Z" fill="url(#paint16_linear_0_1)"/>
<path fill-rule="evenodd" clip-rule="evenodd" d="M227.667 13.2749C227.87 15.5725 227.87 17.8701 228.073 19.9124H230.911C230.911 19.1465 230.505 8.93504 230.1 6.38217L227.464 9.70091C227.464 10.9773 227.464 11.9985 227.667 13.2749Z" fill="url(#paint17_linear_0_1)"/>
<path fill-rule="evenodd" clip-rule="evenodd" d="M230.911 19.9125H228.073C228.073 22.2101 227.87 24.5076 227.667 26.5499C227.667 27.5711 227.464 28.8475 227.464 30.124L230.1 33.4427C230.303 30.8898 230.911 20.6783 230.911 19.9125Z" fill="url(#paint18_linear_0_1)"/>
<path fill-rule="evenodd" clip-rule="evenodd" d="M227.464 30.1239C220.166 31.4003 213.07 32.1662 205.772 33.1873C198.271 33.9532 190.77 34.7191 183.066 35.4849C180.228 35.7402 177.187 35.9955 174.349 36.2508C172.524 36.2508 170.497 36.5061 168.672 36.5061V40.0801C176.782 40.0801 210.435 37.0167 230.1 33.4426L227.464 30.1239Z" fill="url(#paint19_linear_0_1)"/>
<path fill-rule="evenodd" clip-rule="evenodd" d="M168.673 40.0801V36.5061C166.848 36.5061 164.821 36.5061 162.996 36.2508C160.158 35.9955 157.117 35.7402 154.279 35.4849C146.778 34.9744 139.074 34.2085 131.573 33.1873C124.275 32.4215 116.976 31.4003 109.881 30.1239L107.245 33.4426C126.91 37.0167 160.563 40.0801 168.673 40.0801Z" fill="url(#paint20_linear_0_1)"/>
<path fill-rule="evenodd" clip-rule="evenodd" d="M109.678 26.8052C109.475 24.5076 109.475 22.21 109.272 20.1677H106.434C106.434 20.9336 106.84 31.1451 107.245 33.6979L109.881 30.3792C109.881 29.1028 109.678 27.8263 109.678 26.8052Z" fill="url(#paint21_linear_0_1)"/>
<path fill-rule="evenodd" clip-rule="evenodd" d="M109.272 19.9124C109.272 22.21 109.475 24.5076 109.678 26.5499C109.678 27.571 109.881 28.8474 109.881 30.1239L111.3 28.5922C111.3 27.8263 111.3 27.3157 111.3 26.5499C111.097 24.2523 111.097 22.21 110.894 19.9124C110.894 17.6148 111.097 15.5725 111.3 13.2749C111.3 12.5091 111.3 11.9985 111.3 11.2326L109.881 9.7009C109.881 10.9773 109.678 11.9985 109.678 13.2749C109.475 15.5725 109.475 17.8701 109.272 19.9124Z" fill="url(#paint22_linear_0_1)"/>
<path fill-rule="evenodd" clip-rule="evenodd" d="M111.299 11.4879C118.192 10.4668 124.882 9.44564 131.775 8.67978C139.276 7.91392 146.777 7.14806 154.481 6.38219C157.319 6.12691 160.36 5.87162 163.199 5.61633C165.023 5.61633 166.848 5.36105 168.672 5.36105V3.57404C166.848 3.57404 164.82 3.57404 162.996 3.82932C160.158 4.08461 157.117 4.3399 154.278 4.59518C146.777 5.10576 139.074 5.87162 131.573 6.89277C124.274 7.65863 116.976 8.67978 109.88 9.95622L111.299 11.4879Z" fill="url(#paint23_linear_0_1)"/>
<path fill-rule="evenodd" clip-rule="evenodd" d="M131.775 31.4004C124.882 30.6345 118.192 29.6134 111.299 28.5922L109.88 30.1239C117.179 31.4004 124.274 32.1662 131.573 33.1874C139.074 33.9533 146.575 34.7191 154.278 35.485C157.117 35.7403 160.158 35.9956 162.996 36.2508C164.82 36.2508 166.848 36.5061 168.672 36.5061V34.7191C166.848 34.7191 165.023 34.7191 163.199 34.4638C160.36 34.2085 157.319 33.9533 154.481 33.698C146.777 33.1874 139.276 32.4215 131.775 31.4004Z" fill="url(#paint24_linear_0_1)"/>
<path fill-rule="evenodd" clip-rule="evenodd" d="M168.672 34.4638V36.2508C170.497 36.2508 172.524 36.2508 174.349 35.9956C177.187 35.7403 180.228 35.485 183.066 35.2297C190.567 34.7191 198.271 33.9533 205.772 32.9321C213.07 32.1662 220.369 31.1451 227.464 29.8687L226.045 28.5922C219.152 29.6134 212.462 30.6345 205.569 31.4004C198.068 32.1662 190.567 32.9321 182.864 33.698C180.025 33.9533 176.984 34.2085 174.146 34.4638C172.322 34.4638 170.497 34.4638 168.672 34.4638Z" fill="url(#paint25_linear_0_1)"/>
<path fill-rule="evenodd" clip-rule="evenodd" d="M183.066 6.38219C190.567 6.89276 198.068 7.65862 205.772 8.67977C212.665 9.44563 219.355 10.4668 226.248 11.4879L227.667 9.95621C220.166 8.42449 212.868 7.65862 205.772 6.63747C198.271 5.87161 190.77 5.10575 183.066 4.33989C180.228 4.0846 177.187 3.82932 174.349 3.57403C172.524 3.57403 170.497 3.31874 168.672 3.31874V5.36104C170.497 5.36104 172.322 5.36104 174.146 5.61633C177.187 5.87161 180.025 6.1269 183.066 6.38219Z" fill="url(#paint26_linear_0_1)"/>
<path fill-rule="evenodd" clip-rule="evenodd" d="M226.451 19.9124C226.451 22.21 226.248 24.2523 226.045 26.5499C226.045 27.3157 226.045 27.8263 226.045 28.5922L227.465 30.1239C227.465 28.8474 227.667 27.8263 227.667 26.5499C227.87 24.2523 227.87 21.9547 228.073 19.9124C228.073 17.6148 227.87 15.3172 227.667 13.2749C227.667 12.2538 227.465 10.9773 227.465 9.7009L226.045 11.4879C226.045 12.2538 226.045 12.7643 226.045 13.5302C226.248 15.5725 226.451 17.8701 226.451 19.9124Z" fill="url(#paint27_linear_0_1)"/>
<path opacity="0.5" fill-rule="evenodd" clip-rule="evenodd" d="M168.064 2.5529C151.237 3.57404 132.586 5.61634 117.381 8.67979C122.044 7.91393 126.707 7.40335 131.573 6.63749C139.074 5.87163 146.575 5.10577 154.278 4.33991C157.117 4.08462 160.158 3.82933 162.996 3.57404C164.82 3.57404 166.848 3.31876 168.672 3.31876C170.497 3.31876 172.524 3.31876 174.349 3.57404C177.187 3.82933 180.228 4.08462 183.066 4.33991C190.567 4.85048 198.271 5.61634 205.772 6.63749C210.435 7.40335 215.3 7.91393 219.963 8.67979C204.758 5.61634 186.107 3.57404 169.28 2.5529L168.672 0.25531L168.064 2.5529Z" fill="white"/>
<path opacity="0.75" fill-rule="evenodd" clip-rule="evenodd" d="M128.329 32.9321C141.709 34.9744 154.887 36.7614 168.47 37.5273C182.053 36.7614 195.433 34.9744 208.611 32.9321C207.597 32.9321 206.583 33.1874 205.367 33.1874C197.866 33.9532 190.365 34.7191 182.661 35.485C179.823 35.7403 176.782 35.9955 173.944 36.2508C172.119 36.2508 170.092 36.5061 168.267 36.5061C166.443 36.5061 164.415 36.5061 162.591 36.2508C159.752 35.9955 156.711 35.7403 153.873 35.485C146.372 34.9744 138.668 34.2085 131.167 33.1874C130.559 33.1874 129.545 32.9321 128.329 32.9321Z" fill="white"/>
<path fill-rule="evenodd" clip-rule="evenodd" d="M131.775 31.4004C139.276 32.1662 146.777 32.9321 154.481 33.698C157.319 33.9532 160.36 34.2085 163.199 34.4638C165.023 34.4638 166.848 34.7191 168.672 34.7191C170.497 34.7191 172.322 34.7191 174.146 34.4638C176.984 34.2085 180.025 33.9532 182.864 33.698C190.365 33.1874 197.866 32.4215 205.569 31.4004C212.462 30.6345 219.152 29.6134 226.045 28.5922C226.045 27.8264 226.045 27.3158 226.045 26.5499C226.248 24.2523 226.248 22.21 226.451 19.9124C226.451 17.6149 226.248 15.5726 226.045 13.275C226.045 12.5091 226.045 11.9985 226.045 11.2327C219.152 10.2115 212.462 9.19038 205.569 8.42452C198.068 7.65866 190.567 6.8928 182.864 6.12694C180.025 5.87165 176.984 5.61636 174.146 5.36108C172.322 5.36108 170.497 5.10579 168.672 5.10579C166.848 5.10579 165.023 5.10579 163.199 5.36108C160.36 5.61636 157.319 5.87165 154.481 6.12694C146.98 6.63751 139.479 7.40337 131.775 8.42452C124.883 9.19038 118.192 10.2115 111.3 11.2327C111.3 11.9985 111.3 12.5091 111.097 13.275C110.894 15.5726 110.894 17.6149 110.691 19.9124C110.691 22.21 110.894 24.2523 111.097 26.5499C111.097 27.3158 111.097 27.8264 111.3 28.5922C117.99 29.8687 124.883 30.6345 131.775 31.4004Z" fill="url(#paint28_linear_0_1)"/>
<path fill-rule="evenodd" clip-rule="evenodd" d="M225.031 19.9124C225.031 17.6148 224.829 15.3173 224.626 13.0197C218.139 11.9985 211.854 11.2327 205.367 10.4668C197.866 9.70094 190.364 8.93508 182.863 8.16922C180.025 7.91393 176.984 7.65865 174.146 7.40336C172.321 7.40336 170.497 7.14807 168.672 7.14807C166.848 7.14807 165.023 7.14807 163.199 7.40336C160.36 7.65865 157.319 7.91393 154.481 8.16922C146.98 8.67979 139.276 9.44566 131.775 10.4668C125.288 11.2327 119.003 11.9985 112.516 13.0197C112.313 15.3173 112.313 17.6148 112.11 19.9124C112.11 22.21 112.313 24.5076 112.516 26.8052C119.003 27.8263 125.288 28.5922 131.775 29.3581C139.276 30.1239 146.777 30.8898 154.278 31.6556C157.117 31.9109 160.158 32.1662 162.996 32.4215C164.82 32.4215 166.645 32.6768 168.47 32.6768C170.294 32.6768 172.119 32.6768 173.943 32.4215C176.782 32.1662 179.822 31.9109 182.661 31.6556C190.162 31.1451 197.663 30.3792 205.164 29.3581C211.651 28.5922 217.936 27.8263 224.423 26.8052C224.829 24.7629 225.031 22.4653 225.031 19.9124ZM224.018 13.7855C217.733 12.7644 211.651 11.9985 205.367 11.2327C197.866 10.4668 190.364 9.70094 182.863 8.93508C180.025 8.6798 176.984 8.42451 174.146 8.16922C172.321 8.16922 170.497 7.91393 168.672 7.91393C166.848 7.91393 165.023 7.91393 163.199 8.16922C160.36 8.42451 157.319 8.6798 154.481 8.93508C146.98 9.70094 139.479 10.4668 131.978 11.2327C125.693 11.9985 119.611 12.7644 113.327 13.7855C113.124 15.8278 113.124 17.8701 113.124 19.9124C113.124 21.9547 113.327 23.997 113.327 26.0393C119.611 27.0605 125.693 27.8263 131.978 28.5922C139.479 29.3581 146.98 30.1239 154.481 30.8898C157.319 31.1451 160.36 31.4004 163.199 31.6556C165.023 31.6556 166.848 31.9109 168.672 31.9109C170.497 31.9109 172.321 31.9109 174.146 31.6556C176.984 31.4004 180.025 31.1451 182.863 30.8898C190.364 30.3792 197.866 29.6133 205.367 28.5922C211.651 27.8263 217.733 27.0605 224.018 26.0393C224.221 23.997 224.221 21.9547 224.221 19.9124C224.221 17.8701 224.221 15.8278 224.018 13.7855Z" fill="#4C0C0C"/>
<path fill-rule="evenodd" clip-rule="evenodd" d="M220.166 11.2326C215.098 10.4668 209.827 9.70091 204.759 9.19034C197.46 8.16919 189.959 7.40333 182.661 6.63747C179.823 6.38218 176.984 6.12689 174.146 5.8716C172.322 5.8716 170.497 5.61632 168.672 5.61632C166.848 5.61632 165.023 5.61632 163.199 5.8716C160.36 6.12689 157.522 6.38218 154.684 6.63747C147.386 7.40333 139.885 8.16919 132.586 9.19034C127.315 9.9562 122.247 10.4668 116.976 11.4879C120.422 10.9773 123.666 10.7221 127.113 10.4668C135.627 9.44563 144.142 8.67976 152.454 8.16919C155.698 7.9139 158.941 7.65862 162.388 7.40333C164.415 7.40333 166.645 7.14804 168.672 7.14804C170.7 7.14804 172.93 7.14804 174.957 7.40333C178.201 7.40333 181.444 7.65862 184.688 7.9139C193.203 8.67976 201.718 9.44563 210.03 10.2115C213.476 10.4668 216.922 10.9773 220.166 11.2326Z" fill="url(#paint29_radial_0_1)"/>
<path fill-rule="evenodd" clip-rule="evenodd" d="M163.199 31.6557C165.023 31.6557 166.848 31.911 168.672 31.911C170.497 31.911 172.321 31.911 174.146 31.6557C176.984 31.4004 180.025 31.1451 182.863 30.8898C190.364 30.3793 197.866 29.6134 205.367 28.5923C211.651 27.8264 217.733 27.0605 224.018 26.0394C224.018 25.7841 224.018 25.5288 224.018 25.2735C224.221 23.4865 224.221 21.6995 224.221 19.9125C224.221 18.1255 224.018 16.3385 224.018 14.5515C224.018 14.2962 224.018 14.0409 224.018 13.7856C217.733 12.7644 211.651 11.9986 205.367 11.2327C197.866 10.4669 190.364 9.701 182.863 8.93514C180.025 8.67985 176.984 8.42456 174.146 8.16927C172.321 8.16927 170.497 7.91399 168.672 7.91399C166.848 7.91399 165.023 7.91399 163.199 8.16927C160.36 8.42456 157.319 8.67985 154.481 8.93514C146.98 9.701 139.479 10.4669 131.978 11.2327C125.693 11.9986 119.611 12.7644 113.327 13.7856C113.327 14.0409 113.327 14.2962 113.327 14.5515C113.124 16.3385 113.124 18.1255 113.124 19.9125C113.124 21.6995 113.327 23.4865 113.327 25.2735C113.327 25.5288 113.327 25.7841 113.327 26.0394C119.611 27.0605 125.693 27.8264 131.978 28.5923C139.479 29.3581 146.98 30.124 154.481 30.8898C157.319 31.1451 160.36 31.4004 163.199 31.6557Z" fill="url(#paint30_linear_0_1)"/>
<path fill-rule="evenodd" clip-rule="evenodd" d="M168.672 8.16925C170.497 8.16925 172.322 8.16925 174.146 8.42454C176.984 8.67982 180.025 8.93511 182.864 9.1904C190.365 9.70097 197.866 10.4668 205.367 11.488C211.651 12.2538 217.733 13.0197 224.018 14.0409L224.423 13.5303C218.139 12.5091 211.854 11.7433 205.569 10.9774C198.068 10.2115 190.567 9.44569 183.066 8.67983C180.228 8.42454 177.187 8.16925 174.349 7.91396C172.524 7.91396 170.7 7.65868 168.875 7.65868C167.051 7.65868 165.226 7.65868 163.401 7.91396C160.563 8.16925 157.522 8.42454 154.684 8.67983C146.98 9.1904 139.276 9.95626 131.775 10.7221C125.491 11.488 119.206 12.2538 112.921 13.275L113.327 13.7856C119.612 12.7644 125.693 11.9986 131.978 11.2327C139.479 10.4668 146.98 9.70097 154.481 8.93511C157.319 8.67983 160.36 8.42454 163.199 8.16925C165.023 8.16925 166.848 8.16925 168.672 8.16925Z" fill="#EF4C20"/>
<path fill-rule="evenodd" clip-rule="evenodd" d="M168.672 32.4215C166.847 32.4215 165.023 32.4215 163.198 32.1662C160.36 31.9109 157.319 31.6557 154.481 31.4004C146.98 30.8898 139.479 30.1239 131.978 29.1028C125.693 28.3369 119.611 27.5711 113.327 26.5499C113.327 26.2946 113.327 26.2946 113.327 26.0393L112.516 27.0605C119.003 28.0816 125.288 28.8475 131.775 29.6134C139.276 30.3792 146.777 31.1451 154.278 31.9109C157.116 32.1662 160.157 32.4215 162.996 32.6768C164.82 32.6768 166.645 32.9321 168.469 32.9321C170.294 32.9321 172.118 32.9321 173.943 32.6768C176.781 32.4215 179.822 32.1662 182.66 31.9109C190.162 31.4004 197.663 30.6345 205.164 29.6134C211.651 28.8475 217.936 28.0816 224.423 27.0605L224.018 26.5499H223.612C217.327 27.5711 211.246 28.3369 204.961 29.1028C197.46 29.8686 189.959 30.6345 182.458 31.4004C179.62 31.6557 176.579 31.9109 173.74 32.1662C172.321 32.1662 170.497 32.4215 168.672 32.4215Z" fill="#CC3300"/>
<path d="M148.369 15.6561C149.841 15.6561 150.913 15.9761 151.585 16.6161C152.268 17.2454 152.609 18.1148 152.609 19.2241C152.609 19.7254 152.535 20.2054 152.385 20.6641C152.236 21.1121 151.985 21.5174 151.633 21.8801C151.292 22.2321 150.839 22.5094 150.273 22.7121C149.708 22.9148 149.009 23.0161 148.177 23.0161H147.137V27.0801H144.721V15.6561H148.369ZM148.241 17.6401H147.137V21.0321H147.937C148.396 21.0321 148.791 20.9734 149.121 20.8561C149.452 20.7388 149.708 20.5521 149.889 20.2961C150.071 20.0401 150.161 19.7094 150.161 19.3041C150.161 18.7388 150.007 18.3228 149.697 18.0561C149.388 17.7788 148.903 17.6401 148.241 17.6401ZM156.96 17.4001C156.96 17.8268 156.944 18.2374 156.912 18.6321C156.891 19.0268 156.869 19.3041 156.848 19.4641H156.976C157.168 19.1654 157.392 18.9254 157.648 18.7441C157.904 18.5521 158.187 18.4134 158.496 18.3281C158.816 18.2321 159.152 18.1841 159.504 18.1841C160.133 18.1841 160.683 18.2961 161.152 18.5201C161.621 18.7441 161.984 19.0908 162.24 19.5601C162.507 20.0294 162.64 20.6374 162.64 21.3841V27.0801H160.256V21.9761C160.256 21.3468 160.139 20.8774 159.904 20.5681C159.68 20.2481 159.328 20.0881 158.848 20.0881C158.368 20.0881 157.989 20.2001 157.712 20.4241C157.445 20.6481 157.253 20.9734 157.136 21.4001C157.019 21.8268 156.96 22.3494 156.96 22.9681V27.0801H154.576V14.9201H156.96V17.4001ZM173.028 22.6961C173.028 23.4214 172.926 24.0668 172.724 24.6321C172.532 25.1974 172.249 25.6774 171.876 26.0721C171.513 26.4561 171.07 26.7494 170.548 26.9521C170.025 27.1441 169.433 27.2401 168.772 27.2401C168.164 27.2401 167.598 27.1441 167.076 26.9521C166.564 26.7494 166.121 26.4561 165.748 26.0721C165.374 25.6774 165.081 25.1974 164.868 24.6321C164.665 24.0668 164.564 23.4214 164.564 22.6961C164.564 21.7254 164.734 20.9094 165.076 20.2481C165.417 19.5761 165.908 19.0641 166.548 18.7121C167.188 18.3601 167.945 18.1841 168.82 18.1841C169.641 18.1841 170.366 18.3601 170.996 18.7121C171.625 19.0641 172.121 19.5761 172.484 20.2481C172.846 20.9094 173.028 21.7254 173.028 22.6961ZM166.996 22.6961C166.996 23.2721 167.054 23.7574 167.172 24.1521C167.3 24.5361 167.497 24.8294 167.764 25.0321C168.03 25.2241 168.377 25.3201 168.804 25.3201C169.23 25.3201 169.572 25.2241 169.828 25.0321C170.094 24.8294 170.286 24.5361 170.404 24.1521C170.532 23.7574 170.596 23.2721 170.596 22.6961C170.596 22.1201 170.532 21.6401 170.404 21.2561C170.286 20.8721 170.094 20.5841 169.828 20.3921C169.561 20.2001 169.214 20.1041 168.788 20.1041C168.158 20.1041 167.7 20.3228 167.412 20.7601C167.134 21.1868 166.996 21.8321 166.996 22.6961ZM179.958 18.1841C180.897 18.1841 181.649 18.4401 182.214 18.9521C182.779 19.4534 183.062 20.2641 183.062 21.3841V27.0801H180.678V21.9761C180.678 21.3468 180.566 20.8774 180.342 20.5681C180.118 20.2481 179.761 20.0881 179.27 20.0881C178.545 20.0881 178.049 20.3388 177.782 20.8401C177.515 21.3308 177.382 22.0401 177.382 22.9681V27.0801H174.998V18.3441H176.822L177.142 19.4641H177.27C177.462 19.1654 177.697 18.9254 177.974 18.7441C178.251 18.5521 178.561 18.4134 178.902 18.3281C179.243 18.2321 179.595 18.1841 179.958 18.1841ZM189.114 18.1841C189.924 18.1841 190.618 18.3388 191.194 18.6481C191.78 18.9574 192.234 19.4054 192.554 19.9921C192.874 20.5788 193.034 21.2988 193.034 22.1521V23.3041H187.402C187.423 23.9761 187.62 24.5041 187.994 24.8881C188.378 25.2721 188.906 25.4641 189.578 25.4641C190.143 25.4641 190.655 25.4108 191.114 25.3041C191.572 25.1868 192.047 25.0108 192.538 24.7761V26.6161C192.111 26.8294 191.658 26.9841 191.178 27.0801C190.708 27.1868 190.138 27.2401 189.466 27.2401C188.591 27.2401 187.818 27.0801 187.146 26.7601C186.474 26.4294 185.946 25.9334 185.562 25.2721C185.178 24.6108 184.986 23.7788 184.986 22.7761C184.986 21.7521 185.156 20.9041 185.498 20.2321C185.85 19.5494 186.335 19.0374 186.954 18.6961C187.572 18.3548 188.292 18.1841 189.114 18.1841ZM189.13 19.8801C188.671 19.8801 188.287 20.0294 187.978 20.3281C187.679 20.6268 187.503 21.0908 187.45 21.7201H190.794C190.794 21.3681 190.73 21.0534 190.602 20.7761C190.484 20.4988 190.303 20.2801 190.058 20.1201C189.812 19.9601 189.503 19.8801 189.13 19.8801Z" fill="#4A2121"/>
<path d="M148.369 15.6561C149.841 15.6561 150.913 15.9761 151.585 16.6161C152.268 17.2454 152.609 18.1148 152.609 19.2241C152.609 19.7254 152.535 20.2054 152.385 20.6641C152.236 21.1121 151.985 21.5174 151.633 21.8801C151.292 22.2321 150.839 22.5094 150.273 22.7121C149.708 22.9148 149.009 23.0161 148.177 23.0161H147.137V27.0801H144.721V15.6561H148.369ZM148.241 17.6401H147.137V21.0321H147.937C148.396 21.0321 148.791 20.9734 149.121 20.8561C149.452 20.7388 149.708 20.5521 149.889 20.2961C150.071 20.0401 150.161 19.7094 150.161 19.3041C150.161 18.7388 150.007 18.3228 149.697 18.0561C149.388 17.7788 148.903 17.6401 148.241 17.6401ZM156.96 17.4001C156.96 17.8268 156.944 18.2374 156.912 18.6321C156.891 19.0268 156.869 19.3041 156.848 19.4641H156.976C157.168 19.1654 157.392 18.9254 157.648 18.7441C157.904 18.5521 158.187 18.4134 158.496 18.3281C158.816 18.2321 159.152 18.1841 159.504 18.1841C160.133 18.1841 160.683 18.2961 161.152 18.5201C161.621 18.7441 161.984 19.0908 162.24 19.5601C162.507 20.0294 162.64 20.6374 162.64 21.3841V27.0801H160.256V21.9761C160.256 21.3468 160.139 20.8774 159.904 20.5681C159.68 20.2481 159.328 20.0881 158.848 20.0881C158.368 20.0881 157.989 20.2001 157.712 20.4241C157.445 20.6481 157.253 20.9734 157.136 21.4001C157.019 21.8268 156.96 22.3494 156.96 22.9681V27.0801H154.576V14.9201H156.96V17.4001ZM173.028 22.6961C173.028 23.4214 172.926 24.0668 172.724 24.6321C172.532 25.1974 172.249 25.6774 171.876 26.0721C171.513 26.4561 171.07 26.7494 170.548 26.9521C170.025 27.1441 169.433 27.2401 168.772 27.2401C168.164 27.2401 167.598 27.1441 167.076 26.9521C166.564 26.7494 166.121 26.4561 165.748 26.0721C165.374 25.6774 165.081 25.1974 164.868 24.6321C164.665 24.0668 164.564 23.4214 164.564 22.6961C164.564 21.7254 164.734 20.9094 165.076 20.2481C165.417 19.5761 165.908 19.0641 166.548 18.7121C167.188 18.3601 167.945 18.1841 168.82 18.1841C169.641 18.1841 170.366 18.3601 170.996 18.7121C171.625 19.0641 172.121 19.5761 172.484 20.2481C172.846 20.9094 173.028 21.7254 173.028 22.6961ZM166.996 22.6961C166.996 23.2721 167.054 23.7574 167.172 24.1521C167.3 24.5361 167.497 24.8294 167.764 25.0321C168.03 25.2241 168.377 25.3201 168.804 25.3201C169.23 25.3201 169.572 25.2241 169.828 25.0321C170.094 24.8294 170.286 24.5361 170.404 24.1521C170.532 23.7574 170.596 23.2721 170.596 22.6961C170.596 22.1201 170.532 21.6401 170.404 21.2561C170.286 20.8721 170.094 20.5841 169.828 20.3921C169.561 20.2001 169.214 20.1041 168.788 20.1041C168.158 20.1041 167.7 20.3228 167.412 20.7601C167.134 21.1868 166.996 21.8321 166.996 22.6961ZM179.958 18.1841C180.897 18.1841 181.649 18.4401 182.214 18.9521C182.779 19.4534 183.062 20.2641 183.062 21.3841V27.0801H180.678V21.9761C180.678 21.3468 180.566 20.8774 180.342 20.5681C180.118 20.2481 179.761 20.0881 179.27 20.0881C178.545 20.0881 178.049 20.3388 177.782 20.8401C177.515 21.3308 177.382 22.0401 177.382 22.9681V27.0801H174.998V18.3441H176.822L177.142 19.4641H177.27C177.462 19.1654 177.697 18.9254 177.974 18.7441C178.251 18.5521 178.561 18.4134 178.902 18.3281C179.243 18.2321 179.595 18.1841 179.958 18.1841ZM189.114 18.1841C189.924 18.1841 190.618 18.3388 191.194 18.6481C191.78 18.9574 192.234 19.4054 192.554 19.9921C192.874 20.5788 193.034 21.2988 193.034 22.1521V23.3041H187.402C187.423 23.9761 187.62 24.5041 187.994 24.8881C188.378 25.2721 188.906 25.4641 189.578 25.4641C190.143 25.4641 190.655 25.4108 191.114 25.3041C191.572 25.1868 192.047 25.0108 192.538 24.7761V26.6161C192.111 26.8294 191.658 26.9841 191.178 27.0801C190.708 27.1868 190.138 27.2401 189.466 27.2401C188.591 27.2401 187.818 27.0801 187.146 26.7601C186.474 26.4294 185.946 25.9334 185.562 25.2721C185.178 24.6108 184.986 23.7788 184.986 22.7761C184.986 21.7521 185.156 20.9041 185.498 20.2321C185.85 19.5494 186.335 19.0374 186.954 18.6961C187.572 18.3548 188.292 18.1841 189.114 18.1841ZM189.13 19.8801C188.671 19.8801 188.287 20.0294 187.978 20.3281C187.679 20.6268 187.503 21.0908 187.45 21.7201H190.794C190.794 21.3681 190.73 21.0534 190.602 20.7761C190.484 20.4988 190.303 20.2801 190.058 20.1201C189.812 19.9601 189.503 19.8801 189.13 19.8801Z" fill="url(#paint31_linear_0_1)"/>
<defs>
<radialGradient id="paint0_radial_0_1" cx="0" cy="0" r="1" gradientUnits="userSpaceOnUse" gradientTransform="translate(169.674 110.386) scale(182.552 182.552)">
<stop stop-color="#4F2828"/>
<stop offset="0.8104" stop-color="#472323"/>
<stop offset="1" stop-color="#3B1919"/>
</radialGradient>
<linearGradient id="paint1_linear_0_1" x1="4.14202" y1="110.514" x2="4.14202" y2="17.8093" gradientUnits="userSpaceOnUse">
<stop stop-color="#FFD97A"/>
<stop offset="1" stop-color="#EB9E21"/>
</linearGradient>
<linearGradient id="paint2_linear_0_1" x1="4.14211" y1="202.957" x2="4.14211" y2="110.509" gradientUnits="userSpaceOnUse">
<stop stop-color="#FFD97A"/>
<stop offset="1" stop-color="#EB9E21"/>
</linearGradient>
<linearGradient id="paint3_linear_0_1" x1="5.27276" y1="204.094" x2="169.675" y2="204.094" gradientUnits="userSpaceOnUse">
<stop stop-color="#A36808"/>
<stop offset="1" stop-color="#BF8800"/>
</linearGradient>
<linearGradient id="paint4_linear_0_1" x1="169.675" y1="204.094" x2="334.075" y2="204.094" gradientUnits="userSpaceOnUse">
<stop stop-color="#A87219"/>
<stop offset="1" stop-color="#6B4200"/>
</linearGradient>
<linearGradient id="paint5_linear_0_1" x1="335.206" y1="110.514" x2="335.206" y2="17.8093" gradientUnits="userSpaceOnUse">
<stop stop-color="#E8B048"/>
<stop offset="1" stop-color="#8F6B09"/>
</linearGradient>
<linearGradient id="paint6_linear_0_1" x1="335.206" y1="202.962" x2="335.206" y2="110.514" gradientUnits="userSpaceOnUse">
<stop stop-color="#E8B048"/>
<stop offset="1" stop-color="#8F6B09"/>
</linearGradient>
<linearGradient id="paint7_linear_0_1" x1="5.27268" y1="16.6784" x2="169.675" y2="16.6784" gradientUnits="userSpaceOnUse">
<stop stop-color="#F5D36C"/>
<stop offset="1" stop-color="#FFF5B0"/>
</linearGradient>
<linearGradient id="paint8_linear_0_1" x1="169.675" y1="16.6784" x2="334.075" y2="16.6784" gradientUnits="userSpaceOnUse">
<stop stop-color="#FFDD6E"/>
<stop offset="1" stop-color="#D69705"/>
</linearGradient>
<radialGradient id="paint9_radial_0_1" cx="0" cy="0" r="1" gradientUnits="userSpaceOnUse" gradientTransform="translate(169.674 21.8922) scale(114.328 114.328)">
<stop stop-color="#BF8800"/>
<stop offset="1" stop-color="#A36808"/>
</radialGradient>
<linearGradient id="paint10_linear_0_1" x1="9.35639" y1="200.24" x2="9.35639" y2="20.5312" gradientUnits="userSpaceOnUse">
<stop stop-color="#E8B048"/>
<stop offset="1" stop-color="#8F6B09"/>
</linearGradient>
<linearGradient id="paint11_linear_0_1" x1="329.992" y1="200.24" x2="329.992" y2="20.5316" gradientUnits="userSpaceOnUse">
<stop stop-color="#FFD97A"/>
<stop offset="1" stop-color="#EB9E21"/>
</linearGradient>
<radialGradient id="paint12_radial_0_1" cx="0" cy="0" r="1" gradientUnits="userSpaceOnUse" gradientTransform="translate(169.674 198.879) scale(114.328 114.328)">
<stop stop-color="#FFDD6E"/>
<stop offset="1" stop-color="#D69705"/>
</radialGradient>
<linearGradient id="paint13_linear_0_1" x1="168.65" y1="36.4134" x2="168.65" y2="3.58194" gradientUnits="userSpaceOnUse">
<stop stop-color="#DE9B00"/>
<stop offset="1" stop-color="#FFF5B0"/>
</linearGradient>
<linearGradient id="paint14_linear_0_1" x1="108.16" y1="19.9977" x2="108.16" y2="6.52772" gradientUnits="userSpaceOnUse">
<stop stop-color="#FFD97A"/>
<stop offset="1" stop-color="#EB9E21"/>
</linearGradient>
<linearGradient id="paint15_linear_0_1" x1="107.188" y1="4.83846" x2="168.65" y2="4.83846" gradientUnits="userSpaceOnUse">
<stop stop-color="#F5D36C"/>
<stop offset="1" stop-color="#FFF5B0"/>
</linearGradient>
<linearGradient id="paint16_linear_0_1" x1="168.65" y1="4.83846" x2="230.113" y2="4.83846" gradientUnits="userSpaceOnUse">
<stop stop-color="#FFDD6E"/>
<stop offset="1" stop-color="#D69705"/>
</linearGradient>
<linearGradient id="paint17_linear_0_1" x1="229.141" y1="19.9977" x2="229.141" y2="6.52769" gradientUnits="userSpaceOnUse">
<stop stop-color="#FFD97A"/>
<stop offset="1" stop-color="#EB9E21"/>
</linearGradient>
<linearGradient id="paint18_linear_0_1" x1="229.141" y1="33.4675" x2="229.141" y2="19.9977" gradientUnits="userSpaceOnUse">
<stop stop-color="#E8B048"/>
<stop offset="1" stop-color="#C27C0C"/>
</linearGradient>
<linearGradient id="paint19_linear_0_1" x1="168.65" y1="35.1569" x2="230.113" y2="35.1569" gradientUnits="userSpaceOnUse">
<stop stop-color="#A87219"/>
<stop offset="1" stop-color="#6B4200"/>
</linearGradient>
<linearGradient id="paint20_linear_0_1" x1="107.188" y1="35.1569" x2="168.65" y2="35.1569" gradientUnits="userSpaceOnUse">
<stop stop-color="#A36808"/>
<stop offset="1" stop-color="#BF8800"/>
</linearGradient>
<linearGradient id="paint21_linear_0_1" x1="108.16" y1="33.4674" x2="108.16" y2="19.9977" gradientUnits="userSpaceOnUse">
<stop stop-color="#E8B048"/>
<stop offset="1" stop-color="#C27C0C"/>
</linearGradient>
<linearGradient id="paint22_linear_0_1" x1="110.295" y1="30.2446" x2="110.295" y2="9.75042" gradientUnits="userSpaceOnUse">
<stop stop-color="#E8B048"/>
<stop offset="1" stop-color="#8F6B09"/>
</linearGradient>
<linearGradient id="paint23_linear_0_1" x1="109.86" y1="7.47329" x2="168.65" y2="7.47329" gradientUnits="userSpaceOnUse">
<stop stop-color="#6B4200"/>
<stop offset="1" stop-color="#A87219"/>
</linearGradient>
<linearGradient id="paint24_linear_0_1" x1="109.86" y1="32.5221" x2="168.65" y2="32.5221" gradientUnits="userSpaceOnUse">
<stop stop-color="#D69705"/>
<stop offset="1" stop-color="#FFDD6E"/>
</linearGradient>
<linearGradient id="paint25_linear_0_1" x1="168.65" y1="32.5221" x2="227.44" y2="32.5221" gradientUnits="userSpaceOnUse">
<stop stop-color="#FFF5B0"/>
<stop offset="1" stop-color="#F5D36C"/>
</linearGradient>
<linearGradient id="paint26_linear_0_1" x1="168.65" y1="7.47328" x2="227.44" y2="7.47328" gradientUnits="userSpaceOnUse">
<stop stop-color="#BF8800"/>
<stop offset="1" stop-color="#A36808"/>
</linearGradient>
<linearGradient id="paint27_linear_0_1" x1="227.006" y1="30.2446" x2="227.006" y2="9.75042" gradientUnits="userSpaceOnUse">
<stop stop-color="#E8B048"/>
<stop offset="1" stop-color="#8F6B09"/>
</linearGradient>
<linearGradient id="paint28_linear_0_1" x1="168.65" y1="34.5853" x2="168.65" y2="5.40958" gradientUnits="userSpaceOnUse">
<stop stop-color="#700000"/>
<stop offset="1" stop-color="#A60000"/>
</linearGradient>
<radialGradient id="paint29_radial_0_1" cx="0" cy="0" r="1" gradientUnits="userSpaceOnUse" gradientTransform="translate(168.65 8.50336) scale(56.0099 70.53)">
<stop stop-color="#FFA0A0"/>
<stop offset="1"/>
</radialGradient>
<linearGradient id="paint30_linear_0_1" x1="168.65" y1="31.8438" x2="168.65" y2="8.1514" gradientUnits="userSpaceOnUse">
<stop stop-color="#700000"/>
<stop offset="1" stop-color="#A60000"/>
</linearGradient>
<linearGradient id="paint31_linear_0_1" x1="168.075" y1="16.3074" x2="168.075" y2="27.0233" gradientUnits="userSpaceOnUse">
<stop stop-color="#FFFCEE"/>
<stop offset="1" stop-color="#FFEDA2"/>
</linearGradient>
</defs>
</svg>
