<svg width="340" height="209" viewBox="0 0 340 209" fill="none" xmlns="http://www.w3.org/2000/svg">
<path fill-rule="evenodd" clip-rule="evenodd" d="M7.8938 20.4261H331.175V200.186H7.8938V20.4261Z" fill="url(#paint0_radial_0_1)"/>
<path fill-rule="evenodd" clip-rule="evenodd" d="M7.89367 110.486V20.4261L5.02324 17.5556V102.592C5.02324 106.539 2.87042 109.05 0 110.127H7.89367V110.486Z" fill="url(#paint1_linear_0_1)"/>
<path fill-rule="evenodd" clip-rule="evenodd" d="M7.89375 110.486V200.186L5.38213 203.057V118.02C5.38213 114.074 3.22931 111.562 0.358887 110.486H7.89375Z" fill="url(#paint2_linear_0_1)"/>
<path fill-rule="evenodd" clip-rule="evenodd" d="M169.714 200.186H7.8937L5.38208 203.057H162.179C166.126 203.057 168.637 205.21 169.714 208.08V200.186Z" fill="url(#paint3_linear_0_1)"/>
<path fill-rule="evenodd" clip-rule="evenodd" d="M169.714 200.186H331.534L334.404 203.057H177.249C173.302 203.057 170.79 205.21 169.714 208.08V200.186Z" fill="url(#paint4_linear_0_1)"/>
<path fill-rule="evenodd" clip-rule="evenodd" d="M331.175 110.486V20.4261L334.045 17.5556V102.592C334.045 106.539 336.198 109.05 339.069 110.127H331.175V110.486Z" fill="url(#paint5_linear_0_1)"/>
<path fill-rule="evenodd" clip-rule="evenodd" d="M331.175 110.486V200.186L334.045 203.057V118.02C334.045 114.074 336.198 111.562 339.069 110.486H331.175Z" fill="url(#paint6_linear_0_1)"/>
<path fill-rule="evenodd" clip-rule="evenodd" d="M169.714 20.4261H7.89362L5.02319 17.5557H161.82C165.767 17.5557 168.279 15.4028 169.355 12.5324V20.4261H169.714Z" fill="url(#paint7_linear_0_1)"/>
<path fill-rule="evenodd" clip-rule="evenodd" d="M169.714 20.4261H331.534L334.404 17.5557H177.249C173.302 17.5557 170.79 15.4028 169.714 12.5324V20.4261Z" fill="url(#paint8_linear_0_1)"/>
<path fill-rule="evenodd" clip-rule="evenodd" d="M10.7642 23.2965H328.664L331.175 20.4261H7.8938L10.7642 23.2965Z" fill="url(#paint9_radial_0_1)"/>
<path fill-rule="evenodd" clip-rule="evenodd" d="M10.7642 197.675V23.2965L7.8938 20.4261V60.612V200.186L10.7642 197.675Z" fill="url(#paint10_linear_0_1)"/>
<path fill-rule="evenodd" clip-rule="evenodd" d="M328.663 23.2965V197.675L331.175 200.186V60.612V20.4261L328.663 23.2965Z" fill="url(#paint11_linear_0_1)"/>
<path fill-rule="evenodd" clip-rule="evenodd" d="M328.664 197.675H10.7642L7.8938 200.186H331.175L328.664 197.675Z" fill="url(#paint12_radial_0_1)"/>
<path fill-rule="evenodd" clip-rule="evenodd" d="M107.245 6.63747C126.91 3.06345 160.766 0 168.672 0C176.782 0 210.435 3.06345 230.1 6.63747C230.303 9.19034 230.911 19.4018 230.911 20.1677C230.911 20.9336 230.303 30.8898 230.1 33.4426C210.435 37.0166 176.579 40.0801 168.672 40.0801C160.563 40.0801 126.91 37.0166 107.245 33.4426C107.042 30.8898 106.434 20.6783 106.434 19.9124C106.434 19.1465 107.042 8.93505 107.245 6.63747Z" fill="#999999"/>
<path fill-rule="evenodd" clip-rule="evenodd" d="M227.465 9.70092C220.166 8.42449 212.868 7.65862 205.772 6.63748C198.271 5.87161 190.77 5.10575 183.066 4.33989C180.228 4.0846 177.187 3.82932 174.349 3.57403C172.524 3.57403 170.497 3.31874 168.673 3.31874C166.848 3.31874 164.821 3.31874 162.996 3.57403C160.158 3.82932 157.117 4.0846 154.279 4.33989C146.778 4.85046 139.074 5.61633 131.573 6.63748C124.275 7.40334 116.976 8.42449 109.881 9.70092C109.881 10.9774 109.678 11.9985 109.678 13.2749C109.475 15.5725 109.475 17.8701 109.272 19.9124C109.272 22.21 109.475 24.5076 109.678 26.5499C109.678 27.571 109.881 28.8475 109.881 30.1239C117.179 31.4003 124.275 32.1662 131.573 33.1873C139.074 33.9532 146.575 34.7191 154.279 35.4849C157.117 35.7402 160.158 35.9955 162.996 36.2508C164.821 36.2508 166.848 36.5061 168.673 36.5061C170.497 36.5061 172.524 36.5061 174.349 36.2508C177.187 35.9955 180.228 35.7402 183.066 35.4849C190.568 34.9744 198.271 34.2085 205.772 33.1873C213.071 32.4215 220.369 31.4003 227.465 30.1239C227.465 28.8475 227.667 27.8263 227.667 26.5499C227.87 24.2523 227.87 21.9547 228.073 19.9124C228.073 17.6148 227.87 15.3172 227.667 13.2749C227.465 11.9985 227.465 10.9774 227.465 9.70092Z" fill="url(#paint13_linear_0_1)"/>
<path fill-rule="evenodd" clip-rule="evenodd" d="M109.272 19.9124C109.272 17.6148 109.475 15.3173 109.678 13.275C109.678 12.2538 109.881 10.9774 109.881 9.70094L107.245 6.3822C107.042 8.93507 106.434 19.1466 106.434 19.9124H109.272Z" fill="url(#paint14_linear_0_1)"/>
<path fill-rule="evenodd" clip-rule="evenodd" d="M109.88 9.70091C117.179 8.42448 124.274 7.65862 131.573 6.63747C139.074 5.87161 146.575 5.10574 154.278 4.33988C157.117 4.08459 160.158 3.82931 162.996 3.57402C164.82 3.57402 166.848 3.31873 168.672 3.31873V0C160.563 0 126.91 3.06345 107.245 6.63747L109.88 9.70091Z" fill="url(#paint15_linear_0_1)"/>
<path fill-rule="evenodd" clip-rule="evenodd" d="M168.673 0V3.57402C170.497 3.57402 172.524 3.57402 174.349 3.82931C177.187 4.0846 180.228 4.33988 183.067 4.59517C190.568 5.10574 198.271 5.8716 205.772 6.89275C213.071 7.65862 220.369 8.67976 227.465 9.9562L230.1 6.63747C210.435 3.06345 176.579 0 168.673 0Z" fill="url(#paint16_linear_0_1)"/>
<path fill-rule="evenodd" clip-rule="evenodd" d="M227.667 13.2749C227.87 15.5725 227.87 17.8701 228.073 19.9124H230.911C230.911 19.1465 230.505 8.93504 230.1 6.38217L227.464 9.70091C227.464 10.9773 227.464 11.9985 227.667 13.2749Z" fill="url(#paint17_linear_0_1)"/>
<path fill-rule="evenodd" clip-rule="evenodd" d="M230.911 19.9125H228.073C228.073 22.2101 227.87 24.5076 227.667 26.5499C227.667 27.5711 227.464 28.8475 227.464 30.124L230.1 33.4427C230.303 30.8898 230.911 20.6783 230.911 19.9125Z" fill="url(#paint18_linear_0_1)"/>
<path fill-rule="evenodd" clip-rule="evenodd" d="M227.465 30.1239C220.166 31.4003 213.071 32.1662 205.772 33.1873C198.271 33.9532 190.77 34.7191 183.067 35.4849C180.228 35.7402 177.187 35.9955 174.349 36.2508C172.524 36.2508 170.497 36.5061 168.673 36.5061V40.0801C176.782 40.0801 210.435 37.0167 230.1 33.4426L227.465 30.1239Z" fill="url(#paint19_linear_0_1)"/>
<path fill-rule="evenodd" clip-rule="evenodd" d="M168.672 40.0801V36.5061C166.848 36.5061 164.82 36.5061 162.996 36.2508C160.158 35.9955 157.117 35.7402 154.278 35.4849C146.777 34.9744 139.074 34.2085 131.573 33.1873C124.274 32.4215 116.976 31.4003 109.88 30.1239L107.245 33.4426C126.91 37.0167 160.563 40.0801 168.672 40.0801Z" fill="url(#paint20_linear_0_1)"/>
<path fill-rule="evenodd" clip-rule="evenodd" d="M109.678 26.8052C109.475 24.5076 109.475 22.21 109.272 20.1677H106.434C106.434 20.9336 106.84 31.1451 107.245 33.6979L109.881 30.3792C109.881 29.1028 109.678 27.8263 109.678 26.8052Z" fill="url(#paint21_linear_0_1)"/>
<path fill-rule="evenodd" clip-rule="evenodd" d="M109.272 19.9124C109.272 22.21 109.475 24.5076 109.678 26.5499C109.678 27.571 109.881 28.8474 109.881 30.1239L111.3 28.5922C111.3 27.8263 111.3 27.3157 111.3 26.5499C111.097 24.2523 111.097 22.21 110.894 19.9124C110.894 17.6148 111.097 15.5725 111.3 13.2749C111.3 12.5091 111.3 11.9985 111.3 11.2326L109.881 9.7009C109.881 10.9773 109.678 11.9985 109.678 13.2749C109.475 15.5725 109.475 17.8701 109.272 19.9124Z" fill="url(#paint22_linear_0_1)"/>
<path fill-rule="evenodd" clip-rule="evenodd" d="M111.299 11.4879C118.192 10.4668 124.882 9.44564 131.775 8.67978C139.276 7.91392 146.777 7.14806 154.481 6.38219C157.319 6.12691 160.36 5.87162 163.199 5.61633C165.023 5.61633 166.848 5.36105 168.672 5.36105V3.57404C166.848 3.57404 164.82 3.57404 162.996 3.82932C160.158 4.08461 157.117 4.3399 154.278 4.59518C146.777 5.10576 139.074 5.87162 131.573 6.89277C124.274 7.65863 116.976 8.67978 109.88 9.95622L111.299 11.4879Z" fill="url(#paint23_linear_0_1)"/>
<path fill-rule="evenodd" clip-rule="evenodd" d="M131.775 31.4004C124.882 30.6345 118.192 29.6134 111.299 28.5922L109.88 30.1239C117.179 31.4004 124.274 32.1662 131.573 33.1874C139.074 33.9533 146.575 34.7191 154.278 35.485C157.117 35.7403 160.158 35.9956 162.996 36.2508C164.82 36.2508 166.848 36.5061 168.672 36.5061V34.7191C166.848 34.7191 165.023 34.7191 163.199 34.4638C160.36 34.2085 157.319 33.9533 154.481 33.698C146.777 33.1874 139.276 32.4215 131.775 31.4004Z" fill="url(#paint24_linear_0_1)"/>
<path fill-rule="evenodd" clip-rule="evenodd" d="M168.673 34.4638V36.2508C170.497 36.2508 172.524 36.2508 174.349 35.9956C177.187 35.7403 180.228 35.485 183.067 35.2297C190.568 34.7191 198.271 33.9533 205.772 32.9321C213.071 32.1662 220.369 31.1451 227.465 29.8687L226.045 28.5922C219.153 29.6134 212.462 30.6345 205.57 31.4004C198.069 32.1662 190.568 32.9321 182.864 33.698C180.026 33.9533 176.985 34.2085 174.146 34.4638C172.322 34.4638 170.497 34.4638 168.673 34.4638Z" fill="url(#paint25_linear_0_1)"/>
<path fill-rule="evenodd" clip-rule="evenodd" d="M183.067 6.38219C190.568 6.89276 198.069 7.65862 205.772 8.67977C212.665 9.44563 219.355 10.4668 226.248 11.4879L227.667 9.95621C220.166 8.42449 212.868 7.65862 205.772 6.63747C198.271 5.87161 190.77 5.10575 183.067 4.33989C180.228 4.0846 177.187 3.82932 174.349 3.57403C172.524 3.57403 170.497 3.31874 168.673 3.31874V5.36104C170.497 5.36104 172.322 5.36104 174.146 5.61633C177.187 5.87161 180.026 6.1269 183.067 6.38219Z" fill="url(#paint26_linear_0_1)"/>
<path fill-rule="evenodd" clip-rule="evenodd" d="M226.451 19.9124C226.451 22.21 226.248 24.2523 226.045 26.5499C226.045 27.3157 226.045 27.8263 226.045 28.5922L227.464 30.1239C227.464 28.8474 227.667 27.8263 227.667 26.5499C227.87 24.2523 227.87 21.9547 228.072 19.9124C228.072 17.6148 227.87 15.3172 227.667 13.2749C227.667 12.2538 227.464 10.9773 227.464 9.7009L226.045 11.4879C226.045 12.2538 226.045 12.7643 226.045 13.5302C226.248 15.5725 226.451 17.8701 226.451 19.9124Z" fill="url(#paint27_linear_0_1)"/>
<path opacity="0.5" fill-rule="evenodd" clip-rule="evenodd" d="M168.064 2.5529C151.238 3.57404 132.586 5.61634 117.382 8.67979C122.044 7.91393 126.707 7.40335 131.573 6.63749C139.074 5.87163 146.575 5.10577 154.279 4.33991C157.117 4.08462 160.158 3.82933 162.996 3.57404C164.821 3.57404 166.848 3.31876 168.672 3.31876C170.497 3.31876 172.524 3.31876 174.349 3.57404C177.187 3.82933 180.228 4.08462 183.066 4.33991C190.567 4.85048 198.271 5.61634 205.772 6.63749C210.435 7.40335 215.301 7.91393 219.963 8.67979C204.759 5.61634 186.107 3.57404 169.281 2.5529L168.672 0.25531L168.064 2.5529Z" fill="white"/>
<path opacity="0.75" fill-rule="evenodd" clip-rule="evenodd" d="M128.329 32.9321C141.709 34.9744 154.887 36.7614 168.47 37.5273C182.053 36.7614 195.433 34.9744 208.611 32.9321C207.597 32.9321 206.583 33.1874 205.367 33.1874C197.866 33.9532 190.365 34.7191 182.661 35.485C179.823 35.7403 176.782 35.9955 173.944 36.2508C172.119 36.2508 170.092 36.5061 168.267 36.5061C166.443 36.5061 164.415 36.5061 162.591 36.2508C159.752 35.9955 156.711 35.7403 153.873 35.485C146.372 34.9744 138.668 34.2085 131.167 33.1874C130.559 33.1874 129.545 32.9321 128.329 32.9321Z" fill="white"/>
<path fill-rule="evenodd" clip-rule="evenodd" d="M131.775 31.4004C139.276 32.1662 146.777 32.9321 154.481 33.698C157.319 33.9532 160.36 34.2085 163.199 34.4638C165.023 34.4638 166.848 34.7191 168.672 34.7191C170.497 34.7191 172.322 34.7191 174.146 34.4638C176.984 34.2085 180.025 33.9532 182.864 33.698C190.365 33.1874 197.866 32.4215 205.569 31.4004C212.462 30.6345 219.152 29.6134 226.045 28.5922C226.045 27.8264 226.045 27.3158 226.045 26.5499C226.248 24.2523 226.248 22.21 226.451 19.9124C226.451 17.6149 226.248 15.5726 226.045 13.275C226.045 12.5091 226.045 11.9985 226.045 11.2327C219.152 10.2115 212.462 9.19038 205.569 8.42452C198.068 7.65866 190.567 6.8928 182.864 6.12694C180.025 5.87165 176.984 5.61636 174.146 5.36108C172.322 5.36108 170.497 5.10579 168.672 5.10579C166.848 5.10579 165.023 5.10579 163.199 5.36108C160.36 5.61636 157.319 5.87165 154.481 6.12694C146.98 6.63751 139.479 7.40337 131.775 8.42452C124.883 9.19038 118.192 10.2115 111.3 11.2327C111.3 11.9985 111.3 12.5091 111.097 13.275C110.894 15.5726 110.894 17.6149 110.691 19.9124C110.691 22.21 110.894 24.2523 111.097 26.5499C111.097 27.3158 111.097 27.8264 111.3 28.5922C117.99 29.8687 124.883 30.6345 131.775 31.4004Z" fill="url(#paint28_linear_0_1)"/>
<path fill-rule="evenodd" clip-rule="evenodd" d="M225.031 19.9124C225.031 17.6148 224.829 15.3173 224.626 13.0197C218.139 11.9985 211.854 11.2327 205.367 10.4668C197.866 9.70094 190.364 8.93508 182.863 8.16922C180.025 7.91393 176.984 7.65865 174.146 7.40336C172.321 7.40336 170.497 7.14807 168.672 7.14807C166.848 7.14807 165.023 7.14807 163.199 7.40336C160.36 7.65865 157.319 7.91393 154.481 8.16922C146.98 8.67979 139.276 9.44566 131.775 10.4668C125.288 11.2327 119.003 11.9985 112.516 13.0197C112.313 15.3173 112.313 17.6148 112.11 19.9124C112.11 22.21 112.313 24.5076 112.516 26.8052C119.003 27.8263 125.288 28.5922 131.775 29.3581C139.276 30.1239 146.777 30.8898 154.278 31.6556C157.117 31.9109 160.158 32.1662 162.996 32.4215C164.82 32.4215 166.645 32.6768 168.47 32.6768C170.294 32.6768 172.119 32.6768 173.943 32.4215C176.782 32.1662 179.822 31.9109 182.661 31.6556C190.162 31.1451 197.663 30.3792 205.164 29.3581C211.651 28.5922 217.936 27.8263 224.423 26.8052C224.829 24.7629 225.031 22.4653 225.031 19.9124ZM224.018 13.7855C217.733 12.7644 211.651 11.9985 205.367 11.2327C197.866 10.4668 190.364 9.70094 182.863 8.93508C180.025 8.6798 176.984 8.42451 174.146 8.16922C172.321 8.16922 170.497 7.91393 168.672 7.91393C166.848 7.91393 165.023 7.91393 163.199 8.16922C160.36 8.42451 157.319 8.6798 154.481 8.93508C146.98 9.70094 139.479 10.4668 131.978 11.2327C125.693 11.9985 119.611 12.7644 113.327 13.7855C113.124 15.8278 113.124 17.8701 113.124 19.9124C113.124 21.9547 113.327 23.997 113.327 26.0393C119.611 27.0605 125.693 27.8263 131.978 28.5922C139.479 29.3581 146.98 30.1239 154.481 30.8898C157.319 31.1451 160.36 31.4004 163.199 31.6556C165.023 31.6556 166.848 31.9109 168.672 31.9109C170.497 31.9109 172.321 31.9109 174.146 31.6556C176.984 31.4004 180.025 31.1451 182.863 30.8898C190.364 30.3792 197.866 29.6133 205.367 28.5922C211.651 27.8263 217.733 27.0605 224.018 26.0393C224.221 23.997 224.221 21.9547 224.221 19.9124C224.221 17.8701 224.221 15.8278 224.018 13.7855Z" fill="#4C0C0C"/>
<path fill-rule="evenodd" clip-rule="evenodd" d="M220.166 11.2326C215.098 10.4668 209.827 9.70091 204.759 9.19034C197.46 8.16919 189.959 7.40333 182.661 6.63747C179.823 6.38218 176.984 6.12689 174.146 5.8716C172.322 5.8716 170.497 5.61632 168.672 5.61632C166.848 5.61632 165.023 5.61632 163.199 5.8716C160.36 6.12689 157.522 6.38218 154.684 6.63747C147.386 7.40333 139.885 8.16919 132.586 9.19034C127.315 9.9562 122.247 10.4668 116.976 11.4879C120.422 10.9773 123.666 10.7221 127.113 10.4668C135.627 9.44563 144.142 8.67976 152.454 8.16919C155.698 7.9139 158.941 7.65862 162.388 7.40333C164.415 7.40333 166.645 7.14804 168.672 7.14804C170.7 7.14804 172.93 7.14804 174.957 7.40333C178.201 7.40333 181.444 7.65862 184.688 7.9139C193.203 8.67976 201.718 9.44563 210.03 10.2115C213.476 10.4668 216.922 10.9773 220.166 11.2326Z" fill="url(#paint29_radial_0_1)"/>
<path fill-rule="evenodd" clip-rule="evenodd" d="M163.199 31.6557C165.023 31.6557 166.848 31.911 168.672 31.911C170.497 31.911 172.321 31.911 174.146 31.6557C176.984 31.4004 180.025 31.1451 182.863 30.8898C190.364 30.3793 197.866 29.6134 205.367 28.5923C211.651 27.8264 217.733 27.0605 224.018 26.0394C224.018 25.7841 224.018 25.5288 224.018 25.2735C224.221 23.4865 224.221 21.6995 224.221 19.9125C224.221 18.1255 224.018 16.3385 224.018 14.5515C224.018 14.2962 224.018 14.0409 224.018 13.7856C217.733 12.7644 211.651 11.9986 205.367 11.2327C197.866 10.4669 190.364 9.701 182.863 8.93514C180.025 8.67985 176.984 8.42456 174.146 8.16927C172.321 8.16927 170.497 7.91399 168.672 7.91399C166.848 7.91399 165.023 7.91399 163.199 8.16927C160.36 8.42456 157.319 8.67985 154.481 8.93514C146.98 9.701 139.479 10.4669 131.978 11.2327C125.693 11.9986 119.611 12.7644 113.327 13.7856C113.327 14.0409 113.327 14.2962 113.327 14.5515C113.124 16.3385 113.124 18.1255 113.124 19.9125C113.124 21.6995 113.327 23.4865 113.327 25.2735C113.327 25.5288 113.327 25.7841 113.327 26.0394C119.611 27.0605 125.693 27.8264 131.978 28.5923C139.479 29.3581 146.98 30.124 154.481 30.8898C157.319 31.1451 160.36 31.4004 163.199 31.6557Z" fill="url(#paint30_linear_0_1)"/>
<path fill-rule="evenodd" clip-rule="evenodd" d="M168.672 8.16925C170.497 8.16925 172.322 8.16925 174.146 8.42454C176.984 8.67982 180.025 8.93511 182.864 9.1904C190.365 9.70097 197.866 10.4668 205.367 11.488C211.651 12.2538 217.733 13.0197 224.018 14.0409L224.423 13.5303C218.139 12.5091 211.854 11.7433 205.569 10.9774C198.068 10.2115 190.567 9.44569 183.066 8.67983C180.228 8.42454 177.187 8.16925 174.349 7.91396C172.524 7.91396 170.7 7.65868 168.875 7.65868C167.051 7.65868 165.226 7.65868 163.401 7.91396C160.563 8.16925 157.522 8.42454 154.684 8.67983C146.98 9.1904 139.276 9.95626 131.775 10.7221C125.491 11.488 119.206 12.2538 112.921 13.275L113.327 13.7856C119.612 12.7644 125.693 11.9986 131.978 11.2327C139.479 10.4668 146.98 9.70097 154.481 8.93511C157.319 8.67983 160.36 8.42454 163.199 8.16925C165.023 8.16925 166.848 8.16925 168.672 8.16925Z" fill="#EF4C20"/>
<path fill-rule="evenodd" clip-rule="evenodd" d="M168.672 32.4215C166.848 32.4215 165.023 32.4215 163.199 32.1662C160.36 31.9109 157.319 31.6557 154.481 31.4004C146.98 30.8898 139.479 30.1239 131.978 29.1028C125.693 28.3369 119.611 27.5711 113.327 26.5499C113.327 26.2946 113.327 26.2946 113.327 26.0393L112.516 27.0605C119.003 28.0816 125.288 28.8475 131.775 29.6134C139.276 30.3792 146.777 31.1451 154.278 31.9109C157.117 32.1662 160.158 32.4215 162.996 32.6768C164.82 32.6768 166.645 32.9321 168.47 32.9321C170.294 32.9321 172.119 32.9321 173.943 32.6768C176.782 32.4215 179.823 32.1662 182.661 31.9109C190.162 31.4004 197.663 30.6345 205.164 29.6134C211.651 28.8475 217.936 28.0816 224.423 27.0605L224.018 26.5499H223.612C217.328 27.5711 211.246 28.3369 204.961 29.1028C197.46 29.8686 189.959 30.6345 182.458 31.4004C179.62 31.6557 176.579 31.9109 173.741 32.1662C172.321 32.1662 170.497 32.4215 168.672 32.4215Z" fill="#CC3300"/>
<path d="M123.629 20.4199C123.57 20.4199 123.51 20.4404 123.451 20.4815C123.396 20.5225 123.353 20.5794 123.321 20.6524C123.289 20.7253 123.273 20.8027 123.273 20.8848C123.273 20.9668 123.287 21.0443 123.314 21.1172C123.346 21.1901 123.39 21.2471 123.444 21.2881C123.504 21.3246 123.565 21.3428 123.629 21.3428C123.693 21.3428 123.752 21.3246 123.807 21.2881C123.866 21.2471 123.911 21.1901 123.943 21.1172C123.975 21.0443 123.991 20.9668 123.991 20.8848C123.991 20.8027 123.973 20.7253 123.937 20.6524C123.905 20.5794 123.859 20.5225 123.8 20.4815C123.745 20.4404 123.688 20.4199 123.629 20.4199ZM123.116 21.9785C121.886 21.9785 121.271 21.3838 121.271 20.1944C121.271 18.8773 122.41 18.2188 124.688 18.2188C125.828 18.2188 126.682 18.4056 127.252 18.7793C127.822 19.153 128.106 19.7158 128.106 20.4678C128.106 21.1559 127.838 21.737 127.3 22.211C126.767 22.6849 125.955 23.0905 124.866 23.4277C123.782 23.7604 123.239 24.1205 123.239 24.5078C123.239 24.8998 123.362 25.0957 123.608 25.0957C123.854 25.0957 124.235 24.9134 124.75 24.5488C125.27 24.1797 125.814 23.9951 126.384 23.9951C126.953 23.9951 127.382 24.1364 127.669 24.419C127.961 24.7106 128.106 25.1504 128.106 25.7383V27.2422C128.106 27.6068 128.227 27.9258 128.469 28.1992L126.869 28.8145C126.382 28.3587 126.138 27.8802 126.138 27.3789V25.7383C126.138 25.2324 126.028 24.9795 125.81 24.9795C125.591 24.9795 125.288 25.1641 124.9 25.5332C124.513 25.8978 123.978 26.0801 123.294 26.0801C122.61 26.0801 122.102 25.9502 121.77 25.6904C121.437 25.4261 121.271 25.0319 121.271 24.5078C121.271 23.6647 121.97 23.0541 123.369 22.6758C124.773 22.293 125.584 21.9421 125.803 21.6231C126.026 21.3041 126.138 20.919 126.138 20.4678C126.138 20.044 125.96 19.7272 125.604 19.5176C125.249 19.308 124.944 19.2031 124.688 19.2031C123.522 19.2031 122.938 19.5335 122.938 20.1944V20.2012C123.025 20.0918 123.132 20.0007 123.26 19.9277C123.433 19.8366 123.613 19.791 123.8 19.791C124.301 19.791 124.552 20.1556 124.552 20.8848C124.552 21.0762 124.504 21.2585 124.408 21.4317C124.312 21.6048 124.178 21.7393 124.005 21.835C123.832 21.9307 123.535 21.9785 123.116 21.9785ZM124.6 15.7578C124.695 15.7578 124.789 15.7738 124.88 15.8057C124.966 15.8376 125.037 15.8832 125.092 15.9424C125.142 16.0016 125.167 16.0609 125.167 16.1201C125.167 16.1794 125.142 16.2409 125.092 16.3047C125.042 16.3639 124.973 16.4095 124.887 16.4414C124.796 16.4733 124.7 16.4893 124.6 16.4893C124.499 16.4893 124.406 16.4733 124.319 16.4414C124.228 16.4095 124.158 16.3639 124.107 16.3047C124.057 16.2409 124.032 16.1794 124.032 16.1201C124.032 16.0609 124.057 16.0016 124.107 15.9424C124.158 15.8832 124.228 15.8376 124.319 15.8057C124.41 15.7738 124.504 15.7578 124.6 15.7578ZM125.475 16.6192C125.698 16.4186 125.864 16.2682 125.974 16.168C126.042 16.1133 126.076 16.0472 126.076 15.9697C126.076 15.9242 126.062 15.8763 126.035 15.8262C125.967 15.694 125.86 15.5892 125.714 15.5117C125.563 15.4297 125.203 15.3887 124.634 15.3887H124.497C123.932 15.3887 123.576 15.4297 123.431 15.5117C123.28 15.5892 123.171 15.694 123.103 15.8262C123.075 15.8763 123.062 15.9242 123.062 15.9697C123.062 16.0472 123.096 16.1133 123.164 16.168C123.273 16.2682 123.442 16.4186 123.67 16.6192L123.314 17.1797C123.283 17.1751 123.251 17.1729 123.219 17.1729C123 17.1091 122.815 17.0384 122.665 16.961C122.51 16.8789 122.36 16.7787 122.214 16.6602C122.063 16.5417 121.963 16.4391 121.913 16.3526C121.863 16.266 121.824 16.127 121.797 15.9356C121.797 15.7533 121.909 15.5641 122.132 15.3682C122.351 15.1677 122.649 15.015 123.027 14.9102C123.401 14.8054 123.914 14.7529 124.565 14.7529C125.217 14.7529 125.732 14.8054 126.11 14.9102C126.489 15.015 126.787 15.1677 127.006 15.3682C127.22 15.5641 127.327 15.7533 127.327 15.9356C127.304 16.0905 127.268 16.2113 127.218 16.2979C127.195 16.3526 127.152 16.4255 127.088 16.5166H127.949V17.1797H125.475V16.6192ZM124.552 12.6885C124.584 12.6156 124.6 12.5541 124.6 12.5039C124.6 12.472 124.593 12.4424 124.579 12.4151C124.524 12.3148 124.447 12.2647 124.347 12.2647H124.285C124.199 12.292 124.153 12.3626 124.148 12.4766C124.144 12.4857 124.142 12.4925 124.142 12.4971C124.142 12.6019 124.178 12.6634 124.251 12.6817C124.315 12.6908 124.381 12.6953 124.449 12.6953C124.481 12.6953 124.515 12.693 124.552 12.6885ZM124.189 13.1123C123.952 13.085 123.766 13.0212 123.629 12.9209C123.483 12.8115 123.41 12.6634 123.41 12.4766V12.4219C123.428 12.2123 123.538 12.0436 123.738 11.916C123.902 11.8203 124.091 11.7725 124.306 11.7725C124.351 11.7725 124.399 11.7748 124.449 11.7793C125.001 11.8067 125.326 11.9024 125.427 12.0664C125.518 12.2123 125.563 12.3945 125.563 12.6133V12.668C125.554 12.9141 125.374 13.2057 125.023 13.543C125.379 13.502 125.702 13.3447 125.994 13.0713C126.286 12.7979 126.525 12.4333 126.712 11.9776L128.147 12.3399C127.869 12.8275 127.591 13.183 127.313 13.4063C127.035 13.6296 126.689 13.8164 126.274 13.9668C125.86 14.1126 125.219 14.1856 124.354 14.1856H122.891V13.6455C123.51 13.5361 123.943 13.3584 124.189 13.1123ZM124.6 15.7578C124.695 15.7578 124.789 15.7738 124.88 15.8057C124.966 15.8376 125.037 15.8832 125.092 15.9424C125.142 16.0016 125.167 16.0609 125.167 16.1201C125.167 16.1794 125.142 16.2409 125.092 16.3047C125.042 16.3639 124.973 16.4095 124.887 16.4414C124.796 16.4733 124.7 16.4893 124.6 16.4893C124.499 16.4893 124.406 16.4733 124.319 16.4414C124.228 16.4095 124.158 16.3639 124.107 16.3047C124.057 16.2409 124.032 16.1794 124.032 16.1201C124.032 16.0609 124.057 16.0016 124.107 15.9424C124.158 15.8832 124.228 15.8376 124.319 15.8057C124.41 15.7738 124.504 15.7578 124.6 15.7578ZM125.475 16.6192C125.698 16.4186 125.864 16.2682 125.974 16.168C126.042 16.1133 126.076 16.0472 126.076 15.9697C126.076 15.9242 126.062 15.8763 126.035 15.8262C125.967 15.694 125.86 15.5892 125.714 15.5117C125.563 15.4297 125.203 15.3887 124.634 15.3887H124.497C123.932 15.3887 123.576 15.4297 123.431 15.5117C123.28 15.5892 123.171 15.694 123.103 15.8262C123.075 15.8763 123.062 15.9242 123.062 15.9697C123.062 16.0472 123.096 16.1133 123.164 16.168C123.273 16.2682 123.442 16.4186 123.67 16.6192L123.314 17.1797C123.283 17.1751 123.251 17.1729 123.219 17.1729C123 17.1091 122.815 17.0384 122.665 16.961C122.51 16.8789 122.36 16.7787 122.214 16.6602C122.063 16.5417 121.963 16.4391 121.913 16.3526C121.863 16.266 121.824 16.127 121.797 15.9356C121.797 15.7533 121.909 15.5641 122.132 15.3682C122.351 15.1677 122.649 15.015 123.027 14.9102C123.401 14.8054 123.914 14.7529 124.565 14.7529C125.217 14.7529 125.732 14.8054 126.11 14.9102C126.489 15.015 126.787 15.1677 127.006 15.3682C127.22 15.5641 127.327 15.7533 127.327 15.9356C127.304 16.0905 127.268 16.2113 127.218 16.2979C127.195 16.3526 127.152 16.4255 127.088 16.5166H127.949V17.1797H125.475V16.6192ZM124.552 12.6885C124.584 12.6156 124.6 12.5541 124.6 12.5039C124.6 12.472 124.593 12.4424 124.579 12.4151C124.524 12.3148 124.447 12.2647 124.347 12.2647H124.285C124.199 12.292 124.153 12.3626 124.148 12.4766C124.144 12.4857 124.142 12.4925 124.142 12.4971C124.142 12.6019 124.178 12.6634 124.251 12.6817C124.315 12.6908 124.381 12.6953 124.449 12.6953C124.481 12.6953 124.515 12.693 124.552 12.6885ZM124.189 13.1123C123.952 13.085 123.766 13.0212 123.629 12.9209C123.483 12.8115 123.41 12.6634 123.41 12.4766V12.4219C123.428 12.2123 123.538 12.0436 123.738 11.916C123.902 11.8203 124.091 11.7725 124.306 11.7725C124.351 11.7725 124.399 11.7748 124.449 11.7793C125.001 11.8067 125.326 11.9024 125.427 12.0664C125.518 12.2123 125.563 12.3945 125.563 12.6133V12.668C125.554 12.9141 125.374 13.2057 125.023 13.543C125.379 13.502 125.702 13.3447 125.994 13.0713C126.286 12.7979 126.525 12.4333 126.712 11.9776L128.147 12.3399C127.869 12.8275 127.591 13.183 127.313 13.4063C127.035 13.6296 126.689 13.8164 126.274 13.9668C125.86 14.1126 125.219 14.1856 124.354 14.1856H122.891V13.6455C123.51 13.5361 123.943 13.3584 124.189 13.1123ZM131.962 22.3203C132.153 22.3203 132.336 22.3682 132.509 22.4639C132.682 22.5596 132.816 22.694 132.912 22.8672C133.008 23.0404 133.056 23.2227 133.056 23.4141C133.056 23.6055 133.006 23.7901 132.905 23.9678C132.81 24.141 132.673 24.2754 132.495 24.3711C132.322 24.4623 132.144 24.5078 131.962 24.5078C132.162 24.8998 132.687 25.0957 133.534 25.0957C134.017 25.0957 134.437 24.9909 134.792 24.7813C135.147 24.5716 135.325 24.2549 135.325 23.8311C135.325 23.3799 135.145 22.9492 134.785 22.5391C134.43 22.1289 133.562 21.7803 132.181 21.4932C130.804 21.2015 130.116 20.6341 130.116 19.791C130.116 19.2669 130.283 18.875 130.615 18.6152C130.948 18.3509 131.561 18.2188 132.454 18.2188C132.928 18.2188 133.479 18.3897 134.108 18.7315C134.482 18.9365 134.803 19.0391 135.072 19.0391C135.337 19.0391 135.76 18.6745 136.344 17.9453L137.294 19.0186C136.729 19.6885 135.988 20.0235 135.072 20.0235C134.607 20.0235 134.118 19.8867 133.603 19.6133C133.083 19.3399 132.7 19.2031 132.454 19.2031C132.208 19.2031 132.085 19.3991 132.085 19.791C132.085 20.4063 132.627 20.8255 133.712 21.0488C134.801 21.2676 135.669 21.6139 136.316 22.0879C136.968 22.5619 137.294 23.1429 137.294 23.8311C137.294 24.583 136.952 25.1458 136.269 25.5195C135.585 25.8932 134.674 26.0801 133.534 26.0801C131.256 26.0801 130.116 25.4216 130.116 24.1045C130.116 22.9151 130.731 22.3203 131.962 22.3203ZM131.962 23.8721C132.039 23.8721 132.115 23.8539 132.188 23.8174C132.26 23.7764 132.317 23.7194 132.358 23.6465C132.404 23.5736 132.427 23.4961 132.427 23.4141C132.427 23.332 132.406 23.2546 132.365 23.1817C132.324 23.1087 132.267 23.0518 132.194 23.0108C132.121 22.9697 132.044 22.9492 131.962 22.9492C131.88 22.9492 131.802 22.9697 131.729 23.0108C131.657 23.0518 131.6 23.1087 131.559 23.1817C131.522 23.2546 131.504 23.332 131.504 23.4141C131.504 23.4961 131.524 23.5736 131.565 23.6465C131.606 23.7194 131.663 23.7764 131.736 23.8174C131.809 23.8539 131.884 23.8721 131.962 23.8721ZM144.608 20.3447C144.531 19.9756 144.387 19.693 144.178 19.4971C143.973 19.3011 143.537 19.2031 142.872 19.2031C142.48 19.2031 142.141 19.3216 141.854 19.5586C141.566 19.791 141.423 20.0508 141.423 20.3379C141.423 20.625 141.544 20.8871 141.785 21.124C142.027 21.3565 142.389 21.4727 142.872 21.4727C143.583 21.4727 144.03 21.377 144.212 21.1856C144.399 20.9896 144.531 20.7093 144.608 20.3447ZM140.534 23.8516C140.534 23.9017 140.539 23.9518 140.548 24.002C140.557 24.0339 140.571 24.0658 140.589 24.0977C140.625 24.166 140.678 24.2184 140.746 24.2549C140.814 24.2914 140.887 24.3096 140.965 24.3096C141.042 24.3096 141.115 24.2914 141.184 24.2549C141.257 24.2184 141.311 24.166 141.348 24.0977C141.389 24.0293 141.409 23.9564 141.409 23.8789C141.409 23.8014 141.389 23.7285 141.348 23.6602C141.307 23.5873 141.25 23.5326 141.177 23.4961C141.108 23.4551 141.038 23.4346 140.965 23.4346C140.892 23.4346 140.821 23.4551 140.753 23.4961C140.685 23.5326 140.632 23.585 140.596 23.6533C140.559 23.7171 140.539 23.7832 140.534 23.8516ZM141.792 24.877C142.225 25.0228 142.585 25.0957 142.872 25.0957C144.066 25.0957 144.663 24.558 144.663 23.4824V22.0674C144.121 22.3272 143.524 22.457 142.872 22.457C141.961 22.457 141.163 22.2748 140.479 21.9102C139.796 21.5456 139.454 21.0215 139.454 20.3379C139.454 19.5632 139.773 19.0163 140.411 18.6973C141.049 18.3783 141.869 18.2188 142.872 18.2188C144.285 18.2643 145.265 18.4922 145.812 18.9024C146.358 19.3125 146.632 19.9505 146.632 20.8164V23.4824C146.632 25.2142 145.379 26.0801 142.872 26.0801C140.593 26.0801 139.454 25.3236 139.454 23.8106H139.461C139.475 23.6419 139.527 23.4824 139.618 23.332C139.718 23.1589 139.871 23.0244 140.076 22.9287C140.286 22.8285 140.534 22.7783 140.821 22.7783C141.108 22.7783 141.345 22.8285 141.532 22.9287C141.719 23.0244 141.867 23.1589 141.977 23.332C142.086 23.5052 142.141 23.6898 142.141 23.8858C142.141 24.4235 142.024 24.7539 141.792 24.877ZM149.906 19.9072C150.184 19.9072 150.323 19.7614 150.323 19.4697C150.323 19.1826 150.184 19.0391 149.906 19.0391C149.628 19.0391 149.489 19.1826 149.489 19.4697C149.489 19.7614 149.628 19.9072 149.906 19.9072ZM149.059 20.3106C148.881 20.1146 148.792 19.8343 148.792 19.4697C148.792 19.0641 148.888 18.7588 149.079 18.5537C149.28 18.3304 149.59 18.2188 150.009 18.2188C150.697 18.2188 151.155 18.3281 151.383 18.5469C151.597 18.7565 151.704 19.0641 151.704 19.4697C151.704 20.1397 151.547 20.8438 151.232 21.582C150.918 22.3158 150.761 22.988 150.761 23.5986C150.761 24.5967 151.244 25.0957 152.21 25.0957C153.176 25.0957 153.659 24.558 153.659 23.4824V18.2188H155.628V23.4824C155.628 25.2142 154.489 26.0801 152.21 26.0801C149.931 26.0801 148.792 25.2529 148.792 23.5986C148.792 22.7875 149.047 22.0287 149.558 21.3223C149.731 21.0853 149.874 20.8597 149.988 20.6455C149.569 20.641 149.259 20.5293 149.059 20.3106ZM158.902 19.9072C159.18 19.9072 159.319 19.7614 159.319 19.4697C159.319 19.1826 159.18 19.0391 158.902 19.0391C158.624 19.0391 158.485 19.1826 158.485 19.4697C158.485 19.7614 158.624 19.9072 158.902 19.9072ZM162.655 19.9619V19.8047C162.655 19.2669 162.56 18.9981 162.368 18.9981C162.186 18.9981 162.095 19.1598 162.095 19.4834C162.095 19.807 162.215 19.9688 162.457 19.9688C162.525 19.9688 162.591 19.9665 162.655 19.9619ZM164.624 23.4824C164.624 25.2142 163.485 26.0801 161.206 26.0801C158.927 26.0801 157.788 25.2529 157.788 23.5986C157.788 22.7875 158.043 22.0287 158.554 21.3223C158.727 21.0853 158.87 20.8597 158.984 20.6455C158.565 20.641 158.255 20.5293 158.055 20.3106C157.877 20.1146 157.788 19.8343 157.788 19.4697C157.788 19.0641 157.884 18.7588 158.075 18.5537C158.276 18.3304 158.586 18.2188 159.005 18.2188C159.693 18.2188 160.151 18.3281 160.379 18.5469C160.593 18.7565 160.7 19.0641 160.7 19.4697C160.7 20.1397 160.543 20.8438 160.229 21.582C159.914 22.3158 159.757 22.988 159.757 23.5986C159.757 24.5967 160.24 25.0957 161.206 25.0957C162.172 25.0957 162.655 24.558 162.655 23.4824V20.7481H162.471C162.179 20.7481 161.922 20.6364 161.698 20.4131C161.479 20.1852 161.37 19.8753 161.37 19.4834C161.37 19.055 161.514 18.7383 161.801 18.5332C162.092 18.3236 162.475 18.2188 162.949 18.2188C163.824 18.2188 164.357 18.5401 164.549 19.1826C165.055 18.5401 165.606 18.2188 166.203 18.2188C166.951 18.2188 167.527 18.3714 167.933 18.6768C168.416 19.0368 168.657 19.6133 168.657 20.4063V26.0801H166.688V20.4063C166.688 19.9095 166.595 19.586 166.408 19.4356C166.221 19.2806 166.003 19.2031 165.752 19.2031C165.592 19.2031 165.292 19.4834 164.85 20.044L164.624 20.3721V23.4824ZM171.474 25C171.756 25 171.897 24.8587 171.897 24.5762C171.897 24.2982 171.756 24.1592 171.474 24.1592C171.196 24.1592 171.057 24.2982 171.057 24.5762C171.057 24.8587 171.196 25 171.474 25ZM174.105 23.6875C174.105 23.9291 174.085 24.1524 174.044 24.3574C174.308 24.3802 174.57 24.5215 174.83 24.7813C175.09 24.9909 175.42 25.0957 175.821 25.0957C176.327 25.0957 176.58 24.6947 176.58 23.8926V18.2188H178.549V23.8926C178.549 25.3509 177.685 26.0801 175.958 26.0801C175.27 26.0801 174.702 25.8386 174.256 25.3555C174.105 25.196 173.944 25.1094 173.771 25.0957C173.369 25.752 172.818 26.0801 172.116 26.0801C170.954 26.0801 170.373 25.5788 170.373 24.5762C170.373 23.8379 170.74 23.4688 171.474 23.4688C171.743 23.4688 171.964 23.5189 172.137 23.6192V18.2188H174.105V23.6875ZM175.404 27.0166C175.368 27.0394 175.34 27.069 175.322 27.1055C175.299 27.1465 175.288 27.1898 175.288 27.2354C175.288 27.2809 175.299 27.322 175.322 27.3584C175.34 27.3949 175.366 27.4245 175.397 27.4473C175.429 27.4701 175.505 27.486 175.623 27.4951C175.682 27.3994 175.712 27.3128 175.712 27.2354C175.712 27.1898 175.703 27.1465 175.685 27.1055C175.662 27.069 175.634 27.0394 175.603 27.0166C175.571 26.9938 175.536 26.9824 175.5 26.9824C175.468 26.9824 175.436 26.9938 175.404 27.0166ZM176.546 27.6797C176.496 27.8164 176.471 27.9486 176.471 28.0762C176.471 28.1309 176.475 28.1856 176.484 28.2402C176.516 28.3314 176.617 28.377 176.785 28.377C176.999 28.377 177.106 28.1149 177.106 27.5908V26.4971H178.214V27.625C178.214 28.5091 177.738 28.9512 176.785 28.9512C176.074 28.9512 175.66 28.8327 175.541 28.5957C175.468 28.459 175.432 28.3291 175.432 28.2061C175.432 28.1104 175.452 28.0192 175.493 27.9326C175.366 27.9326 175.243 27.9007 175.124 27.8369C174.996 27.7731 174.903 27.6843 174.844 27.5703C174.78 27.4564 174.748 27.3379 174.748 27.2149C174.748 27.0873 174.78 26.9642 174.844 26.8457C174.903 26.7318 174.996 26.6452 175.124 26.586C175.252 26.5267 175.473 26.4971 175.787 26.4971C175.969 26.4971 176.124 26.5267 176.252 26.586C176.375 26.6452 176.473 26.7318 176.546 26.8457C176.614 26.9642 176.648 27.0873 176.648 27.2149C176.648 27.3288 176.614 27.4837 176.546 27.6797ZM181.563 20.044C181.91 20.044 182.083 19.8708 182.083 19.5244C182.083 19.1826 181.91 19.0117 181.563 19.0117C181.222 19.0117 181.051 19.1826 181.051 19.5244C181.051 19.8708 181.222 20.044 181.563 20.044ZM182.021 20.7822C181.885 20.8141 181.732 20.8301 181.563 20.8301C181.103 20.8301 180.764 20.707 180.545 20.461C180.354 20.2468 180.258 19.9346 180.258 19.5244C180.258 19.1188 180.354 18.8067 180.545 18.5879C180.759 18.3418 181.099 18.2188 181.563 18.2188C182.571 18.2188 183.218 18.3509 183.505 18.6152C183.828 18.9115 183.99 19.3718 183.99 19.9961V23.6875C183.99 23.9291 183.97 24.1524 183.929 24.3574C184.193 24.3802 184.455 24.5215 184.715 24.7813C184.975 24.9909 185.305 25.0957 185.706 25.0957C186.212 25.0957 186.465 24.6947 186.465 23.8926V18.2188H188.434V23.8926C188.434 25.3509 187.57 26.0801 185.843 26.0801C185.155 26.0801 184.587 25.8386 184.141 25.3555C183.99 25.196 183.828 25.1094 183.655 25.0957C183.254 25.752 182.27 26.0801 180.702 26.0801V25.0957C181.144 25.0957 181.475 24.9795 181.693 24.7471C181.912 24.5101 182.021 24.1569 182.021 23.6875V20.7822ZM192.952 24.624C192.897 24.6514 192.854 24.6924 192.822 24.7471C192.795 24.8018 192.781 24.8587 192.781 24.918C192.781 24.9772 192.795 25.0342 192.822 25.0889C192.854 25.1436 192.897 25.1869 192.952 25.2188C193.007 25.2461 193.064 25.2598 193.123 25.2598C193.182 25.2598 193.239 25.2461 193.294 25.2188C193.349 25.1869 193.39 25.1436 193.417 25.0889C193.449 25.0342 193.465 24.9772 193.465 24.918C193.465 24.8587 193.449 24.8018 193.417 24.7471C193.385 24.6924 193.342 24.6514 193.287 24.624C193.237 24.5921 193.182 24.5762 193.123 24.5762C193.064 24.5762 193.007 24.5921 192.952 24.624ZM192.699 23.9883C192.836 23.9245 192.977 23.8926 193.123 23.8926C193.296 23.8926 193.463 23.9382 193.622 24.0293C193.786 24.1159 193.914 24.2412 194.005 24.4053C194.101 24.5694 194.148 24.7402 194.148 24.918C194.148 25.2962 194.05 25.5811 193.854 25.7725C193.649 25.9776 193.337 26.0801 192.918 26.0801C192.216 26.0801 191.683 25.9206 191.318 25.6016C190.926 25.2643 190.73 24.7402 190.73 24.0293V20.2695C190.73 19.5541 190.926 19.0254 191.318 18.6836C191.678 18.3737 192.198 18.2188 192.877 18.2188C193.278 18.2188 193.702 18.2871 194.148 18.4238V19.4082C193.793 19.2715 193.529 19.2031 193.355 19.2031C193.137 19.2031 192.973 19.2852 192.863 19.4492C192.754 19.6087 192.699 19.8822 192.699 20.2695V23.9883ZM197.279 19.9072C197.557 19.9072 197.696 19.7614 197.696 19.4697C197.696 19.1826 197.557 19.0391 197.279 19.0391C197.001 19.0391 196.862 19.1826 196.862 19.4697C196.862 19.7614 197.001 19.9072 197.279 19.9072ZM196.849 25.5469C196.393 25.1367 196.165 24.4873 196.165 23.5986C196.165 22.7875 196.42 22.0287 196.931 21.3223C197.104 21.0853 197.247 20.8597 197.361 20.6455C196.924 20.641 196.607 20.5202 196.411 20.2832C196.247 20.0918 196.165 19.8207 196.165 19.4697C196.165 19.0186 196.284 18.6904 196.521 18.4854C196.721 18.3076 197.076 18.2188 197.587 18.2188C198.12 18.2188 198.501 18.3441 198.729 18.5947C198.961 18.8408 199.077 19.1781 199.077 19.6065C199.077 20.1852 198.92 20.8438 198.605 21.582C198.291 22.3158 198.134 22.988 198.134 23.5986C198.134 24.5967 198.38 25.0957 198.872 25.0957C199.588 25.0957 199.945 24.6263 199.945 23.6875V18.2188H201.914V23.6875C201.914 24.6263 202.229 25.0957 202.857 25.0957C203.436 25.0957 203.726 24.5967 203.726 23.5986V18.2188H205.694V23.5986C205.694 24.4828 205.469 25.1299 205.018 25.5401C204.626 25.9001 203.903 26.0801 202.851 26.0801C201.962 26.0801 201.322 25.8294 200.93 25.3281C200.538 25.8294 199.852 26.0801 198.872 26.0801C197.915 26.0801 197.241 25.9024 196.849 25.5469ZM203.213 16.6875C203.436 16.487 203.603 16.3366 203.712 16.2363C203.78 16.1817 203.814 16.1156 203.814 16.0381C203.814 15.9925 203.801 15.9447 203.773 15.8945C203.705 15.7624 203.598 15.6576 203.452 15.5801C203.302 15.4981 202.942 15.457 202.372 15.457H202.235C201.67 15.457 201.315 15.4981 201.169 15.5801C201.019 15.6576 200.909 15.7624 200.841 15.8945C200.813 15.9447 200.8 15.9925 200.8 16.0381C200.8 16.1156 200.834 16.1817 200.902 16.2363C201.012 16.3366 201.18 16.487 201.408 16.6875L201.053 17.2481C201.021 17.2435 200.989 17.2412 200.957 17.2412C200.738 17.1774 200.554 17.1068 200.403 17.0293C200.248 16.9473 200.098 16.847 199.952 16.7285C199.802 16.61 199.701 16.5075 199.651 16.4209C199.601 16.3343 199.562 16.1953 199.535 16.0039C199.535 15.8216 199.647 15.6325 199.87 15.4365C200.089 15.236 200.387 15.0833 200.766 14.9785C201.139 14.8737 201.652 14.8213 202.304 14.8213C202.955 14.8213 203.47 14.8737 203.849 14.9785C204.227 15.0833 204.525 15.236 204.744 15.4365C204.958 15.6325 205.065 15.8216 205.065 16.0039C205.043 16.1589 205.006 16.2796 204.956 16.3662C204.933 16.4209 204.89 16.4938 204.826 16.585H205.688V17.2481H203.213V16.6875ZM202.618 11.834H203.944V14.459H202.618V11.834ZM208.511 25C208.793 25 208.935 24.8587 208.935 24.5762C208.935 24.2982 208.793 24.1592 208.511 24.1592C208.233 24.1592 208.094 24.2982 208.094 24.5762C208.094 24.8587 208.233 25 208.511 25ZM211.143 23.6875C211.143 23.9291 211.122 24.1524 211.081 24.3574C211.345 24.3802 211.607 24.5215 211.867 24.7813C212.127 24.9909 212.457 25.0957 212.858 25.0957C213.364 25.0957 213.617 24.6947 213.617 23.8926V18.2188H215.586V23.8926C215.586 25.3509 214.722 26.0801 212.995 26.0801C212.307 26.0801 211.74 25.8386 211.293 25.3555C211.143 25.196 210.981 25.1094 210.808 25.0957C210.407 25.752 209.855 26.0801 209.153 26.0801C207.991 26.0801 207.41 25.5788 207.41 24.5762C207.41 23.8379 207.777 23.4688 208.511 23.4688C208.78 23.4688 209.001 23.5189 209.174 23.6192V18.2188H211.143V23.6875Z" fill="#4A2121"/>
<path d="M123.629 19.4199C123.57 19.4199 123.51 19.4404 123.451 19.4815C123.396 19.5225 123.353 19.5794 123.321 19.6524C123.289 19.7253 123.273 19.8027 123.273 19.8848C123.273 19.9668 123.287 20.0443 123.314 20.1172C123.346 20.1901 123.39 20.2471 123.444 20.2881C123.504 20.3246 123.565 20.3428 123.629 20.3428C123.693 20.3428 123.752 20.3246 123.807 20.2881C123.866 20.2471 123.911 20.1901 123.943 20.1172C123.975 20.0443 123.991 19.9668 123.991 19.8848C123.991 19.8027 123.973 19.7253 123.937 19.6524C123.905 19.5794 123.859 19.5225 123.8 19.4815C123.745 19.4404 123.688 19.4199 123.629 19.4199ZM123.116 20.9785C121.886 20.9785 121.271 20.3838 121.271 19.1944C121.271 17.8773 122.41 17.2188 124.688 17.2188C125.828 17.2188 126.682 17.4056 127.252 17.7793C127.822 18.153 128.106 18.7158 128.106 19.4678C128.106 20.1559 127.838 20.737 127.3 21.211C126.767 21.6849 125.955 22.0905 124.866 22.4277C123.782 22.7604 123.239 23.1205 123.239 23.5078C123.239 23.8998 123.362 24.0957 123.608 24.0957C123.854 24.0957 124.235 23.9134 124.75 23.5488C125.27 23.1797 125.814 22.9951 126.384 22.9951C126.953 22.9951 127.382 23.1364 127.669 23.419C127.961 23.7106 128.106 24.1504 128.106 24.7383V26.2422C128.106 26.6068 128.227 26.9258 128.469 27.1992L126.869 27.8145C126.382 27.3587 126.138 26.8802 126.138 26.3789V24.7383C126.138 24.2324 126.028 23.9795 125.81 23.9795C125.591 23.9795 125.288 24.1641 124.9 24.5332C124.513 24.8978 123.978 25.0801 123.294 25.0801C122.61 25.0801 122.102 24.9502 121.77 24.6904C121.437 24.4261 121.271 24.0319 121.271 23.5078C121.271 22.6647 121.97 22.0541 123.369 21.6758C124.773 21.293 125.584 20.9421 125.803 20.6231C126.026 20.3041 126.138 19.919 126.138 19.4678C126.138 19.044 125.96 18.7272 125.604 18.5176C125.249 18.308 124.944 18.2031 124.688 18.2031C123.522 18.2031 122.938 18.5335 122.938 19.1944V19.2012C123.025 19.0918 123.132 19.0007 123.26 18.9277C123.433 18.8366 123.613 18.791 123.8 18.791C124.301 18.791 124.552 19.1556 124.552 19.8848C124.552 20.0762 124.504 20.2585 124.408 20.4317C124.312 20.6048 124.178 20.7393 124.005 20.835C123.832 20.9307 123.535 20.9785 123.116 20.9785ZM124.6 14.7578C124.695 14.7578 124.789 14.7738 124.88 14.8057C124.966 14.8376 125.037 14.8832 125.092 14.9424C125.142 15.0016 125.167 15.0609 125.167 15.1201C125.167 15.1794 125.142 15.2409 125.092 15.3047C125.042 15.3639 124.973 15.4095 124.887 15.4414C124.796 15.4733 124.7 15.4893 124.6 15.4893C124.499 15.4893 124.406 15.4733 124.319 15.4414C124.228 15.4095 124.158 15.3639 124.107 15.3047C124.057 15.2409 124.032 15.1794 124.032 15.1201C124.032 15.0609 124.057 15.0016 124.107 14.9424C124.158 14.8832 124.228 14.8376 124.319 14.8057C124.41 14.7738 124.504 14.7578 124.6 14.7578ZM125.475 15.6192C125.698 15.4186 125.864 15.2682 125.974 15.168C126.042 15.1133 126.076 15.0472 126.076 14.9697C126.076 14.9242 126.062 14.8763 126.035 14.8262C125.967 14.694 125.86 14.5892 125.714 14.5117C125.563 14.4297 125.203 14.3887 124.634 14.3887H124.497C123.932 14.3887 123.576 14.4297 123.431 14.5117C123.28 14.5892 123.171 14.694 123.103 14.8262C123.075 14.8763 123.062 14.9242 123.062 14.9697C123.062 15.0472 123.096 15.1133 123.164 15.168C123.273 15.2682 123.442 15.4186 123.67 15.6192L123.314 16.1797C123.283 16.1751 123.251 16.1729 123.219 16.1729C123 16.1091 122.815 16.0384 122.665 15.961C122.51 15.8789 122.36 15.7787 122.214 15.6602C122.063 15.5417 121.963 15.4391 121.913 15.3526C121.863 15.266 121.824 15.127 121.797 14.9356C121.797 14.7533 121.909 14.5641 122.132 14.3682C122.351 14.1677 122.649 14.015 123.027 13.9102C123.401 13.8054 123.914 13.7529 124.565 13.7529C125.217 13.7529 125.732 13.8054 126.11 13.9102C126.489 14.015 126.787 14.1677 127.006 14.3682C127.22 14.5641 127.327 14.7533 127.327 14.9356C127.304 15.0905 127.268 15.2113 127.218 15.2979C127.195 15.3526 127.152 15.4255 127.088 15.5166H127.949V16.1797H125.475V15.6192ZM124.552 11.6885C124.584 11.6156 124.6 11.5541 124.6 11.5039C124.6 11.472 124.593 11.4424 124.579 11.4151C124.524 11.3148 124.447 11.2647 124.347 11.2647H124.285C124.199 11.292 124.153 11.3626 124.148 11.4766C124.144 11.4857 124.142 11.4925 124.142 11.4971C124.142 11.6019 124.178 11.6634 124.251 11.6817C124.315 11.6908 124.381 11.6953 124.449 11.6953C124.481 11.6953 124.515 11.693 124.552 11.6885ZM124.189 12.1123C123.952 12.085 123.766 12.0212 123.629 11.9209C123.483 11.8115 123.41 11.6634 123.41 11.4766V11.4219C123.428 11.2123 123.538 11.0436 123.738 10.916C123.902 10.8203 124.091 10.7725 124.306 10.7725C124.351 10.7725 124.399 10.7748 124.449 10.7793C125.001 10.8067 125.326 10.9024 125.427 11.0664C125.518 11.2123 125.563 11.3945 125.563 11.6133V11.668C125.554 11.9141 125.374 12.2057 125.023 12.543C125.379 12.502 125.702 12.3447 125.994 12.0713C126.286 11.7979 126.525 11.4333 126.712 10.9776L128.147 11.3399C127.869 11.8275 127.591 12.183 127.313 12.4063C127.035 12.6296 126.689 12.8164 126.274 12.9668C125.86 13.1126 125.219 13.1856 124.354 13.1856H122.891V12.6455C123.51 12.5361 123.943 12.3584 124.189 12.1123ZM124.6 14.7578C124.695 14.7578 124.789 14.7738 124.88 14.8057C124.966 14.8376 125.037 14.8832 125.092 14.9424C125.142 15.0016 125.167 15.0609 125.167 15.1201C125.167 15.1794 125.142 15.2409 125.092 15.3047C125.042 15.3639 124.973 15.4095 124.887 15.4414C124.796 15.4733 124.7 15.4893 124.6 15.4893C124.499 15.4893 124.406 15.4733 124.319 15.4414C124.228 15.4095 124.158 15.3639 124.107 15.3047C124.057 15.2409 124.032 15.1794 124.032 15.1201C124.032 15.0609 124.057 15.0016 124.107 14.9424C124.158 14.8832 124.228 14.8376 124.319 14.8057C124.41 14.7738 124.504 14.7578 124.6 14.7578ZM125.475 15.6192C125.698 15.4186 125.864 15.2682 125.974 15.168C126.042 15.1133 126.076 15.0472 126.076 14.9697C126.076 14.9242 126.062 14.8763 126.035 14.8262C125.967 14.694 125.86 14.5892 125.714 14.5117C125.563 14.4297 125.203 14.3887 124.634 14.3887H124.497C123.932 14.3887 123.576 14.4297 123.431 14.5117C123.28 14.5892 123.171 14.694 123.103 14.8262C123.075 14.8763 123.062 14.9242 123.062 14.9697C123.062 15.0472 123.096 15.1133 123.164 15.168C123.273 15.2682 123.442 15.4186 123.67 15.6192L123.314 16.1797C123.283 16.1751 123.251 16.1729 123.219 16.1729C123 16.1091 122.815 16.0384 122.665 15.961C122.51 15.8789 122.36 15.7787 122.214 15.6602C122.063 15.5417 121.963 15.4391 121.913 15.3526C121.863 15.266 121.824 15.127 121.797 14.9356C121.797 14.7533 121.909 14.5641 122.132 14.3682C122.351 14.1677 122.649 14.015 123.027 13.9102C123.401 13.8054 123.914 13.7529 124.565 13.7529C125.217 13.7529 125.732 13.8054 126.11 13.9102C126.489 14.015 126.787 14.1677 127.006 14.3682C127.22 14.5641 127.327 14.7533 127.327 14.9356C127.304 15.0905 127.268 15.2113 127.218 15.2979C127.195 15.3526 127.152 15.4255 127.088 15.5166H127.949V16.1797H125.475V15.6192ZM124.552 11.6885C124.584 11.6156 124.6 11.5541 124.6 11.5039C124.6 11.472 124.593 11.4424 124.579 11.4151C124.524 11.3148 124.447 11.2647 124.347 11.2647H124.285C124.199 11.292 124.153 11.3626 124.148 11.4766C124.144 11.4857 124.142 11.4925 124.142 11.4971C124.142 11.6019 124.178 11.6634 124.251 11.6817C124.315 11.6908 124.381 11.6953 124.449 11.6953C124.481 11.6953 124.515 11.693 124.552 11.6885ZM124.189 12.1123C123.952 12.085 123.766 12.0212 123.629 11.9209C123.483 11.8115 123.41 11.6634 123.41 11.4766V11.4219C123.428 11.2123 123.538 11.0436 123.738 10.916C123.902 10.8203 124.091 10.7725 124.306 10.7725C124.351 10.7725 124.399 10.7748 124.449 10.7793C125.001 10.8067 125.326 10.9024 125.427 11.0664C125.518 11.2123 125.563 11.3945 125.563 11.6133V11.668C125.554 11.9141 125.374 12.2057 125.023 12.543C125.379 12.502 125.702 12.3447 125.994 12.0713C126.286 11.7979 126.525 11.4333 126.712 10.9776L128.147 11.3399C127.869 11.8275 127.591 12.183 127.313 12.4063C127.035 12.6296 126.689 12.8164 126.274 12.9668C125.86 13.1126 125.219 13.1856 124.354 13.1856H122.891V12.6455C123.51 12.5361 123.943 12.3584 124.189 12.1123ZM131.962 21.3203C132.153 21.3203 132.336 21.3682 132.509 21.4639C132.682 21.5596 132.816 21.694 132.912 21.8672C133.008 22.0404 133.056 22.2227 133.056 22.4141C133.056 22.6055 133.006 22.7901 132.905 22.9678C132.81 23.141 132.673 23.2754 132.495 23.3711C132.322 23.4623 132.144 23.5078 131.962 23.5078C132.162 23.8998 132.687 24.0957 133.534 24.0957C134.017 24.0957 134.437 23.9909 134.792 23.7813C135.147 23.5716 135.325 23.2549 135.325 22.8311C135.325 22.3799 135.145 21.9492 134.785 21.5391C134.43 21.1289 133.562 20.7803 132.181 20.4932C130.804 20.2015 130.116 19.6341 130.116 18.791C130.116 18.2669 130.283 17.875 130.615 17.6152C130.948 17.3509 131.561 17.2188 132.454 17.2188C132.928 17.2188 133.479 17.3897 134.108 17.7315C134.482 17.9365 134.803 18.0391 135.072 18.0391C135.337 18.0391 135.76 17.6745 136.344 16.9453L137.294 18.0186C136.729 18.6885 135.988 19.0235 135.072 19.0235C134.607 19.0235 134.118 18.8867 133.603 18.6133C133.083 18.3399 132.7 18.2031 132.454 18.2031C132.208 18.2031 132.085 18.3991 132.085 18.791C132.085 19.4063 132.627 19.8255 133.712 20.0488C134.801 20.2676 135.669 20.6139 136.316 21.0879C136.968 21.5619 137.294 22.1429 137.294 22.8311C137.294 23.583 136.952 24.1458 136.269 24.5195C135.585 24.8932 134.674 25.0801 133.534 25.0801C131.256 25.0801 130.116 24.4216 130.116 23.1045C130.116 21.9151 130.731 21.3203 131.962 21.3203ZM131.962 22.8721C132.039 22.8721 132.115 22.8539 132.188 22.8174C132.26 22.7764 132.317 22.7194 132.358 22.6465C132.404 22.5736 132.427 22.4961 132.427 22.4141C132.427 22.332 132.406 22.2546 132.365 22.1817C132.324 22.1087 132.267 22.0518 132.194 22.0108C132.121 21.9697 132.044 21.9492 131.962 21.9492C131.88 21.9492 131.802 21.9697 131.729 22.0108C131.657 22.0518 131.6 22.1087 131.559 22.1817C131.522 22.2546 131.504 22.332 131.504 22.4141C131.504 22.4961 131.524 22.5736 131.565 22.6465C131.606 22.7194 131.663 22.7764 131.736 22.8174C131.809 22.8539 131.884 22.8721 131.962 22.8721ZM144.608 19.3447C144.531 18.9756 144.387 18.693 144.178 18.4971C143.973 18.3011 143.537 18.2031 142.872 18.2031C142.48 18.2031 142.141 18.3216 141.854 18.5586C141.566 18.791 141.423 19.0508 141.423 19.3379C141.423 19.625 141.544 19.8871 141.785 20.124C142.027 20.3565 142.389 20.4727 142.872 20.4727C143.583 20.4727 144.03 20.377 144.212 20.1856C144.399 19.9896 144.531 19.7093 144.608 19.3447ZM140.534 22.8516C140.534 22.9017 140.539 22.9518 140.548 23.002C140.557 23.0339 140.571 23.0658 140.589 23.0977C140.625 23.166 140.678 23.2184 140.746 23.2549C140.814 23.2914 140.887 23.3096 140.965 23.3096C141.042 23.3096 141.115 23.2914 141.184 23.2549C141.257 23.2184 141.311 23.166 141.348 23.0977C141.389 23.0293 141.409 22.9564 141.409 22.8789C141.409 22.8014 141.389 22.7285 141.348 22.6602C141.307 22.5873 141.25 22.5326 141.177 22.4961C141.108 22.4551 141.038 22.4346 140.965 22.4346C140.892 22.4346 140.821 22.4551 140.753 22.4961C140.685 22.5326 140.632 22.585 140.596 22.6533C140.559 22.7171 140.539 22.7832 140.534 22.8516ZM141.792 23.877C142.225 24.0228 142.585 24.0957 142.872 24.0957C144.066 24.0957 144.663 23.558 144.663 22.4824V21.0674C144.121 21.3272 143.524 21.457 142.872 21.457C141.961 21.457 141.163 21.2748 140.479 20.9102C139.796 20.5456 139.454 20.0215 139.454 19.3379C139.454 18.5632 139.773 18.0163 140.411 17.6973C141.049 17.3783 141.869 17.2188 142.872 17.2188C144.285 17.2643 145.265 17.4922 145.812 17.9024C146.358 18.3125 146.632 18.9505 146.632 19.8164V22.4824C146.632 24.2142 145.379 25.0801 142.872 25.0801C140.593 25.0801 139.454 24.3236 139.454 22.8106H139.461C139.475 22.6419 139.527 22.4824 139.618 22.332C139.718 22.1589 139.871 22.0244 140.076 21.9287C140.286 21.8285 140.534 21.7783 140.821 21.7783C141.108 21.7783 141.345 21.8285 141.532 21.9287C141.719 22.0244 141.867 22.1589 141.977 22.332C142.086 22.5052 142.141 22.6898 142.141 22.8858C142.141 23.4235 142.024 23.7539 141.792 23.877ZM149.906 18.9072C150.184 18.9072 150.323 18.7614 150.323 18.4697C150.323 18.1826 150.184 18.0391 149.906 18.0391C149.628 18.0391 149.489 18.1826 149.489 18.4697C149.489 18.7614 149.628 18.9072 149.906 18.9072ZM149.059 19.3106C148.881 19.1146 148.792 18.8343 148.792 18.4697C148.792 18.0641 148.888 17.7588 149.079 17.5537C149.28 17.3304 149.59 17.2188 150.009 17.2188C150.697 17.2188 151.155 17.3281 151.383 17.5469C151.597 17.7565 151.704 18.0641 151.704 18.4697C151.704 19.1397 151.547 19.8438 151.232 20.582C150.918 21.3158 150.761 21.988 150.761 22.5986C150.761 23.5967 151.244 24.0957 152.21 24.0957C153.176 24.0957 153.659 23.558 153.659 22.4824V17.2188H155.628V22.4824C155.628 24.2142 154.489 25.0801 152.21 25.0801C149.931 25.0801 148.792 24.2529 148.792 22.5986C148.792 21.7875 149.047 21.0287 149.558 20.3223C149.731 20.0853 149.874 19.8597 149.988 19.6455C149.569 19.641 149.259 19.5293 149.059 19.3106ZM158.902 18.9072C159.18 18.9072 159.319 18.7614 159.319 18.4697C159.319 18.1826 159.18 18.0391 158.902 18.0391C158.624 18.0391 158.485 18.1826 158.485 18.4697C158.485 18.7614 158.624 18.9072 158.902 18.9072ZM162.655 18.9619V18.8047C162.655 18.2669 162.56 17.9981 162.368 17.9981C162.186 17.9981 162.095 18.1598 162.095 18.4834C162.095 18.807 162.215 18.9688 162.457 18.9688C162.525 18.9688 162.591 18.9665 162.655 18.9619ZM164.624 22.4824C164.624 24.2142 163.485 25.0801 161.206 25.0801C158.927 25.0801 157.788 24.2529 157.788 22.5986C157.788 21.7875 158.043 21.0287 158.554 20.3223C158.727 20.0853 158.87 19.8597 158.984 19.6455C158.565 19.641 158.255 19.5293 158.055 19.3106C157.877 19.1146 157.788 18.8343 157.788 18.4697C157.788 18.0641 157.884 17.7588 158.075 17.5537C158.276 17.3304 158.586 17.2188 159.005 17.2188C159.693 17.2188 160.151 17.3281 160.379 17.5469C160.593 17.7565 160.7 18.0641 160.7 18.4697C160.7 19.1397 160.543 19.8438 160.229 20.582C159.914 21.3158 159.757 21.988 159.757 22.5986C159.757 23.5967 160.24 24.0957 161.206 24.0957C162.172 24.0957 162.655 23.558 162.655 22.4824V19.7481H162.471C162.179 19.7481 161.922 19.6364 161.698 19.4131C161.479 19.1852 161.37 18.8753 161.37 18.4834C161.37 18.055 161.514 17.7383 161.801 17.5332C162.092 17.3236 162.475 17.2188 162.949 17.2188C163.824 17.2188 164.357 17.5401 164.549 18.1826C165.055 17.5401 165.606 17.2188 166.203 17.2188C166.951 17.2188 167.527 17.3714 167.933 17.6768C168.416 18.0368 168.657 18.6133 168.657 19.4063V25.0801H166.688V19.4063C166.688 18.9095 166.595 18.586 166.408 18.4356C166.221 18.2806 166.003 18.2031 165.752 18.2031C165.592 18.2031 165.292 18.4834 164.85 19.044L164.624 19.3721V22.4824ZM171.474 24C171.756 24 171.897 23.8587 171.897 23.5762C171.897 23.2982 171.756 23.1592 171.474 23.1592C171.196 23.1592 171.057 23.2982 171.057 23.5762C171.057 23.8587 171.196 24 171.474 24ZM174.105 22.6875C174.105 22.9291 174.085 23.1524 174.044 23.3574C174.308 23.3802 174.57 23.5215 174.83 23.7813C175.09 23.9909 175.42 24.0957 175.821 24.0957C176.327 24.0957 176.58 23.6947 176.58 22.8926V17.2188H178.549V22.8926C178.549 24.3509 177.685 25.0801 175.958 25.0801C175.27 25.0801 174.702 24.8386 174.256 24.3555C174.105 24.196 173.944 24.1094 173.771 24.0957C173.369 24.752 172.818 25.0801 172.116 25.0801C170.954 25.0801 170.373 24.5788 170.373 23.5762C170.373 22.8379 170.74 22.4688 171.474 22.4688C171.743 22.4688 171.964 22.5189 172.137 22.6192V17.2188H174.105V22.6875ZM175.404 26.0166C175.368 26.0394 175.34 26.069 175.322 26.1055C175.299 26.1465 175.288 26.1898 175.288 26.2354C175.288 26.2809 175.299 26.322 175.322 26.3584C175.34 26.3949 175.366 26.4245 175.397 26.4473C175.429 26.4701 175.505 26.486 175.623 26.4951C175.682 26.3994 175.712 26.3128 175.712 26.2354C175.712 26.1898 175.703 26.1465 175.685 26.1055C175.662 26.069 175.634 26.0394 175.603 26.0166C175.571 25.9938 175.536 25.9824 175.5 25.9824C175.468 25.9824 175.436 25.9938 175.404 26.0166ZM176.546 26.6797C176.496 26.8164 176.471 26.9486 176.471 27.0762C176.471 27.1309 176.475 27.1856 176.484 27.2402C176.516 27.3314 176.617 27.377 176.785 27.377C176.999 27.377 177.106 27.1149 177.106 26.5908V25.4971H178.214V26.625C178.214 27.5091 177.738 27.9512 176.785 27.9512C176.074 27.9512 175.66 27.8327 175.541 27.5957C175.468 27.459 175.432 27.3291 175.432 27.2061C175.432 27.1104 175.452 27.0192 175.493 26.9326C175.366 26.9326 175.243 26.9007 175.124 26.8369C174.996 26.7731 174.903 26.6843 174.844 26.5703C174.78 26.4564 174.748 26.3379 174.748 26.2149C174.748 26.0873 174.78 25.9642 174.844 25.8457C174.903 25.7318 174.996 25.6452 175.124 25.586C175.252 25.5267 175.473 25.4971 175.787 25.4971C175.969 25.4971 176.124 25.5267 176.252 25.586C176.375 25.6452 176.473 25.7318 176.546 25.8457C176.614 25.9642 176.648 26.0873 176.648 26.2149C176.648 26.3288 176.614 26.4837 176.546 26.6797ZM181.563 19.044C181.91 19.044 182.083 18.8708 182.083 18.5244C182.083 18.1826 181.91 18.0117 181.563 18.0117C181.222 18.0117 181.051 18.1826 181.051 18.5244C181.051 18.8708 181.222 19.044 181.563 19.044ZM182.021 19.7822C181.885 19.8141 181.732 19.8301 181.563 19.8301C181.103 19.8301 180.764 19.707 180.545 19.461C180.354 19.2468 180.258 18.9346 180.258 18.5244C180.258 18.1188 180.354 17.8067 180.545 17.5879C180.759 17.3418 181.099 17.2188 181.563 17.2188C182.571 17.2188 183.218 17.3509 183.505 17.6152C183.828 17.9115 183.99 18.3718 183.99 18.9961V22.6875C183.99 22.9291 183.97 23.1524 183.929 23.3574C184.193 23.3802 184.455 23.5215 184.715 23.7813C184.975 23.9909 185.305 24.0957 185.706 24.0957C186.212 24.0957 186.465 23.6947 186.465 22.8926V17.2188H188.434V22.8926C188.434 24.3509 187.57 25.0801 185.843 25.0801C185.155 25.0801 184.587 24.8386 184.141 24.3555C183.99 24.196 183.828 24.1094 183.655 24.0957C183.254 24.752 182.27 25.0801 180.702 25.0801V24.0957C181.144 24.0957 181.475 23.9795 181.693 23.7471C181.912 23.5101 182.021 23.1569 182.021 22.6875V19.7822ZM192.952 23.624C192.897 23.6514 192.854 23.6924 192.822 23.7471C192.795 23.8018 192.781 23.8587 192.781 23.918C192.781 23.9772 192.795 24.0342 192.822 24.0889C192.854 24.1436 192.897 24.1869 192.952 24.2188C193.007 24.2461 193.064 24.2598 193.123 24.2598C193.182 24.2598 193.239 24.2461 193.294 24.2188C193.349 24.1869 193.39 24.1436 193.417 24.0889C193.449 24.0342 193.465 23.9772 193.465 23.918C193.465 23.8587 193.449 23.8018 193.417 23.7471C193.385 23.6924 193.342 23.6514 193.287 23.624C193.237 23.5921 193.182 23.5762 193.123 23.5762C193.064 23.5762 193.007 23.5921 192.952 23.624ZM192.699 22.9883C192.836 22.9245 192.977 22.8926 193.123 22.8926C193.296 22.8926 193.463 22.9382 193.622 23.0293C193.786 23.1159 193.914 23.2412 194.005 23.4053C194.101 23.5694 194.148 23.7402 194.148 23.918C194.148 24.2962 194.05 24.5811 193.854 24.7725C193.649 24.9776 193.337 25.0801 192.918 25.0801C192.216 25.0801 191.683 24.9206 191.318 24.6016C190.926 24.2643 190.73 23.7402 190.73 23.0293V19.2695C190.73 18.5541 190.926 18.0254 191.318 17.6836C191.678 17.3737 192.198 17.2188 192.877 17.2188C193.278 17.2188 193.702 17.2871 194.148 17.4238V18.4082C193.793 18.2715 193.529 18.2031 193.355 18.2031C193.137 18.2031 192.973 18.2852 192.863 18.4492C192.754 18.6087 192.699 18.8822 192.699 19.2695V22.9883ZM197.279 18.9072C197.557 18.9072 197.696 18.7614 197.696 18.4697C197.696 18.1826 197.557 18.0391 197.279 18.0391C197.001 18.0391 196.862 18.1826 196.862 18.4697C196.862 18.7614 197.001 18.9072 197.279 18.9072ZM196.849 24.5469C196.393 24.1367 196.165 23.4873 196.165 22.5986C196.165 21.7875 196.42 21.0287 196.931 20.3223C197.104 20.0853 197.247 19.8597 197.361 19.6455C196.924 19.641 196.607 19.5202 196.411 19.2832C196.247 19.0918 196.165 18.8207 196.165 18.4697C196.165 18.0186 196.284 17.6904 196.521 17.4854C196.721 17.3076 197.076 17.2188 197.587 17.2188C198.12 17.2188 198.501 17.3441 198.729 17.5947C198.961 17.8408 199.077 18.1781 199.077 18.6065C199.077 19.1852 198.92 19.8438 198.605 20.582C198.291 21.3158 198.134 21.988 198.134 22.5986C198.134 23.5967 198.38 24.0957 198.872 24.0957C199.588 24.0957 199.945 23.6263 199.945 22.6875V17.2188H201.914V22.6875C201.914 23.6263 202.229 24.0957 202.857 24.0957C203.436 24.0957 203.726 23.5967 203.726 22.5986V17.2188H205.694V22.5986C205.694 23.4828 205.469 24.1299 205.018 24.5401C204.626 24.9001 203.903 25.0801 202.851 25.0801C201.962 25.0801 201.322 24.8294 200.93 24.3281C200.538 24.8294 199.852 25.0801 198.872 25.0801C197.915 25.0801 197.241 24.9024 196.849 24.5469ZM203.213 15.6875C203.436 15.487 203.603 15.3366 203.712 15.2363C203.78 15.1817 203.814 15.1156 203.814 15.0381C203.814 14.9925 203.801 14.9447 203.773 14.8945C203.705 14.7624 203.598 14.6576 203.452 14.5801C203.302 14.4981 202.942 14.457 202.372 14.457H202.235C201.67 14.457 201.315 14.4981 201.169 14.5801C201.019 14.6576 200.909 14.7624 200.841 14.8945C200.813 14.9447 200.8 14.9925 200.8 15.0381C200.8 15.1156 200.834 15.1817 200.902 15.2363C201.012 15.3366 201.18 15.487 201.408 15.6875L201.053 16.2481C201.021 16.2435 200.989 16.2412 200.957 16.2412C200.738 16.1774 200.554 16.1068 200.403 16.0293C200.248 15.9473 200.098 15.847 199.952 15.7285C199.802 15.61 199.701 15.5075 199.651 15.4209C199.601 15.3343 199.562 15.1953 199.535 15.0039C199.535 14.8216 199.647 14.6325 199.87 14.4365C200.089 14.236 200.387 14.0833 200.766 13.9785C201.139 13.8737 201.652 13.8213 202.304 13.8213C202.955 13.8213 203.47 13.8737 203.849 13.9785C204.227 14.0833 204.525 14.236 204.744 14.4365C204.958 14.6325 205.065 14.8216 205.065 15.0039C205.043 15.1589 205.006 15.2796 204.956 15.3662C204.933 15.4209 204.89 15.4938 204.826 15.585H205.688V16.2481H203.213V15.6875ZM202.618 10.834H203.944V13.459H202.618V10.834ZM208.511 24C208.793 24 208.935 23.8587 208.935 23.5762C208.935 23.2982 208.793 23.1592 208.511 23.1592C208.233 23.1592 208.094 23.2982 208.094 23.5762C208.094 23.8587 208.233 24 208.511 24ZM211.143 22.6875C211.143 22.9291 211.122 23.1524 211.081 23.3574C211.345 23.3802 211.607 23.5215 211.867 23.7813C212.127 23.9909 212.457 24.0957 212.858 24.0957C213.364 24.0957 213.617 23.6947 213.617 22.8926V17.2188H215.586V22.8926C215.586 24.3509 214.722 25.0801 212.995 25.0801C212.307 25.0801 211.74 24.8386 211.293 24.3555C211.143 24.196 210.981 24.1094 210.808 24.0957C210.407 24.752 209.855 25.0801 209.153 25.0801C207.991 25.0801 207.41 24.5788 207.41 23.5762C207.41 22.8379 207.777 22.4688 208.511 22.4688C208.78 22.4688 209.001 22.5189 209.174 22.6192V17.2188H211.143V22.6875Z" fill="url(#paint31_linear_0_1)"/>
<defs>
<radialGradient id="paint0_radial_0_1" cx="0" cy="0" r="1" gradientUnits="userSpaceOnUse" gradientTransform="translate(169.674 110.386) scale(182.552 182.552)">
<stop stop-color="#4F2828"/>
<stop offset="0.8104" stop-color="#472323"/>
<stop offset="1" stop-color="#3B1919"/>
</radialGradient>
<linearGradient id="paint1_linear_0_1" x1="4.14202" y1="110.514" x2="4.14202" y2="17.8093" gradientUnits="userSpaceOnUse">
<stop stop-color="#FFD97A"/>
<stop offset="1" stop-color="#EB9E21"/>
</linearGradient>
<linearGradient id="paint2_linear_0_1" x1="4.14211" y1="202.957" x2="4.14211" y2="110.509" gradientUnits="userSpaceOnUse">
<stop stop-color="#FFD97A"/>
<stop offset="1" stop-color="#EB9E21"/>
</linearGradient>
<linearGradient id="paint3_linear_0_1" x1="5.273" y1="204.094" x2="169.675" y2="204.094" gradientUnits="userSpaceOnUse">
<stop stop-color="#A36808"/>
<stop offset="1" stop-color="#BF8800"/>
</linearGradient>
<linearGradient id="paint4_linear_0_1" x1="169.675" y1="204.094" x2="334.075" y2="204.094" gradientUnits="userSpaceOnUse">
<stop stop-color="#A87219"/>
<stop offset="1" stop-color="#6B4200"/>
</linearGradient>
<linearGradient id="paint5_linear_0_1" x1="335.206" y1="110.514" x2="335.206" y2="17.8093" gradientUnits="userSpaceOnUse">
<stop stop-color="#E8B048"/>
<stop offset="1" stop-color="#8F6B09"/>
</linearGradient>
<linearGradient id="paint6_linear_0_1" x1="335.206" y1="202.962" x2="335.206" y2="110.514" gradientUnits="userSpaceOnUse">
<stop stop-color="#E8B048"/>
<stop offset="1" stop-color="#8F6B09"/>
</linearGradient>
<linearGradient id="paint7_linear_0_1" x1="5.27292" y1="16.6784" x2="169.675" y2="16.6784" gradientUnits="userSpaceOnUse">
<stop stop-color="#F5D36C"/>
<stop offset="1" stop-color="#FFF5B0"/>
</linearGradient>
<linearGradient id="paint8_linear_0_1" x1="169.675" y1="16.6784" x2="334.075" y2="16.6784" gradientUnits="userSpaceOnUse">
<stop stop-color="#FFDD6E"/>
<stop offset="1" stop-color="#D69705"/>
</linearGradient>
<radialGradient id="paint9_radial_0_1" cx="0" cy="0" r="1" gradientUnits="userSpaceOnUse" gradientTransform="translate(169.674 21.8922) scale(114.328 114.328)">
<stop stop-color="#BF8800"/>
<stop offset="1" stop-color="#A36808"/>
</radialGradient>
<linearGradient id="paint10_linear_0_1" x1="9.35664" y1="200.24" x2="9.35664" y2="20.5312" gradientUnits="userSpaceOnUse">
<stop stop-color="#E8B048"/>
<stop offset="1" stop-color="#8F6B09"/>
</linearGradient>
<linearGradient id="paint11_linear_0_1" x1="329.992" y1="200.24" x2="329.992" y2="20.5316" gradientUnits="userSpaceOnUse">
<stop stop-color="#FFD97A"/>
<stop offset="1" stop-color="#EB9E21"/>
</linearGradient>
<radialGradient id="paint12_radial_0_1" cx="0" cy="0" r="1" gradientUnits="userSpaceOnUse" gradientTransform="translate(169.674 198.879) scale(114.328 114.328)">
<stop stop-color="#FFDD6E"/>
<stop offset="1" stop-color="#D69705"/>
</radialGradient>
<linearGradient id="paint13_linear_0_1" x1="168.65" y1="36.4134" x2="168.65" y2="3.58194" gradientUnits="userSpaceOnUse">
<stop stop-color="#DE9B00"/>
<stop offset="1" stop-color="#FFF5B0"/>
</linearGradient>
<linearGradient id="paint14_linear_0_1" x1="108.16" y1="19.9977" x2="108.16" y2="6.52772" gradientUnits="userSpaceOnUse">
<stop stop-color="#FFD97A"/>
<stop offset="1" stop-color="#EB9E21"/>
</linearGradient>
<linearGradient id="paint15_linear_0_1" x1="107.187" y1="4.83846" x2="168.65" y2="4.83846" gradientUnits="userSpaceOnUse">
<stop stop-color="#F5D36C"/>
<stop offset="1" stop-color="#FFF5B0"/>
</linearGradient>
<linearGradient id="paint16_linear_0_1" x1="168.651" y1="4.83846" x2="230.113" y2="4.83846" gradientUnits="userSpaceOnUse">
<stop stop-color="#FFDD6E"/>
<stop offset="1" stop-color="#D69705"/>
</linearGradient>
<linearGradient id="paint17_linear_0_1" x1="229.141" y1="19.9977" x2="229.141" y2="6.52769" gradientUnits="userSpaceOnUse">
<stop stop-color="#FFD97A"/>
<stop offset="1" stop-color="#EB9E21"/>
</linearGradient>
<linearGradient id="paint18_linear_0_1" x1="229.141" y1="33.4675" x2="229.141" y2="19.9977" gradientUnits="userSpaceOnUse">
<stop stop-color="#E8B048"/>
<stop offset="1" stop-color="#C27C0C"/>
</linearGradient>
<linearGradient id="paint19_linear_0_1" x1="168.651" y1="35.1569" x2="230.113" y2="35.1569" gradientUnits="userSpaceOnUse">
<stop stop-color="#A87219"/>
<stop offset="1" stop-color="#6B4200"/>
</linearGradient>
<linearGradient id="paint20_linear_0_1" x1="107.187" y1="35.1569" x2="168.65" y2="35.1569" gradientUnits="userSpaceOnUse">
<stop stop-color="#A36808"/>
<stop offset="1" stop-color="#BF8800"/>
</linearGradient>
<linearGradient id="paint21_linear_0_1" x1="108.16" y1="33.4674" x2="108.16" y2="19.9977" gradientUnits="userSpaceOnUse">
<stop stop-color="#E8B048"/>
<stop offset="1" stop-color="#C27C0C"/>
</linearGradient>
<linearGradient id="paint22_linear_0_1" x1="110.295" y1="30.2446" x2="110.295" y2="9.75042" gradientUnits="userSpaceOnUse">
<stop stop-color="#E8B048"/>
<stop offset="1" stop-color="#8F6B09"/>
</linearGradient>
<linearGradient id="paint23_linear_0_1" x1="109.86" y1="7.47329" x2="168.65" y2="7.47329" gradientUnits="userSpaceOnUse">
<stop stop-color="#6B4200"/>
<stop offset="1" stop-color="#A87219"/>
</linearGradient>
<linearGradient id="paint24_linear_0_1" x1="109.86" y1="32.5221" x2="168.65" y2="32.5221" gradientUnits="userSpaceOnUse">
<stop stop-color="#D69705"/>
<stop offset="1" stop-color="#FFDD6E"/>
</linearGradient>
<linearGradient id="paint25_linear_0_1" x1="168.651" y1="32.5221" x2="227.44" y2="32.5221" gradientUnits="userSpaceOnUse">
<stop stop-color="#FFF5B0"/>
<stop offset="1" stop-color="#F5D36C"/>
</linearGradient>
<linearGradient id="paint26_linear_0_1" x1="168.651" y1="7.47328" x2="227.44" y2="7.47328" gradientUnits="userSpaceOnUse">
<stop stop-color="#BF8800"/>
<stop offset="1" stop-color="#A36808"/>
</linearGradient>
<linearGradient id="paint27_linear_0_1" x1="227.006" y1="30.2446" x2="227.006" y2="9.75042" gradientUnits="userSpaceOnUse">
<stop stop-color="#E8B048"/>
<stop offset="1" stop-color="#8F6B09"/>
</linearGradient>
<linearGradient id="paint28_linear_0_1" x1="168.65" y1="34.5853" x2="168.65" y2="5.40958" gradientUnits="userSpaceOnUse">
<stop stop-color="#700000"/>
<stop offset="1" stop-color="#A60000"/>
</linearGradient>
<radialGradient id="paint29_radial_0_1" cx="0" cy="0" r="1" gradientUnits="userSpaceOnUse" gradientTransform="translate(168.65 8.50336) scale(56.0099 70.53)">
<stop stop-color="#FFA0A0"/>
<stop offset="1"/>
</radialGradient>
<linearGradient id="paint30_linear_0_1" x1="168.65" y1="31.8438" x2="168.65" y2="8.1514" gradientUnits="userSpaceOnUse">
<stop stop-color="#700000"/>
<stop offset="1" stop-color="#A60000"/>
</linearGradient>
<linearGradient id="paint31_linear_0_1" x1="167.692" y1="15.6255" x2="167.692" y2="24.9437" gradientUnits="userSpaceOnUse">
<stop stop-color="#FFFCEE"/>
<stop offset="1" stop-color="#FFEDA2"/>
</linearGradient>
</defs>
</svg>
