<svg width="21" height="20" viewBox="0 0 21 20" fill="none" xmlns="http://www.w3.org/2000/svg">
<path fill-rule="evenodd" clip-rule="evenodd" d="M10 0C15.5346 0 20 4.46541 20 10C20 15.5346 15.5346 20 10 20C4.46541 20 0 15.5346 0 10C0 4.46541 4.46541 0 10 0Z" fill="url(#paint0_linear_342_4613)"/>
<path fill-rule="evenodd" clip-rule="evenodd" d="M2.64151 10C2.64151 5.91195 5.97484 2.57862 10.0629 2.57862C14.1509 2.57862 17.4843 5.91195 17.4843 10C17.8616 8.86792 19.6855 8.67924 20.0629 10C20.0629 4.46541 15.5975 0 10.0629 0C4.46541 0 0 4.46541 0 10C0.440252 8.67924 2.20126 8.86792 2.64151 10Z" fill="url(#paint1_linear_342_4613)"/>
<path fill-rule="evenodd" clip-rule="evenodd" d="M9.81134 2.45282C13.8994 2.45282 17.2327 5.78615 17.2327 9.8742C17.2327 13.9623 13.8994 17.2956 9.81134 17.2956C5.72329 17.2956 2.38995 13.8994 2.38995 9.81131C2.38995 5.72326 5.72329 2.45282 9.81134 2.45282Z" fill="#F7E984"/>
<path fill-rule="evenodd" clip-rule="evenodd" d="M9.99997 2.64154C14.088 2.64154 17.4214 5.97487 17.4214 10.0629C17.4214 14.151 14.088 17.4843 9.99997 17.4843C5.91192 17.4843 2.57858 14.151 2.57858 10.0629C2.64148 5.91198 5.91192 2.64154 9.99997 2.64154Z" fill="url(#paint2_radial_342_4613)"/>
<path fill-rule="evenodd" clip-rule="evenodd" d="M3.89934 14.2138L14.2138 3.89937C13.0188 3.08176 11.5723 2.57861 9.99997 2.57861C9.37104 2.57861 8.7421 2.64151 8.11317 2.83019L2.83016 8.1132C2.70437 8.74213 2.57858 9.30817 2.57858 10C2.64148 11.5723 3.08173 13.0189 3.89934 14.2138Z" fill="url(#paint3_radial_342_4613)" fill-opacity="0.5"/>
<path fill-rule="evenodd" clip-rule="evenodd" d="M16.7924 7.35848L7.35848 16.7924L7.2327 16.8553C7.98741 17.1698 8.86792 17.3585 9.68553 17.3585L9.87421 17.1698L17.1698 9.87421L17.3585 9.68553C17.2956 8.80502 17.1698 7.98741 16.8553 7.2327L16.7924 7.35848Z" fill="#FFECA0" fill-opacity="0.6"/>
<path fill-rule="evenodd" clip-rule="evenodd" d="M10 0.251572C15.3459 0.251572 19.7484 4.59119 19.7484 10C19.7484 15.3459 15.4088 19.7484 10 19.7484C4.65409 19.7484 0.251572 15.4088 0.251572 10C0.251572 4.65409 4.65409 0.251572 10 0.251572ZM10 0C15.5346 0 20 4.46541 20 10C20 15.5346 15.5346 20 10 20C4.46541 20 0 15.5346 0 10C0 4.46541 4.46541 0 10 0Z" fill="url(#paint4_linear_342_4613)"/>
<path fill-rule="evenodd" clip-rule="evenodd" d="M0.503113 7.86162C1.82387 3.64778 5.59745 0.628915 9.99997 0.628915C14.4025 0.628915 18.1761 3.64778 19.4968 7.86162C18.4905 3.522 14.6541 0.251556 9.99997 0.251556C5.34588 0.251556 1.5094 3.522 0.503113 7.86162Z" fill="#F7E984"/>
<path fill-rule="evenodd" clip-rule="evenodd" d="M9.5527 6.63233C9.50332 6.64483 9.4359 6.67343 9.40289 6.6959C9.3699 6.71839 8.61047 7.46728 7.71528 8.36013C6.40629 9.66568 6.0794 10.0007 6.04554 10.0716C5.98876 10.1905 5.98407 10.4683 6.03714 10.5702C6.07845 10.6495 9.33795 13.9078 9.4134 13.9452C9.67219 14.0733 10.0191 13.9677 10.141 13.7237C10.2224 13.5606 10.2235 13.3729 10.1439 13.2147C10.1186 13.1644 9.85689 12.8876 9.38016 12.4068C8.98129 12.0045 8.53811 11.5554 8.3953 11.4087L8.13564 11.1419V11.0588C8.13564 10.9878 8.14436 10.967 8.19556 10.9158L8.25548 10.8559H11.3647C13.5095 10.8559 14.5063 10.85 14.5785 10.8369C14.7603 10.8039 14.9041 10.6916 14.9778 10.525C15.117 10.2104 14.92 9.84178 14.5812 9.78277C14.5015 9.76888 13.5629 9.76317 11.3621 9.76317H8.25548L8.19556 9.70325C8.14405 9.65174 8.13564 9.63145 8.13564 9.55866V9.474L9.12868 8.47742C9.67485 7.9293 10.1381 7.45308 10.1581 7.41915C10.1782 7.38522 10.204 7.30905 10.2155 7.24989C10.2902 6.86679 9.93488 6.53575 9.5527 6.63233Z" fill="#F7E984"/>
<path fill-rule="evenodd" clip-rule="evenodd" d="M9.5527 6.01695C9.50332 6.02944 9.4359 6.05805 9.40289 6.08052C9.3699 6.10301 8.61047 6.85189 7.71528 7.74474C6.40629 9.05029 6.0794 9.38534 6.04554 9.45621C5.98876 9.57507 5.98407 9.85286 6.03714 9.9548C6.07845 10.0341 9.33795 13.2924 9.4134 13.3298C9.67219 13.4579 10.0191 13.3523 10.141 13.1083C10.2224 12.9452 10.2235 12.7575 10.1439 12.5994C10.1186 12.5491 9.85689 12.2722 9.38016 11.7914C8.98129 11.3892 8.53811 10.94 8.3953 10.7933L8.13564 10.5265V10.4434C8.13564 10.3724 8.14436 10.3516 8.19556 10.3004L8.25548 10.2405H11.3647C13.5095 10.2405 14.5063 10.2346 14.5785 10.2215C14.7603 10.1885 14.9041 10.0762 14.9778 9.90961C15.117 9.59502 14.92 9.22639 14.5812 9.16739C14.5015 9.1535 13.5629 9.14779 11.3621 9.14779H8.25548L8.19556 9.08786C8.14405 9.03635 8.13564 9.01606 8.13564 8.94328V8.85861L9.12868 7.86203C9.67485 7.31391 10.1381 6.83769 10.1581 6.80376C10.1782 6.76984 10.204 6.69366 10.2155 6.6345C10.2902 6.2514 9.93488 5.92036 9.5527 6.01695Z" fill="#BB6C27"/>
<defs>
<linearGradient id="paint0_linear_342_4613" x1="10.0022" y1="20.0006" x2="10.0022" y2="0.0169186" gradientUnits="userSpaceOnUse">
<stop stop-color="#DE8B00"/>
<stop offset="1" stop-color="#FFC75E"/>
</linearGradient>
<linearGradient id="paint1_linear_342_4613" x1="10.0022" y1="10.0088" x2="10.0022" y2="0.0169187" gradientUnits="userSpaceOnUse">
<stop stop-color="#FFB805"/>
<stop offset="1" stop-color="#FFE89C"/>
</linearGradient>
<radialGradient id="paint2_radial_342_4613" cx="0" cy="0" r="1" gradientUnits="userSpaceOnUse" gradientTransform="translate(6.51537 3.57997) scale(16.4059)">
<stop stop-color="#FFEEB8"/>
<stop offset="1" stop-color="#FFBF00"/>
</radialGradient>
<radialGradient id="paint3_radial_342_4613" cx="0" cy="0" r="1" gradientUnits="userSpaceOnUse" gradientTransform="translate(7.3194 -0.737299) scale(16.555)">
<stop stop-color="#FFFD9E"/>
<stop offset="1" stop-color="#FFFD9E"/>
</radialGradient>
<linearGradient id="paint4_linear_342_4613" x1="10.0022" y1="20.0006" x2="10.0022" y2="0.0169186" gradientUnits="userSpaceOnUse">
<stop stop-color="#CF8000"/>
<stop offset="1" stop-color="#F5B133"/>
</linearGradient>
</defs>
</svg>
