<svg width="50" height="50" viewBox="0 0 50 50" fill="none" xmlns="http://www.w3.org/2000/svg">
<g opacity="0.2">
<path d="M24.0385 49.3007C36.9042 49.3007 47.3339 38.871 47.3339 26.0052C47.3339 13.1395 36.9042 2.70979 24.0385 2.70979C11.1727 2.70979 0.743011 13.1395 0.743011 26.0052C0.743011 38.871 11.1727 49.3007 24.0385 49.3007Z" fill="#8A6E00"/>
</g>
<path d="M25 50C38.8071 50 50 38.8071 50 25C50 11.1929 38.8071 0 25 0C11.1929 0 0 11.1929 0 25C0 38.8071 11.1929 50 25 50Z" fill="url(#paint0_linear_402_284)"/>
<path d="M25 47.9458C37.6727 47.9458 47.9458 37.6726 47.9458 25C47.9458 12.3274 37.6727 2.05419 25 2.05419C12.3274 2.05419 2.05423 12.3274 2.05423 25C2.05423 37.6726 12.3274 47.9458 25 47.9458Z" fill="url(#paint1_linear_402_284)"/>
<path d="M47.0717 25C47.0717 37.1941 37.1941 47.0717 25 47.0717C12.806 47.0717 2.92834 37.1941 2.92834 25C2.92834 12.8496 12.806 2.97202 25 2.97202C37.1941 2.97202 47.0717 12.8496 47.0717 25Z" fill="#C88D8D"/>
<path d="M20.7079 18.645L23.3269 21.7998L23.2674 27.8117L20.6484 24.6569L20.7079 18.645Z" fill="url(#paint2_linear_402_284)"/>
<path d="M27.2555 19.776C26.6603 19.0617 25.5889 18.7046 24.0413 18.7046H20.7079L23.327 21.8593H26.6603C28.2079 21.8593 29.2794 22.2165 29.8746 22.9307L27.2555 19.776Z" fill="url(#paint3_linear_402_284)"/>
<path d="M20.5888 35.4903L23.1484 38.5855H17.196L14.5769 35.4903H20.5888Z" fill="url(#paint4_linear_402_284)" fill-opacity="0.4"/>
<path d="M20.6484 29.776L23.2079 32.8712L23.1484 38.5855L20.5889 35.4903L20.6484 29.776Z" fill="url(#paint5_linear_402_284)" fill-opacity="0.4"/>
<path d="M36.4222 23.8831C36.4222 23.8236 36.4222 23.8236 36.4222 23.7641C36.4222 23.645 36.4222 23.5855 36.3627 23.4665C36.3627 23.4069 36.3627 23.3474 36.3627 23.2284C36.3627 23.0498 36.3031 22.8712 36.2436 22.6926C36.2436 22.6331 36.2436 22.6331 36.2436 22.5736C36.1841 22.395 36.1246 22.1569 36.065 21.9784C36.065 21.9188 36.0055 21.8593 36.0055 21.7998C35.946 21.6807 35.8865 21.5022 35.8269 21.3831C35.8269 21.3236 35.7674 21.2641 35.7079 21.2045C35.6484 21.0855 35.5888 20.9665 35.5293 20.8474C35.4698 20.7879 35.4698 20.7284 35.4103 20.6688C35.3508 20.5498 35.2912 20.4307 35.1722 20.3117C35.1127 20.2522 35.1127 20.1926 35.0531 20.1331C34.9341 19.9545 34.815 19.8355 34.696 19.6569L32.0769 16.5022C32.196 16.6807 32.315 16.7998 32.4341 16.9784C32.4936 17.0379 32.4936 17.0974 32.5531 17.1569C32.6127 17.276 32.6722 17.395 32.7912 17.5141C32.8507 17.5736 32.8507 17.6331 32.9103 17.6926C32.9698 17.8117 33.0293 17.9307 33.0888 18.0498C33.1484 18.1093 33.1484 18.1688 33.2079 18.2284C33.2674 18.3474 33.3269 18.526 33.3865 18.645C33.3865 18.7045 33.446 18.7641 33.446 18.8236C33.5055 19.0022 33.565 19.2403 33.6246 19.4188C33.6246 19.4784 33.6246 19.4784 33.6246 19.5379C33.6841 19.7165 33.6841 19.895 33.7436 20.0736C33.7436 20.1331 33.7436 20.1926 33.7436 20.3117C33.7436 20.4307 33.8031 20.5498 33.8031 20.6688C33.8031 20.9665 33.8627 21.2641 33.8627 21.5617C33.8627 21.8593 33.8627 22.0974 33.8031 22.395C33.8031 22.4545 33.8031 22.5141 33.8031 22.6331C33.8031 22.8117 33.7436 23.0498 33.6841 23.2284C33.6841 23.2879 33.6841 23.3474 33.6246 23.4069C33.565 23.645 33.5055 23.8831 33.446 24.1212C33.446 24.1807 33.3865 24.1807 33.3865 24.2403C33.3269 24.4188 33.2674 24.6569 33.1484 24.8355C33.1484 24.895 33.0888 24.9545 33.0888 25.0141C32.9698 25.2522 32.8508 25.4307 32.7317 25.6093C32.6722 25.6688 32.6722 25.7284 32.6127 25.7879C32.4936 25.9665 32.4341 26.0855 32.315 26.2641C32.2555 26.3236 32.196 26.3831 32.1365 26.4426C32.0769 26.5617 31.9579 26.6212 31.8984 26.7403C31.7793 26.8593 31.6603 27.0379 31.4817 27.1569C31.4222 27.2165 31.3031 27.3355 31.2436 27.395C31.065 27.5141 30.946 27.6926 30.7674 27.8117C30.7079 27.8712 30.5888 27.9307 30.5293 27.9903C30.2912 28.1688 29.9936 28.3474 29.696 28.4665C29.696 28.4665 29.6365 28.4665 29.6365 28.526C29.3984 28.645 29.1008 28.7641 28.8031 28.8831C28.6841 28.9426 28.6246 28.9426 28.5055 29.0022C28.2674 29.0617 28.0888 29.1807 27.8507 29.2403C27.7317 29.2998 27.6127 29.2998 27.4936 29.3593C27.2555 29.4188 27.0769 29.4784 26.8388 29.5379C26.7198 29.5379 26.6008 29.5974 26.4222 29.5974C26.1841 29.6569 25.946 29.6569 25.6484 29.7165C25.5293 29.7165 25.4103 29.7165 25.2912 29.776C24.9341 29.8355 24.5174 29.8355 24.1008 29.8355H20.5293L23.1484 32.9903H26.8388C27.196 32.9903 27.5531 32.9903 27.9103 32.9307C28.0293 32.9307 28.1484 32.9307 28.2674 32.8712C28.5055 32.8712 28.8031 32.8117 29.0412 32.7522C29.1603 32.7522 29.2793 32.6926 29.4579 32.6926C29.696 32.6331 29.9341 32.5736 30.1127 32.5141C30.2317 32.4545 30.3508 32.4545 30.4698 32.395C30.7079 32.3355 30.8865 32.276 31.1246 32.1569C31.2436 32.0974 31.3627 32.0974 31.4222 32.0379C31.7198 31.9188 31.9579 31.7998 32.2555 31.6807C32.2555 31.6807 32.315 31.6807 32.315 31.6212C32.6127 31.4426 32.8508 31.3236 33.1484 31.145C33.2079 31.0855 33.3269 31.026 33.3865 30.9665C33.565 30.8474 33.7436 30.7284 33.8627 30.5498C33.9222 30.4903 34.0412 30.3712 34.1007 30.3117C34.2198 30.1926 34.3984 30.0141 34.5174 29.895C34.5769 29.8355 34.6365 29.8355 34.6365 29.776C34.696 29.7165 34.696 29.6569 34.7555 29.5974C34.815 29.5379 34.8746 29.4784 34.9341 29.4188C35.0531 29.2998 35.1722 29.1212 35.2317 28.9426C35.2912 28.8831 35.2912 28.8236 35.3508 28.7641C35.3508 28.7641 35.3508 28.7045 35.4103 28.7045C35.5293 28.526 35.5889 28.3474 35.7079 28.1093C35.7079 28.0498 35.7674 27.9903 35.7674 27.9307C35.8269 27.8712 35.8269 27.7522 35.8865 27.6926C35.946 27.5736 35.946 27.4545 36.0055 27.395C36.0055 27.3355 36.065 27.3355 36.065 27.276C36.1246 27.0974 36.1841 26.8593 36.2436 26.6807C36.2436 26.6212 36.2436 26.6212 36.2436 26.5617C36.2436 26.5022 36.2436 26.4426 36.3031 26.3831C36.3627 26.2045 36.3627 25.9665 36.4222 25.7879C36.4222 25.7284 36.4222 25.6688 36.4222 25.5498C36.4222 25.4903 36.4222 25.4307 36.4222 25.4307C36.4222 25.1926 36.4222 24.9545 36.4817 24.776C36.4817 24.4784 36.4817 24.1807 36.4222 23.8831Z" fill="url(#paint6_linear_402_284)" fill-opacity="0.4"/>
<path d="M24.3389 13.5855C30.2317 13.5855 33.9222 16.6807 33.8627 21.6807C33.8031 26.5617 29.9936 29.776 24.1603 29.776H20.5889L20.5293 35.4903H14.5174L14.696 13.5855H24.3389ZM23.9817 24.6569C26.5412 24.6569 27.7912 23.645 27.8508 21.6807C27.8508 19.6569 26.6008 18.645 24.0412 18.645H20.7079L20.6484 24.6569H23.9817Z" fill="url(#paint7_linear_402_284)"/>
<path d="M14.7555 35.6093L14.7555 13.5855H24.3389C30.2912 13.5855 33.9817 16.6807 33.9817 21.7403C33.9817 26.6807 30.1722 29.8355 24.3389 29.8355H20.7674V35.5498H14.7555V35.6093ZM24.1008 24.7165C26.6603 24.7165 27.9103 23.7045 27.9103 21.7403C27.9103 19.7165 26.6008 18.7045 24.1008 18.7045H20.7674V24.7165H24.1008Z" fill="url(#paint8_linear_402_284)"/>
<path d="M33.446 21.7403C33.446 26.3831 29.9936 29.2403 24.3984 29.2403H20.2317V34.9546H15.4103L15.4103 14.1807H24.3984C29.9341 14.1807 33.446 17.0379 33.446 21.7403ZM28.565 21.7403C28.565 19.4784 27.0769 18.1093 24.1603 18.1093H20.1722V25.3117H24.1008C27.077 25.3117 28.565 24.0022 28.565 21.7403Z" fill="url(#paint9_linear_402_284)"/>
<path d="M33.446 21.7403C33.446 26.3831 29.9936 29.2403 24.3984 29.2403H20.2317V34.9546H15.4103L15.4103 14.1807H24.3984C29.9341 14.1807 33.446 17.0379 33.446 21.7403ZM28.565 21.7403C28.565 19.4784 27.0769 18.1093 24.1603 18.1093H20.1722V25.3117H24.1008C27.0769 25.3117 28.565 24.0022 28.565 21.7403Z" stroke="url(#paint10_linear_402_284)" stroke-width="0.5024" stroke-miterlimit="10"/>
<path opacity="0.47" d="M33.446 21.7403C33.446 26.3831 29.9936 29.2403 24.3984 29.2403H20.2317V34.9546H15.4103L15.4103 14.1807H24.3984C29.9341 14.1807 33.446 17.0379 33.446 21.7403ZM28.565 21.7403C28.565 19.4784 27.0769 18.1093 24.1603 18.1093H20.1722V25.3117H24.1008C27.077 25.3117 28.565 24.0022 28.565 21.7403Z" fill="url(#paint11_linear_402_284)"/>
<defs>
<linearGradient id="paint0_linear_402_284" x1="44.0713" y1="5.96385" x2="7.20717" y2="42.828" gradientUnits="userSpaceOnUse">
<stop stop-color="#FFFB90"/>
<stop offset="0.1415" stop-color="#FBEA78"/>
<stop offset="0.2392" stop-color="#F8DC65"/>
<stop offset="0.2703" stop-color="#E6C758"/>
<stop offset="0.3368" stop-color="#C5A041"/>
<stop offset="0.3979" stop-color="#AD8330"/>
<stop offset="0.451" stop-color="#9E7226"/>
<stop offset="0.4902" stop-color="#996C22"/>
<stop offset="0.52" stop-color="#9D7126"/>
<stop offset="0.5575" stop-color="#AA8131"/>
<stop offset="0.5991" stop-color="#BE9B42"/>
<stop offset="0.6434" stop-color="#DABE5B"/>
<stop offset="0.6865" stop-color="#FBE878"/>
<stop offset="0.7724" stop-color="#FFFFAA"/>
<stop offset="0.8333" stop-color="#FBE878"/>
<stop offset="1" stop-color="#A4631B"/>
</linearGradient>
<linearGradient id="paint1_linear_402_284" x1="8.63924" y1="8.64707" x2="43.4113" y2="43.4191" gradientUnits="userSpaceOnUse">
<stop stop-color="#FFFB90"/>
<stop offset="0.1415" stop-color="#FBEA78"/>
<stop offset="0.2392" stop-color="#F8DC65"/>
<stop offset="0.2703" stop-color="#E6C758"/>
<stop offset="0.3368" stop-color="#C5A041"/>
<stop offset="0.3979" stop-color="#AD8330"/>
<stop offset="0.451" stop-color="#9E7226"/>
<stop offset="0.4902" stop-color="#996C22"/>
<stop offset="0.52" stop-color="#9D7126"/>
<stop offset="0.5575" stop-color="#AA8131"/>
<stop offset="0.5991" stop-color="#BE9B42"/>
<stop offset="0.6434" stop-color="#DABE5B"/>
<stop offset="0.6865" stop-color="#FBE878"/>
<stop offset="0.7724" stop-color="#FFFFAA"/>
<stop offset="0.8333" stop-color="#FBE878"/>
<stop offset="1" stop-color="#A4631B"/>
</linearGradient>
<linearGradient id="paint2_linear_402_284" x1="20.6726" y1="23.2324" x2="23.3194" y2="23.2324" gradientUnits="userSpaceOnUse">
<stop stop-color="#472005"/>
<stop offset="0.8871" stop-color="#723F01"/>
</linearGradient>
<linearGradient id="paint3_linear_402_284" x1="20.7276" y1="20.7803" x2="29.8343" y2="20.7803" gradientUnits="userSpaceOnUse">
<stop stop-color="#472005"/>
<stop offset="0.8871" stop-color="#723F01"/>
</linearGradient>
<linearGradient id="paint4_linear_402_284" x1="14.5791" y1="37.0348" x2="23.1656" y2="37.0348" gradientUnits="userSpaceOnUse">
<stop stop-color="#472005"/>
<stop offset="0.8871" stop-color="#723F01"/>
</linearGradient>
<linearGradient id="paint5_linear_402_284" x1="20.5737" y1="34.1791" x2="23.2179" y2="34.1791" gradientUnits="userSpaceOnUse">
<stop stop-color="#472005"/>
<stop offset="0.8871" stop-color="#723F01"/>
</linearGradient>
<linearGradient id="paint6_linear_402_284" x1="20.6259" y1="24.7554" x2="36.477" y2="24.7554" gradientUnits="userSpaceOnUse">
<stop stop-color="#472005"/>
<stop offset="0.8871" stop-color="#723F01"/>
</linearGradient>
<linearGradient id="paint7_linear_402_284" x1="14.5792" y1="24.5227" x2="33.8853" y2="24.5227" gradientUnits="userSpaceOnUse">
<stop stop-color="#472005"/>
<stop offset="0.8871" stop-color="#723F01"/>
</linearGradient>
<linearGradient id="paint8_linear_402_284" x1="24.391" y1="35.5925" x2="24.391" y2="13.576" gradientUnits="userSpaceOnUse">
<stop stop-color="#472005"/>
<stop offset="0.0183773" stop-color="#643B14"/>
<stop offset="0.0459878" stop-color="#885C26"/>
<stop offset="0.0770681" stop-color="#A87B37"/>
<stop offset="0.1114" stop-color="#C49445"/>
<stop offset="0.1502" stop-color="#DAA850"/>
<stop offset="0.1956" stop-color="#EBB859"/>
<stop offset="0.2516" stop-color="#F6C35F"/>
<stop offset="0.3302" stop-color="#FDC962"/>
<stop offset="0.5484" stop-color="#FFCB63"/>
<stop offset="0.6809" stop-color="#FFD988"/>
<stop offset="0.8078" stop-color="#FEE3A5"/>
<stop offset="0.9182" stop-color="#FEEAB6"/>
<stop offset="1" stop-color="#FEECBC"/>
</linearGradient>
<linearGradient id="paint9_linear_402_284" x1="24.3911" y1="34.9945" x2="24.3911" y2="14.1741" gradientUnits="userSpaceOnUse">
<stop stop-color="#FFDF9E"/>
<stop offset="0.3495" stop-color="#723F01"/>
<stop offset="0.5108" stop-color="#472005"/>
<stop offset="0.5158" stop-color="#643B14"/>
<stop offset="0.5234" stop-color="#885C26"/>
<stop offset="0.5319" stop-color="#A87B37"/>
<stop offset="0.5413" stop-color="#C49445"/>
<stop offset="0.552" stop-color="#DAA850"/>
<stop offset="0.5644" stop-color="#EBB859"/>
<stop offset="0.5798" stop-color="#F6C35F"/>
<stop offset="0.6014" stop-color="#FDC962"/>
<stop offset="0.6613" stop-color="#FFCB63"/>
<stop offset="0.7607" stop-color="#FFD988"/>
<stop offset="0.8558" stop-color="#FEE3A5"/>
<stop offset="0.9387" stop-color="#FEEAB6"/>
<stop offset="1" stop-color="#FEECBC"/>
</linearGradient>
<linearGradient id="paint10_linear_402_284" x1="24.3911" y1="35.144" x2="24.3911" y2="14.0246" gradientUnits="userSpaceOnUse">
<stop stop-color="#472005"/>
<stop offset="0.0183773" stop-color="#643B14"/>
<stop offset="0.0459878" stop-color="#885C26"/>
<stop offset="0.0770681" stop-color="#A87B37"/>
<stop offset="0.1114" stop-color="#C49445"/>
<stop offset="0.1502" stop-color="#DAA850"/>
<stop offset="0.1956" stop-color="#EBB859"/>
<stop offset="0.2516" stop-color="#F6C35F"/>
<stop offset="0.3302" stop-color="#FDC962"/>
<stop offset="0.5484" stop-color="#FFCB63"/>
<stop offset="0.6809" stop-color="#FFD988"/>
<stop offset="0.8078" stop-color="#FEE3A5"/>
<stop offset="0.9182" stop-color="#FEEAB6"/>
<stop offset="1" stop-color="#FEECBC"/>
</linearGradient>
<linearGradient id="paint11_linear_402_284" x1="15.3638" y1="24.5843" x2="33.4183" y2="24.5843" gradientUnits="userSpaceOnUse">
<stop stop-color="#FEECBC"/>
<stop offset="0.0613243" stop-color="#FEEAB6"/>
<stop offset="0.1442" stop-color="#FEE3A5"/>
<stop offset="0.2393" stop-color="#FFD988"/>
<stop offset="0.3387" stop-color="#FFCB63"/>
<stop offset="0.3986" stop-color="#FDC962"/>
<stop offset="0.4202" stop-color="#F6C35F"/>
<stop offset="0.4356" stop-color="#EBB859"/>
<stop offset="0.448" stop-color="#DAA850"/>
<stop offset="0.4587" stop-color="#C49445"/>
<stop offset="0.4681" stop-color="#A87B37"/>
<stop offset="0.4766" stop-color="#885C26"/>
<stop offset="0.4842" stop-color="#643B14"/>
<stop offset="0.4892" stop-color="#472005"/>
<stop offset="0.6505" stop-color="#723F01"/>
<stop offset="1" stop-color="#FFDF9E"/>
</linearGradient>
</defs>
</svg>
