<svg width="32" height="29" viewBox="0 0 32 29" fill="none" xmlns="http://www.w3.org/2000/svg">
<path d="M14.2476 7.72867L17.2047 11.2906L14.4492 17.8095L11.4922 14.2476L14.2476 7.72867Z" fill="url(#paint0_linear_342_2587)"/>
<path d="M9.14001 19.7585L12.0971 23.2531L9.94647 28.2936L7.05664 24.7317L9.14001 19.7585Z" fill="url(#paint1_linear_342_2587)"/>
<path d="M7.05664 24.7317L9.94647 28.2936H2.9571L6.10352e-05 24.7317H7.05664Z" fill="url(#paint2_linear_342_2587)"/>
<path d="M19.1536 19.7585L22.0434 23.2531H12.097L9.13995 19.7585H19.1536Z" fill="url(#paint3_linear_342_2587)"/>
<path d="M28.3608 24.7317L31.2506 28.2936H24.0596L21.1698 24.7317H28.3608Z" fill="url(#paint4_linear_342_2587)"/>
<path d="M31.2506 28.2935L28.3607 24.7316L17.4734 0L20.4305 3.56189L29.1672 23.5219L29.7049 24.7316L30.3097 26.143L31.2506 28.2935Z" fill="url(#paint5_linear_342_2587)"/>
<path d="M17.4734 0L28.2935 24.7316H21.1025L19.0864 19.6912H9.13995L7.05658 24.7316H0L11.2905 0H17.4734ZM11.4921 14.2476H16.9358L14.3148 7.72864L11.4921 14.2476Z" fill="url(#paint6_linear_342_2587)"/>
<path d="M21.5731 24.8661L19.4897 19.8256H9.47607L7.3927 24.8661H0.336121L11.425 0H17.6751L28.7641 24.8661H21.5731ZM17.2047 14.382L14.5165 7.79584L11.8283 14.382H17.2047Z" fill="url(#paint7_linear_342_2587)"/>
<path d="M19.9601 19.1536H9.00561L6.92223 24.194H1.34418L11.8282 0.672028H17.2047L27.6887 24.194H21.9763L19.9601 19.1536ZM18.2128 15.054L14.5165 6.04847L10.8202 15.054H18.2128Z" fill="url(#paint8_linear_342_2587)"/>
<path d="M19.9601 19.1536H9.00561L6.92223 24.194H1.34418L11.8282 0.672028H17.2047L27.6888 24.194H21.9763L19.9601 19.1536ZM18.2128 15.054L14.5165 6.04847L10.8202 15.054H18.2128Z" stroke="url(#paint9_linear_342_2587)" stroke-width="0.5024" stroke-miterlimit="10"/>
<path opacity="0.47" d="M19.9601 19.1536H9.00561L6.92223 24.194H1.34418L11.8282 0.672028H17.2047L27.6887 24.194H21.9763L19.9601 19.1536ZM18.2128 15.054L14.5165 6.04847L10.8202 15.054H18.2128Z" fill="url(#paint10_linear_342_2587)"/>
<defs>
<linearGradient id="paint0_linear_342_2587" x1="11.5097" y1="12.7833" x2="17.2019" y2="12.7833" gradientUnits="userSpaceOnUse">
<stop stop-color="#472005"/>
<stop offset="0.8871" stop-color="#723F01"/>
</linearGradient>
<linearGradient id="paint1_linear_342_2587" x1="7.04307" y1="24.0003" x2="12.0857" y2="24.0003" gradientUnits="userSpaceOnUse">
<stop stop-color="#472005"/>
<stop offset="0.8871" stop-color="#723F01"/>
</linearGradient>
<linearGradient id="paint2_linear_342_2587" x1="0.00248043" y1="26.5055" x2="9.96939" y2="26.5055" gradientUnits="userSpaceOnUse">
<stop stop-color="#472005"/>
<stop offset="0.8871" stop-color="#723F01"/>
</linearGradient>
<linearGradient id="paint3_linear_342_2587" x1="9.15931" y1="21.4952" x2="22.0624" y2="21.4952" gradientUnits="userSpaceOnUse">
<stop stop-color="#472005"/>
<stop offset="0.8871" stop-color="#723F01"/>
</linearGradient>
<linearGradient id="paint4_linear_342_2587" x1="21.1606" y1="26.5055" x2="31.2607" y2="26.5055" gradientUnits="userSpaceOnUse">
<stop stop-color="#472005"/>
<stop offset="0.8871" stop-color="#723F01"/>
</linearGradient>
<linearGradient id="paint5_linear_342_2587" x1="17.4919" y1="14.1462" x2="31.2595" y2="14.1462" gradientUnits="userSpaceOnUse">
<stop stop-color="#472005"/>
<stop offset="0.8871" stop-color="#723F01"/>
</linearGradient>
<linearGradient id="paint6_linear_342_2587" x1="0.0024194" y1="12.3817" x2="28.3343" y2="12.3817" gradientUnits="userSpaceOnUse">
<stop stop-color="#472005"/>
<stop offset="0.8871" stop-color="#723F01"/>
</linearGradient>
<linearGradient id="paint7_linear_342_2587" x1="14.5612" y1="24.8784" x2="14.5612" y2="0.0206333" gradientUnits="userSpaceOnUse">
<stop stop-color="#472005"/>
<stop offset="0.0183773" stop-color="#643B14"/>
<stop offset="0.0459878" stop-color="#885C26"/>
<stop offset="0.0770681" stop-color="#A87B37"/>
<stop offset="0.1114" stop-color="#C49445"/>
<stop offset="0.1502" stop-color="#DAA850"/>
<stop offset="0.1956" stop-color="#EBB859"/>
<stop offset="0.2516" stop-color="#F6C35F"/>
<stop offset="0.3302" stop-color="#FDC962"/>
<stop offset="0.5484" stop-color="#FFCB63"/>
<stop offset="0.6809" stop-color="#FFD988"/>
<stop offset="0.8078" stop-color="#FEE3A5"/>
<stop offset="0.9182" stop-color="#FEEAB6"/>
<stop offset="1" stop-color="#FEECBC"/>
</linearGradient>
<linearGradient id="paint8_linear_342_2587" x1="14.5605" y1="24.203" x2="14.5605" y2="0.695819" gradientUnits="userSpaceOnUse">
<stop stop-color="#FFDF9E"/>
<stop offset="0.3495" stop-color="#723F01"/>
<stop offset="0.5108" stop-color="#472005"/>
<stop offset="0.5158" stop-color="#643B14"/>
<stop offset="0.5234" stop-color="#885C26"/>
<stop offset="0.5319" stop-color="#A87B37"/>
<stop offset="0.5413" stop-color="#C49445"/>
<stop offset="0.552" stop-color="#DAA850"/>
<stop offset="0.5644" stop-color="#EBB859"/>
<stop offset="0.5798" stop-color="#F6C35F"/>
<stop offset="0.6014" stop-color="#FDC962"/>
<stop offset="0.6613" stop-color="#FFCB63"/>
<stop offset="0.7607" stop-color="#FFD988"/>
<stop offset="0.8558" stop-color="#FEE3A5"/>
<stop offset="0.9387" stop-color="#FEEAB6"/>
<stop offset="1" stop-color="#FEECBC"/>
</linearGradient>
<linearGradient id="paint9_linear_342_2587" x1="14.5607" y1="24.3719" x2="14.5607" y2="0.526997" gradientUnits="userSpaceOnUse">
<stop stop-color="#472005"/>
<stop offset="0.0183773" stop-color="#643B14"/>
<stop offset="0.0459878" stop-color="#885C26"/>
<stop offset="0.0770681" stop-color="#A87B37"/>
<stop offset="0.1114" stop-color="#C49445"/>
<stop offset="0.1502" stop-color="#DAA850"/>
<stop offset="0.1956" stop-color="#EBB859"/>
<stop offset="0.2516" stop-color="#F6C35F"/>
<stop offset="0.3302" stop-color="#FDC962"/>
<stop offset="0.5484" stop-color="#FFCB63"/>
<stop offset="0.6809" stop-color="#FFD988"/>
<stop offset="0.8078" stop-color="#FEE3A5"/>
<stop offset="0.9182" stop-color="#FEEAB6"/>
<stop offset="1" stop-color="#FEECBC"/>
</linearGradient>
<linearGradient id="paint10_linear_342_2587" x1="1.37959" y1="12.4494" x2="27.7414" y2="12.4494" gradientUnits="userSpaceOnUse">
<stop stop-color="#FEECBC"/>
<stop offset="0.0613243" stop-color="#FEEAB6"/>
<stop offset="0.1442" stop-color="#FEE3A5"/>
<stop offset="0.2393" stop-color="#FFD988"/>
<stop offset="0.3387" stop-color="#FFCB63"/>
<stop offset="0.3986" stop-color="#FDC962"/>
<stop offset="0.4202" stop-color="#F6C35F"/>
<stop offset="0.4356" stop-color="#EBB859"/>
<stop offset="0.448" stop-color="#DAA850"/>
<stop offset="0.4587" stop-color="#C49445"/>
<stop offset="0.4681" stop-color="#A87B37"/>
<stop offset="0.4766" stop-color="#885C26"/>
<stop offset="0.4842" stop-color="#643B14"/>
<stop offset="0.4892" stop-color="#472005"/>
<stop offset="0.6505" stop-color="#723F01"/>
<stop offset="1" stop-color="#FFDF9E"/>
</linearGradient>
</defs>
</svg>
