<svg width="32" height="38" viewBox="0 0 32 38" fill="none" xmlns="http://www.w3.org/2000/svg">
<path d="M2.86761 11.9853C6.47056 9.19118 6.3235 9.11765 9.48526 7.13235C12.5 5.22059 16.7647 0 16.7647 0C16.7647 0 17.2794 0.147059 18.3823 2.79412L3.89703 12.5L2.86761 11.9853Z" fill="url(#paint0_radial_342_4482)"/>
<path d="M2.86766 11.9853C6.54413 9.2647 6.39707 9.19118 9.55883 7.20588C12.6471 5.29412 16.8382 0.0735294 16.8382 0.0735294H16.7647V0.147059C16.7647 0.147059 16.9118 0.220588 17.1324 0.588235C17.4265 0.955882 17.7941 1.61765 18.3088 2.86765H18.3824V2.79412L3.89707 12.4265L2.86766 11.9853L3.89707 12.5735L18.4559 2.86765V2.79412C17.9412 1.47059 17.5 0.808824 17.2059 0.441176C16.9118 0.0735294 16.8382 0 16.7647 0C16.7647 0 16.6912 0.0735294 16.5441 0.220588C15.6618 1.25 12.1324 5.44118 9.4853 7.05882C6.32354 9.11765 6.4706 9.19118 2.86766 11.9853H2.79413H2.86766Z" fill="#F6862A"/>
<path d="M0.661765 13.9706C0.661765 13.9706 1.47059 12.3529 4.19118 11.6912C4.19118 11.6912 16.6912 2.86764 17.0588 1.17647C17.0588 1.17647 17.7941 2.42647 18.0147 3.38235L19.1176 1.98529L19.6324 2.94117L20.2941 2.42647L20.6618 3.38235L21.7647 2.20588L22.3529 3.30882L23.5294 2.5L24.2647 4.33823C24.2647 4.33823 14.7059 8.16176 10.4412 11.8382C9.41177 12.7941 6.98529 13.6029 6.98529 13.6029C6.98529 13.6029 0.441177 17.5 0.661765 13.9706Z" fill="url(#paint1_radial_342_4482)"/>
<path d="M0.661756 13.9706C0.808815 13.8235 1.69117 12.3529 4.19117 11.6912C4.19117 11.6912 7.2794 9.48529 10.4412 7.05882C12.0588 5.88235 13.6029 4.55882 14.8529 3.52941C15.4412 3.01471 15.9559 2.5 16.3971 2.13235C16.7647 1.69118 16.9853 1.39706 17.0588 1.17647H16.9853H16.9118C16.9118 1.17647 16.9853 1.25 17.0588 1.39706C17.2794 1.7647 17.7206 2.64706 17.8676 3.38235V3.45588L19.1176 2.05882L19.6323 3.0147L20.2941 2.5L20.6618 3.45588L21.7647 2.27941L22.3529 3.38235L23.5294 2.57353L24.2647 4.33823H24.3382V4.26471C24.3382 4.26471 14.7794 8.08823 10.5147 11.8382C9.99999 12.2794 9.11764 12.7206 8.38234 13.0882C8.0147 13.2353 7.72058 13.3824 7.42646 13.4559C7.20587 13.5294 7.05882 13.6029 7.05882 13.6029C7.05882 13.6029 6.98529 13.6029 6.91176 13.6765C6.61764 13.8235 5.80881 14.2647 4.85293 14.7059C3.89705 15.0735 2.86764 15.4412 2.05881 15.4412C1.61764 15.4412 1.32352 15.3676 1.10293 15.1471C0.882344 14.9265 0.735285 14.6324 0.735285 14.1176C0.661756 14.0441 0.661756 13.9706 0.661756 13.9706C0.588226 14.0441 0.588226 14.0441 0.588226 14.1176C0.588226 14.6324 0.735285 15 1.0294 15.2206C1.32352 15.4412 1.69117 15.5147 2.05881 15.5147C3.0147 15.5147 4.2647 15.0735 5.29411 14.5588C6.32352 14.1176 7.05882 13.6029 7.05882 13.6029V13.5294V13.6029C7.05882 13.6029 7.64705 13.3824 8.38234 13.0882C9.11764 12.7941 9.99999 12.3529 10.5147 11.8382C12.6471 10 16.0294 8.08823 18.9706 6.69118C20.4412 5.95588 21.7647 5.36765 22.7206 5C23.2353 4.77941 23.6029 4.63235 23.8971 4.48529C24.1176 4.41176 24.2647 4.33823 24.2647 4.33823H24.3382L23.5294 2.42647L22.3529 3.23529L21.7647 2.13235L20.7353 3.30882L20.3676 2.35294L19.7059 2.86765L19.1176 1.83823L17.8676 3.23529H17.9412H18.0147C17.7941 2.20588 17.0588 0.955881 17.0588 0.955881L16.9853 0.808823V0.955881C16.9118 1.17647 16.6912 1.47059 16.3235 1.91176C15 3.30882 11.9853 5.73529 9.2647 7.79412C7.94117 8.82353 6.61764 9.77941 5.66176 10.4412C5.22058 10.8088 4.7794 11.0294 4.55881 11.25C4.2647 11.4706 4.11764 11.5441 4.11764 11.5441V11.6176V11.5441C1.39705 12.2794 0.588226 13.8971 0.661756 13.9706Z" fill="#B7856A"/>
<path d="M0.661774 14.0441C0.661774 14.0441 1.39707 12.1324 4.11766 11.6176C4.11766 11.6176 5.58824 11.8382 6.4706 13.2353C6.4706 13.2353 3.01471 16.1765 1.25001 15.1471C0.735303 14.9265 0.661774 14.0441 0.661774 14.0441Z" fill="url(#paint2_radial_342_4482)"/>
<path d="M1.54412 13.0147C1.54412 13.0147 0.882355 14.9265 3.16177 14.5588C5.44118 14.1912 5.88235 12.5 5.88235 12.5L6.39706 13.2353C6.39706 13.2353 3.08824 16.0294 1.54412 15.2941C1.60933e-06 14.4853 1.25 13.0882 1.54412 13.0147Z" fill="url(#paint3_radial_342_4482)"/>
<path d="M0.882367 14.4853L0.808838 14.4118C0.882367 14.2647 2.86766 11.7647 4.7059 11.7647C5.14707 11.5441 16.5441 5 17.9412 3.30882L18.0147 3.38235C16.6177 5.14706 5.2206 11.6176 4.77943 11.9118C2.94119 11.9118 0.882367 14.4118 0.882367 14.4853Z" fill="#B7856A"/>
<path d="M1.25001 15L1.17648 14.9265C1.17648 14.9265 3.01472 12.4265 5.58825 12.0588C5.66178 11.9853 17.9412 4.77941 19.6324 2.94118L19.7059 3.01471C18.0147 4.85294 5.73531 12.1324 5.66178 12.2059C3.01472 12.5 1.25001 15 1.25001 15Z" fill="#B7856A"/>
<path d="M1.61766 15.2206L1.54413 15.1471C1.61766 15.0735 3.82354 12.5 5.80883 12.3529C5.95589 12.2059 7.86766 10.8088 10.9559 9.19118C14.4853 7.27941 20.1471 3.97059 20.7353 3.30882L20.8088 3.38235C20.1471 4.11765 14.1177 7.64706 11.0294 9.26471C7.79413 11.0294 5.88236 12.5 5.80883 12.5C3.89707 12.6471 1.69119 15.2206 1.61766 15.2206Z" fill="#B7856A"/>
<path d="M2.4265 15.2941L2.35297 15.2206C2.4265 15 4.26473 13.0147 6.1765 12.7206C6.32355 12.5735 8.89708 10.9559 10.9559 9.92648C15.2941 7.7206 20 5.2206 22.4265 3.16177L22.5 3.2353C20.0736 5.36766 15.3677 7.86766 11.0294 10.0735C8.97061 11.1029 6.32355 12.8677 6.25003 12.8677C4.33826 13.1618 2.50003 15.1471 2.4265 15.2941Z" fill="#B7856A"/>
<path d="M2.94116 11.9853C2.94116 11.9853 -0.661781 13.6765 1.17645 15.1471C2.64704 16.3971 6.5441 13.3088 6.5441 13.3088L13.9706 35.2206C13.9706 35.2206 12.3529 38.8235 7.42645 36.9118C7.42645 36.9118 0.514689 16.9118 0.147042 15.9559C-0.220605 14.9265 0.0735127 12.5735 2.94116 11.9853Z" fill="url(#paint4_radial_342_4482)"/>
<path d="M2.94118 11.9853C2.94118 11.9118 2.35294 12.2059 1.76471 12.6471C1.17647 13.0882 0.588235 13.6765 0.588235 14.2647C0.588235 14.5588 0.735294 14.9265 1.10294 15.2206C1.32353 15.4412 1.69118 15.5147 2.05882 15.5147C2.94118 15.5147 4.04412 15 5 14.4118C5.88235 13.8971 6.61765 13.3088 6.61765 13.3088V13.2353H6.54412L14.0441 35.1471H14.1176H14.0441C13.9706 35.2941 13.6765 35.8088 13.0882 36.3235C12.5 36.8382 11.5441 37.3529 10.2206 37.3529C9.48529 37.3529 8.60294 37.2059 7.64706 36.8382V36.9118H7.72059C7.72059 36.9118 0.808824 16.9118 0.441176 15.9559C0.367647 15.7353 0.294118 15.4412 0.294118 15.1471C0.294118 14.5588 0.441176 13.9706 0.882353 13.3823C1.10294 12.7206 1.83824 12.2794 2.94118 11.9853C1.83824 12.2059 1.10294 12.7206 0.661765 13.3088C0.147059 13.8971 0 14.5588 0 15.1471C0 15.4412 0.0735294 15.7353 0.147059 15.9559C0.367647 16.4706 2.13235 21.6912 3.89706 26.8382C5.66176 31.9853 7.42647 36.9853 7.42647 36.9853C8.45588 37.3529 9.33823 37.5 10.0735 37.5C11.5441 37.5 12.5 36.9118 13.1618 36.3235C13.75 35.7353 14.0441 35.2206 14.0441 35.1471L6.54412 13.1618L6.47059 13.2353C6.47059 13.2353 6.39706 13.2353 6.32353 13.3088C6.02941 13.5294 5.36765 14.0441 4.55882 14.4853C3.75 14.9265 2.79412 15.3676 2.05882 15.3676C1.69118 15.3676 1.39706 15.2941 1.17647 15.0735C0.808824 14.7794 0.661765 14.4853 0.661765 14.1912C0.661765 13.6029 1.17647 13.0882 1.76471 12.6471C2.05882 12.4265 2.35294 12.2794 2.57353 12.1323C2.64706 12.0588 2.79412 12.0588 2.79412 11.9853C2.86765 12.0588 2.94118 11.9853 2.94118 11.9853Z" fill="#F6862A"/>
<path d="M6.47057 13.3088C5.73528 12.0588 4.19116 11.6912 4.19116 11.6912V11.6176C4.19116 11.6176 5.80881 12.0588 6.5441 13.3088H6.47057Z" fill="#B7856A"/>
<path d="M4.77943 11.8382L4.33826 11.6176L5.88237 10.5882C18.9706 3.89705 16.9118 1.54411 16.9118 1.54411L16.9853 1.10294C16.9853 1.10294 17.7206 2.49999 17.9412 3.30882C17.9412 3.30882 16.5441 4.85294 4.77943 11.8382Z" fill="url(#paint5_radial_342_4482)"/>
<path d="M5.07355 11.9118C5.07355 11.9118 19.2647 4.4853 18.5294 2.64706L19.1177 2.13235L19.4853 2.94118C19.4853 2.94118 17.5 5.14706 12.5735 7.86765C7.64708 10.6618 5.44119 12.2059 5.44119 12.2059L5.07355 11.9118Z" fill="url(#paint6_radial_342_4482)"/>
<path d="M6.02942 12.6471C6.02942 12.6471 21.25 4.11764 20.5147 3.67647L21.7647 2.35294L22.2794 3.38235C22.2794 3.38235 18.3088 6.47058 11.5441 9.77941C10.4412 10.3676 6.10295 12.8676 6.10295 12.8676L6.02942 12.6471Z" fill="url(#paint7_radial_342_4482)"/>
<path d="M6.39709 13.0147C6.39709 13.0147 15.0736 7.79412 17.5736 6.76471C20 5.7353 24.0442 3.89706 23.3824 2.72059L23.5294 2.57353L24.3383 4.41177L6.69121 13.3088L6.39709 13.0147Z" fill="url(#paint8_radial_342_4482)"/>
<path d="M6.47058 13.3088C6.47058 13.3088 18.2353 5.58823 25 4.11765C25 4.11765 30.6618 25.8088 30.9559 27.3529C30.9559 27.3529 15.8823 33.6029 13.9706 35.2206L6.47058 13.3088Z" fill="url(#paint9_radial_342_4482)"/>
<path d="M6.47058 13.3088C6.47058 13.3823 6.69117 13.2353 6.98529 13.0147C9.33823 11.5441 19.1176 5.44117 24.9265 4.11764V4.04411H24.8529C24.8529 4.04411 24.9265 4.41176 25.0735 4.99999C26.1765 9.19117 30.5147 25.9559 30.8088 27.3529H30.8823V27.2794C30.8823 27.2794 27.1323 28.8235 23.0882 30.5882C21.1029 31.4706 19.0441 32.4265 17.3529 33.2353C15.6618 34.0441 14.3382 34.7059 13.8971 35.147V35.2206H13.9706L6.47058 13.3088L13.9706 35.2941L14.0441 35.2206C14.4853 34.8529 15.8088 34.1176 17.5 33.3088C20 32.0588 23.3823 30.5882 26.1765 29.4118C27.5735 28.8235 28.75 28.3088 29.6323 27.9412C30.0735 27.7941 30.4412 27.6471 30.6618 27.5C30.8823 27.4265 31.0294 27.3529 31.0294 27.3529H31.1029V27.2794C30.7353 25.7353 25.0735 4.04411 25.0735 4.04411V3.97058H25C21.6176 4.70588 16.9853 6.98529 13.2353 9.11764C9.41176 11.3235 6.47058 13.2353 6.47058 13.3088Z" fill="#EE7A23"/>
<path d="M25 4.19118C18.3088 5.66177 6.69116 13.3088 6.69116 13.3088L14.1176 35C15.9559 33.4559 30.8823 27.2059 30.8823 27.2059C30.5882 25.7353 25 4.19118 25 4.19118ZM15.2206 32.6471C1.69116 7.35294 24.0441 6.39706 24.0441 6.39706L29.3382 27.2059C23.6765 28.0882 16.0294 34.1177 15.2206 32.6471Z" fill="url(#paint10_radial_342_4482)"/>
<path d="M6.47058 13.3088C6.47058 13.3088 2.57352 16.3971 1.10294 15.1471C-0.735299 13.6765 2.86764 11.9853 2.86764 11.9853C0.0735248 12.5735 -0.220593 15 0.147054 15.9559C0.514701 16.9118 7.42647 36.9118 7.42647 36.9118C12.2794 38.75 13.9706 35.2206 13.9706 35.2206L6.47058 13.3088ZM9.19117 35.9559C8.38235 34.7059 5.88235 26.6176 4.77941 22.9412C3.60294 19.2647 2.49999 16.6912 3.45588 15.7353C4.41176 14.7794 5.44117 14.1912 5.44117 14.1912L6.17647 13.75L13.8971 35.4412C12.2794 37.1323 10.0735 37.2794 9.19117 35.9559Z" fill="url(#paint11_radial_342_4482)"/>
<path d="M2.35293 15.6618C2.35293 15.6618 1.17646 16.1765 3.23529 22.4265C5.5147 29.4853 7.79411 37.2059 10.3676 37.4265C10.3676 37.4265 9.41176 37.5 7.49999 36.9118L0.14705 15.8088C0.14705 15.8088 -0.220597 14.2647 1.0294 12.8676C1.0294 12.8676 -0.294126 14.4853 0.808815 15.3676C1.32352 15.8088 2.35293 15.6618 2.35293 15.6618Z" fill="url(#paint12_radial_342_4482)"/>
<path d="M25.5147 18.9706C25.5147 18.9706 28.75 26.7647 19.0441 29.7059C18.0882 30 25.9559 28.5294 27.2794 26.25C28.4559 23.9706 25.5147 18.9706 25.5147 18.9706Z" fill="url(#paint13_radial_342_4482)"/>
<path d="M3.08826 9.55882L4.1912 8.75C4.1912 8.75 5.88237 11.1029 6.02943 11.7647L5.58826 12.1324C5.58826 12.1324 4.41179 10.2941 3.08826 9.55882Z" fill="url(#paint14_linear_342_4482)"/>
<path d="M3.08824 9.55882L4.26471 8.74999V8.67647H4.19118C4.19118 8.67647 4.26471 8.82352 4.4853 9.04411C4.70589 9.41176 5.07353 9.92647 5.44118 10.4412C5.66177 11.0294 5.95589 11.4706 6.02942 11.7647H6.10295V11.6912L5.66177 12.0588V12.1323H5.7353C5.66177 12.0588 4.41177 10.2206 3.08824 9.55882C3.67647 9.92647 4.33824 10.5882 4.77942 11.1765C5 11.4706 5.22059 11.6912 5.36765 11.9118C5.44118 11.9853 5.51471 12.0588 5.51471 12.1323C5.51471 12.2059 5.58824 12.2059 5.58824 12.2059V12.2794L6.10295 11.7647C6.02942 11.5441 5.95589 11.3235 5.7353 10.9559C5.22059 9.99999 4.26471 8.67647 4.26471 8.67647V8.60294L3.01471 9.55882H3.08824Z" fill="#42403E"/>
<path d="M5.80884 8.16176C5.80884 8.16176 7.42648 10.5147 7.50001 11.25L8.23531 10.8088C8.23531 10.8088 7.94119 8.75 7.2059 7.86765L5.80884 8.16176Z" fill="url(#paint15_linear_342_4482)"/>
<path d="M5.8088 8.16178C5.73527 8.16178 5.88233 8.30883 6.02939 8.52942C6.24998 8.89707 6.61763 9.41178 6.91174 9.92648C7.20586 10.4412 7.42645 10.9559 7.49998 11.25V11.3235L8.3088 10.8088C8.3088 10.8088 8.23527 10.2941 8.08822 9.63236C7.94116 8.9706 7.64704 8.2353 7.27939 7.79413L5.8088 8.16178L7.20586 7.86766V7.79413H7.13233C7.49998 8.2353 7.7941 8.9706 7.94116 9.63236C8.01469 9.92648 8.08822 10.2206 8.16174 10.4412C8.23527 10.6618 8.23527 10.8088 8.23527 10.8088H8.3088V10.7353L7.57351 11.1765V11.25H7.64704C7.64704 11.0294 7.49998 10.7353 7.35292 10.4412C6.83822 9.41178 5.88233 8.08825 5.8088 8.16178Z" fill="#42403E"/>
<path d="M3.97058 8.97059C3.97058 8.97059 4.99999 10.2941 4.92646 11.1029L5.58823 12.0588L5.95588 11.6912C5.95588 11.6912 5.44117 10.2941 4.19117 8.75L3.97058 8.97059Z" fill="url(#paint16_linear_342_4482)"/>
<path d="M6.76471 7.94119C6.76471 7.94119 8.01471 9.85295 7.35294 10.3677L7.57353 11.103L8.2353 10.6618C8.2353 10.6618 7.79412 8.30883 7.20589 7.79413L6.76471 7.94119Z" fill="url(#paint17_linear_342_4482)"/>
<defs>
<radialGradient id="paint0_radial_342_4482" cx="0" cy="0" r="1" gradientUnits="userSpaceOnUse" gradientTransform="translate(10.599 6.3257) scale(7.09909 6.94875)">
<stop stop-color="#FCD900"/>
<stop offset="1" stop-color="#FBAD18"/>
</radialGradient>
<radialGradient id="paint1_radial_342_4482" cx="0" cy="0" r="1" gradientUnits="userSpaceOnUse" gradientTransform="translate(12.4502 8.26296) scale(9.83619 9.62789)">
<stop stop-color="#FFE8CD"/>
<stop offset="1" stop-color="#ECCFB4"/>
</radialGradient>
<radialGradient id="paint2_radial_342_4482" cx="0" cy="0" r="1" gradientUnits="userSpaceOnUse" gradientTransform="translate(3.52043 13.4913) scale(2.43482 2.38324)">
<stop stop-color="#ECCDB1"/>
<stop offset="1" stop-color="#DDB79D"/>
</radialGradient>
<radialGradient id="paint3_radial_342_4482" cx="0" cy="0" r="1" gradientUnits="userSpaceOnUse" gradientTransform="translate(3.52527 14.0203) scale(2.23162 2.18436)">
<stop stop-color="#DDB48E"/>
<stop offset="1" stop-color="#B88F6F"/>
</radialGradient>
<radialGradient id="paint4_radial_342_4482" cx="0" cy="0" r="1" gradientUnits="userSpaceOnUse" gradientTransform="translate(7.01284 24.7065) scale(14.2725 13.9702)">
<stop stop-color="#FCD900"/>
<stop offset="1" stop-color="#FBAD18"/>
</radialGradient>
<radialGradient id="paint5_radial_342_4482" cx="0" cy="0" r="1" gradientUnits="userSpaceOnUse" gradientTransform="translate(11.1109 6.46908) scale(6.18695 6.05593)">
<stop stop-color="#ECCDB1"/>
<stop offset="1" stop-color="#DDB79D"/>
</radialGradient>
<radialGradient id="paint6_radial_342_4482" cx="0" cy="0" r="1" gradientUnits="userSpaceOnUse" gradientTransform="translate(12.2899 7.15846) scale(6.27372 6.14086)">
<stop stop-color="#ECCDB1"/>
<stop offset="1" stop-color="#DDB79D"/>
</radialGradient>
<radialGradient id="paint7_radial_342_4482" cx="0" cy="0" r="1" gradientUnits="userSpaceOnUse" gradientTransform="translate(14.1298 7.59995) scale(6.87727 6.73164)">
<stop stop-color="#ECCDB1"/>
<stop offset="1" stop-color="#DDB79D"/>
</radialGradient>
<radialGradient id="paint8_radial_342_4482" cx="0" cy="0" r="1" gradientUnits="userSpaceOnUse" gradientTransform="translate(15.3861 7.92832) scale(7.4294 7.27206)">
<stop stop-color="#ECCDB1"/>
<stop offset="1" stop-color="#DDB79D"/>
</radialGradient>
<radialGradient id="paint9_radial_342_4482" cx="0" cy="0" r="1" gradientUnits="userSpaceOnUse" gradientTransform="translate(18.6717 19.6897) scale(14.19 13.8894)">
<stop stop-color="#FCD900"/>
<stop offset="1" stop-color="#FBAD18"/>
</radialGradient>
<radialGradient id="paint10_radial_342_4482" cx="0" cy="0" r="1" gradientUnits="userSpaceOnUse" gradientTransform="translate(18.7868 19.6117) scale(14.0572 13.7592)">
<stop stop-color="#FACE00"/>
<stop offset="1" stop-color="#FAA61A"/>
</radialGradient>
<radialGradient id="paint11_radial_342_4482" cx="0" cy="0" r="1" gradientUnits="userSpaceOnUse" gradientTransform="translate(7.0147 24.7058) scale(14.2723 13.9697)">
<stop stop-color="#FACE00"/>
<stop offset="1" stop-color="#FAA61A"/>
</radialGradient>
<radialGradient id="paint12_radial_342_4482" cx="0" cy="0" r="1" gradientUnits="userSpaceOnUse" gradientTransform="translate(5.20941 25.1556) scale(9.60111 9.39777)">
<stop stop-color="#F7BE0D"/>
<stop offset="1" stop-color="#F99B1C"/>
</radialGradient>
<radialGradient id="paint13_radial_342_4482" cx="0" cy="0" r="1" gradientUnits="userSpaceOnUse" gradientTransform="translate(23.2238 24.3442) scale(4.94406 4.83934)">
<stop stop-color="#FBD500"/>
<stop offset="1" stop-color="#FFCC3B"/>
</radialGradient>
<linearGradient id="paint14_linear_342_4482" x1="3.08436" y1="10.411" x2="6.05318" y2="10.411" gradientUnits="userSpaceOnUse">
<stop stop-color="white"/>
<stop offset="1" stop-color="#231F20"/>
</linearGradient>
<linearGradient id="paint15_linear_342_4482" x1="5.82851" y1="9.49475" x2="8.25912" y2="9.49475" gradientUnits="userSpaceOnUse">
<stop stop-color="white"/>
<stop offset="1" stop-color="#231F20"/>
</linearGradient>
<linearGradient id="paint16_linear_342_4482" x1="3.96326" y1="10.4286" x2="5.96595" y2="10.4286" gradientUnits="userSpaceOnUse">
<stop stop-color="white"/>
<stop offset="1" stop-color="#231F20"/>
</linearGradient>
<linearGradient id="paint17_linear_342_4482" x1="6.76189" y1="9.48143" x2="8.21979" y2="9.48143" gradientUnits="userSpaceOnUse">
<stop stop-color="white"/>
<stop offset="1" stop-color="#231F20"/>
</linearGradient>
</defs>
</svg>
