<svg width="31" height="40" viewBox="0 0 31 40" fill="none" xmlns="http://www.w3.org/2000/svg">
<path d="M21.8452 11.2383C21.5927 11.2383 21.4033 11.0489 21.4033 10.7963V6.37678C21.4033 2.5886 18.5621 0.88391 15.9104 0.88391C13.2587 0.88391 10.4175 2.5886 10.4175 6.37678V10.7963C10.4175 11.0489 10.2281 11.2383 9.97558 11.2383C9.72304 11.2383 9.53363 11.0489 9.53363 10.7963V6.37678C9.59677 2.14664 12.8167 0 15.9735 0C19.1304 0 22.3503 2.20978 22.3503 6.37678V10.7963C22.2872 11.0489 22.0978 11.2383 21.8452 11.2383Z" fill="#3D3A70"/>
<path d="M30.9999 35.9247L25.6965 37.6925L23.9286 10.165L29.2321 9.02858L30.9999 35.9247Z" fill="#F2A416"/>
<path d="M27.8432 39.1446H0L1.76782 11.7434H26.0754L27.8432 39.1446Z" fill="#FFC021"/>
<path d="M1.76782 11.7435H5.11405V10.3545L1.76782 11.7435Z" fill="#FF8A41"/>
<path d="M25.3808 10.6069V11.7434H26.0753L25.3808 10.6069Z" fill="#FF8A41"/>
<path d="M29.232 9.02858H4.92444L5.11385 10.3544V11.7434H25.3806V10.607L29.232 9.02858Z" fill="#F27729"/>
<path d="M19.8248 14.5213C19.5722 14.5213 19.3828 14.3319 19.3828 14.0794V7.26064C19.3828 3.47245 16.5417 1.76777 13.89 1.76777C11.2382 1.76777 8.39709 3.47245 8.39709 7.26064V14.0794C8.39709 14.3319 8.20769 14.5213 7.95514 14.5213C7.70259 14.5213 7.51318 14.3319 7.51318 14.0794V7.26064C7.51318 3.09363 10.7331 0.946991 13.89 0.946991C17.0468 0.946991 20.2667 3.15677 20.2667 7.32377V14.1425C20.2667 14.3319 20.0773 14.5213 19.8248 14.5213Z" fill="#706B96"/>
<path opacity="0.4" fill-rule="evenodd" clip-rule="evenodd" d="M13.4143 17.0059C13.3541 17.013 13.1691 17.0335 13.0033 17.0514C11.5779 17.2054 10.1067 17.8182 8.98472 18.7254C8.60315 19.0339 7.84357 19.8162 7.57191 20.1805C6.97815 20.9766 6.51456 21.9351 6.27624 22.8594C5.88139 24.3908 5.91016 25.9573 6.36042 27.4431C6.63267 28.3415 7.1389 29.2945 7.73232 30.0258C8.04229 30.4078 8.82426 31.167 9.18836 31.4395C10.2554 32.238 11.4768 32.7326 12.8978 32.9416C13.4696 33.0257 14.6271 33.0178 15.2255 32.9256C16.1309 32.7863 16.7998 32.5761 17.6248 32.1715C18.4559 31.7641 19.0192 31.3497 19.7404 30.6152C20.3921 29.9516 20.7299 29.4933 21.1167 28.7481C22.5763 25.936 22.24 22.385 20.2859 19.977C20.1602 19.822 19.8481 19.4907 19.5924 19.2406C18.8949 18.5585 18.3809 18.1934 17.5622 17.7983C16.4522 17.2625 15.4427 17.0265 14.1657 17.0042C13.8127 16.998 13.4746 16.9988 13.4143 17.0059ZM14.6599 17.9464L14.8503 17.9663L14.4296 18.8073C14.1982 19.2698 14.003 19.6483 13.9958 19.6483C13.9815 19.6483 13.1326 18.0058 13.1326 17.9781C13.1326 17.9368 14.3296 17.9119 14.6599 17.9464ZM16.5448 18.3967C19.0773 19.3756 20.6967 21.4604 21.0095 24.1446C21.0704 24.6666 21.0546 25.524 20.9744 26.0501C20.6641 28.086 19.5785 29.824 17.9276 30.9273C17.3479 31.3147 16.5168 31.6705 15.7558 31.8571C15.0931 32.0195 14.7481 32.0588 13.9935 32.0578C13.255 32.0568 12.8523 32.0085 12.1941 31.8416C11.2286 31.5969 10.2867 31.1291 9.53256 30.5197C8.98043 30.0736 8.35237 29.34 7.97825 28.7043C6.91805 26.9029 6.67434 24.6237 7.33143 22.6547C7.62366 21.779 8.10625 20.9412 8.69096 20.2945C9.36116 19.5532 10.1359 18.9892 11.0548 18.5735C11.518 18.364 12.1241 18.1565 12.1588 18.1956C12.1726 18.2112 12.277 18.4017 12.3909 18.619L12.5979 19.0142L12.1503 19.1602C10.478 19.7058 9.21259 20.7892 8.5011 22.2846C8.06847 23.1938 7.87779 24.1326 7.91429 25.1736C8.00373 27.7259 9.4758 29.8514 11.7552 30.7191C12.5951 31.0389 13.6794 31.1915 14.5257 31.109C17.0695 30.8609 19.012 29.3437 19.7819 27.0035C20.6531 24.3551 19.7578 21.5021 17.5836 19.9985C16.9839 19.5838 16.2194 19.2339 15.5199 19.0541L15.3872 19.02L15.6047 18.5858L15.8222 18.1517L16.0505 18.2228C16.176 18.2619 16.3985 18.3402 16.5448 18.3967ZM13.2969 20.3679L13.5396 20.8356V22.2443C13.5396 23.6512 13.5395 23.6531 13.4727 23.6889C13.411 23.7219 13.3004 23.6193 12.0497 22.3689C10.9728 21.2922 10.7009 21.0044 10.7288 20.9707C10.809 20.8741 11.4459 20.4768 11.7685 20.3223C12.1622 20.1337 12.8195 19.9108 13.0074 19.9022C13.0371 19.9009 13.1435 20.0721 13.2969 20.3679ZM15.2099 19.9472C15.8261 20.1024 16.3859 20.3494 16.9057 20.6956C17.0968 20.8228 17.2692 20.9463 17.2889 20.97C17.3176 21.0046 17.0565 21.2812 15.9686 22.3689C14.7179 23.6193 14.6073 23.7219 14.5456 23.6889C14.4788 23.6531 14.4787 23.6511 14.4787 22.2451V20.8371L14.7137 20.3679C14.8429 20.1098 14.9641 19.8987 14.9831 19.8987C15.002 19.8987 15.104 19.9205 15.2099 19.9472ZM12.6966 24.4648L12.6608 24.5318H10.7487H8.83656L8.85894 24.3205C8.88683 24.0571 9.03368 23.468 9.14494 23.1733C9.30913 22.7383 9.54718 22.3037 9.83925 21.9057L10.009 21.6744L11.3707 23.0361C12.6272 24.2925 12.7297 24.4031 12.6966 24.4648ZM18.316 22.0971C18.5088 22.3843 18.7234 22.7937 18.8493 23.1143C18.9758 23.4366 19.1285 24.0309 19.1593 24.3205L19.1817 24.5318H17.2696H15.3574L15.3216 24.4649C15.2886 24.4032 15.3914 24.2923 16.6431 23.0393L18.0005 21.6806L18.0876 21.7836C18.1355 21.8402 18.2383 21.9813 18.316 22.0971ZM14.3027 24.6363C14.5696 24.8399 14.5174 25.2772 14.2088 25.4237C13.9832 25.5308 13.6958 25.4308 13.5904 25.2086C13.3779 24.7607 13.9077 24.3351 14.3027 24.6363ZM12.6966 25.5378C12.7296 25.5996 12.6269 25.7104 11.3751 26.9634L10.0178 28.3222L9.93066 28.2192C9.68044 27.9235 9.34576 27.3387 9.16898 26.8884C9.04248 26.5662 8.88971 25.9718 8.85897 25.6823L8.83656 25.471H10.7487H12.6608L12.6966 25.5378ZM19.1595 25.6782C19.1094 26.1466 18.8956 26.8446 18.6564 27.3209C18.5214 27.5897 18.1201 28.2151 18.0398 28.2817C18.0061 28.3096 17.7183 28.0377 16.6416 26.9608C15.3912 25.7102 15.2886 25.5996 15.3216 25.5378L15.3574 25.471H17.2696H19.1817L19.1595 25.6782ZM13.479 26.3173C13.5379 26.3488 13.5396 26.4034 13.5396 28.2618V30.174L13.3283 30.1516C13.0649 30.1237 12.4758 29.9768 12.1811 29.8656C11.7406 29.6993 11.3004 29.4575 10.915 29.17L10.6852 28.9986L12.0418 27.6417C12.7879 26.8955 13.4029 26.2849 13.4084 26.2849C13.4139 26.2849 13.4457 26.2995 13.479 26.3173ZM15.9765 27.6418L17.3331 28.9986L17.2129 29.0934C16.8569 29.3741 16.2771 29.6995 15.8372 29.8656C15.5425 29.9768 14.9534 30.1237 14.69 30.1516L14.4787 30.174V28.2623C14.4787 26.4746 14.4823 26.3485 14.5335 26.3187C14.5636 26.3011 14.5954 26.2863 14.604 26.2858C14.6127 26.2853 15.2303 26.8955 15.9765 27.6418Z" fill="white"/>
</svg>
