<svg width="35" height="40" viewBox="0 0 35 40" fill="none" xmlns="http://www.w3.org/2000/svg">
<path d="M9.95572 10.5047C10.9247 11.4721 11.1645 12.8877 10.557 14.1694L10.557 14.1695C10.5347 14.2166 10.4422 14.3602 10.2794 14.5765C10.1269 14.7791 9.93766 15.0128 9.75035 15.2263L9.75034 15.2263C8.54182 16.6041 7.8443 17.7836 7.3703 19.2839L7.3703 19.284C6.55181 21.875 6.77786 24.8887 7.97621 27.2628L7.97622 27.2628C8.64385 28.5853 9.88054 30.074 11.0513 30.9634L11.0514 30.9634C14.5672 33.6341 19.387 33.8549 23.117 31.5138C27.4841 28.7728 29.2565 23.3127 27.3372 18.5194L27.3372 18.5194C26.8538 17.3122 26.2911 16.4426 25.2244 15.2224L25.2243 15.2224C24.7555 14.6862 24.4785 14.291 24.314 13.9274C24.1548 13.5755 24.0894 13.2274 24.0884 12.7668C24.0839 10.4183 26.5627 8.8672 28.6512 9.89538L28.6512 9.8954C29.1601 10.1459 29.6725 10.5882 30.4878 11.5612C32.5438 14.0148 33.8204 16.8713 34.3232 20.1555L34.8174 20.0799L34.3232 20.1555C34.5037 21.3345 34.5025 23.7394 34.3205 24.926L34.8148 25.0018L34.3205 24.9261C33.9322 27.4595 33.0154 29.8614 31.6742 31.8728C25.331 41.3859 11.732 42.131 4.41941 33.37C-0.71947 27.2133 -0.815356 18.2057 4.19275 11.925C5.39058 10.4228 6.09071 9.89637 6.90079 9.68489C8.02823 9.39056 9.14015 9.69058 9.95572 10.5047ZM9.95572 10.5047L10.309 10.1509M9.95572 10.5047L10.309 10.1509M10.309 10.1509C9.36679 9.21033 8.07197 8.86239 6.77449 9.2011L10.1262 15.5561C10.5174 15.1102 10.9146 14.5825 11.0088 14.3835C11.7041 12.9166 11.4322 11.2722 10.309 10.1509ZM20.5605 2.89384L20.5605 2.89386C20.5593 2.88925 20.5596 2.892 20.561 2.90456C20.5635 2.92809 20.5697 2.98605 20.5767 3.09441C20.586 3.23829 20.5949 3.43442 20.6032 3.67768C20.6197 4.16339 20.6337 4.82384 20.6449 5.60265C20.6674 7.15952 20.6789 9.18013 20.6793 11.2018C20.6797 13.2235 20.6689 15.244 20.6471 16.8008C20.6361 17.5795 20.6224 18.2399 20.606 18.7255C20.5978 18.9687 20.589 19.1648 20.5798 19.3086C20.5729 19.4166 20.5667 19.4744 20.5642 19.498C20.5628 19.5107 20.5625 19.5135 20.5637 19.5088L20.5637 19.5088C20.409 20.103 20.1502 20.5557 19.7225 20.9833C18.4719 22.234 16.5085 22.234 15.2579 20.9833C14.8302 20.5557 14.5714 20.103 14.4167 19.5088C14.418 19.514 14.4177 19.5112 14.4163 19.4976C14.4138 19.4737 14.4078 19.4164 14.4011 19.3106C14.392 19.1672 14.3833 18.9715 14.3752 18.7287C14.3589 18.2438 14.3453 17.5839 14.3344 16.8055C14.3126 15.2494 14.3017 13.229 14.3017 11.2075C14.3017 9.186 14.3126 7.16557 14.3344 5.60953C14.3453 4.83115 14.3589 4.17126 14.3752 3.68633C14.3833 3.44347 14.392 3.24777 14.4011 3.10438C14.4078 2.99857 14.4138 2.94131 14.4163 2.9174C14.4177 2.90378 14.418 2.90098 14.4167 2.90619C14.7102 1.77925 15.5311 0.936379 16.6356 0.620351L16.4982 0.140147L16.6356 0.62035C18.3271 0.136364 20.1089 1.1598 20.5605 2.89384Z" fill="url(#paint0_linear_590_21)" stroke="#F0AA2C"/>
<defs>
<linearGradient id="paint0_linear_590_21" x1="17.4789" y1="0" x2="17.4789" y2="40" gradientUnits="userSpaceOnUse">
<stop offset="0.015625" stop-color="#FFE28A"/>
<stop offset="0.416667" stop-color="#FFE28A"/>
<stop offset="0.666667" stop-color="#E3930D"/>
<stop offset="0.942708" stop-color="#E3930D"/>
</linearGradient>
</defs>
</svg>
