<svg width="30" height="30" viewBox="0 0 30 30" fill="none" xmlns="http://www.w3.org/2000/svg">
<path d="M18.6165 8.19908L21.5735 11.761C20.431 10.3497 18.6165 9.54319 16.4659 9.54319C12.568 9.54319 9.81254 12.3658 9.74533 16.3309C9.74533 18.1455 10.283 19.6912 11.2239 20.9009L8.26681 17.339C7.32593 16.1965 6.72108 14.5836 6.78829 12.7691C6.85549 8.73672 9.61092 5.98129 13.5088 5.98129C15.6594 5.98129 17.474 6.85497 18.6165 8.19908Z" fill="url(#paint0_linear_342_2625)"/>
<path d="M29.907 16.3309C29.907 19.4224 28.7645 22.245 26.95 24.3956C26.95 24.4628 26.8827 24.4628 26.8827 24.4628C26.4123 25.0005 25.8747 25.4709 25.337 25.9413C25.2026 26.0757 25.0682 26.143 24.9338 26.2774C24.7994 26.4118 24.665 26.479 24.5306 26.6134C24.3961 26.6806 24.3289 26.7478 24.1945 26.8822C24.0601 27.0166 23.8585 27.0838 23.7241 27.151C23.5225 27.2854 23.3881 27.3527 23.1864 27.4871C23.1192 27.4871 23.1192 27.5543 23.052 27.5543C22.8504 27.6215 22.6488 27.7559 22.5144 27.8231C22.0439 28.0247 21.6407 28.2263 21.1703 28.3607C21.0359 28.4279 20.8343 28.4951 20.6998 28.4951C20.6326 28.4951 20.5654 28.5624 20.4982 28.5624C20.3638 28.5624 20.2966 28.6296 20.1622 28.6296C20.0278 28.6968 19.8262 28.6968 19.6918 28.764C19.4901 28.8312 19.2885 28.8312 19.0869 28.8984C18.9525 28.8984 18.8181 28.9656 18.6837 28.9656C18.4821 28.9656 18.2132 29.0328 18.0116 29.0328C17.7428 29.0328 17.5412 29.1 17.2724 29.1C17.0035 29.1 16.7347 29.1 16.4659 29.1C12.0975 29.1 8.33402 27.2854 5.91462 24.3956L2.95758 20.8337C5.37698 23.7236 9.14049 25.5381 13.5088 25.5381C13.7777 25.5381 14.0465 25.5381 14.3153 25.5381C14.5841 25.5381 14.7858 25.4709 15.0546 25.4709C15.2562 25.4709 15.4578 25.4037 15.7266 25.4037C15.861 25.4037 16.0627 25.3365 16.1971 25.3365C16.3987 25.3365 16.6003 25.2693 16.8019 25.2021C16.9363 25.1349 17.0707 25.1349 17.2052 25.0677C17.3396 25.0677 17.474 25.0005 17.5412 25.0005C17.6084 25.0005 17.6756 24.9333 17.7428 24.9333C17.8772 24.866 18.0788 24.866 18.2132 24.7988C18.7509 24.5972 19.2213 24.4628 19.6918 24.194C19.8262 24.1268 19.9606 24.0596 20.1622 23.9924C20.3638 23.9252 20.4982 23.7908 20.6998 23.7236C20.8343 23.6563 21.0359 23.5219 21.1703 23.4547C21.1703 23.4547 21.2375 23.4547 21.2375 23.3875C21.4391 23.2531 21.5735 23.1859 21.7079 23.0515C22.044 22.8499 22.38 22.5811 22.6488 22.3122C22.8504 22.1778 22.9848 22.0434 23.1864 21.8418C23.5225 21.5058 23.7913 21.2369 24.1273 20.9009C26.0091 18.7503 27.1516 15.8605 27.1516 12.7018C27.1516 12.2314 27.1516 11.761 27.0844 11.2233C27.0172 10.7529 26.95 10.2824 26.8827 9.7448C26.8155 9.54319 26.8155 9.40878 26.7483 9.20716C26.6811 9.07275 26.6811 8.93834 26.6139 8.80393C26.5467 8.66951 26.5467 8.5351 26.4795 8.4679C26.4123 8.33349 26.4123 8.19908 26.3451 8.13187C25.8747 6.85496 25.2026 5.64527 24.3289 4.56998L27.286 8.13187C27.4204 8.26628 27.5548 8.4679 27.622 8.60231C27.6892 8.73672 27.8236 8.80393 27.8908 8.93834C28.0924 9.20716 28.2941 9.54319 28.4957 9.87922C28.5629 10.0136 28.6973 10.2152 28.7645 10.3497C28.7645 10.4169 28.8317 10.4841 28.8317 10.4841C29.0333 10.8201 29.1677 11.2233 29.3022 11.6266C29.3694 11.761 29.4366 11.8954 29.4366 12.0298C29.571 12.5002 29.7054 12.9035 29.7726 13.3739C29.8398 13.5083 29.8398 13.7099 29.8398 13.8443C29.907 14.1804 29.907 14.4492 29.9742 14.7852C29.907 15.3901 29.907 15.8605 29.907 16.3309Z" fill="url(#paint1_linear_342_2625)"/>
<path d="M26.9504 24.3956L26.8828 24.4633C26.8828 24.4633 26.8828 24.4633 26.9504 24.3956Z" fill="url(#paint2_linear_342_2625)"/>
<path d="M13.5761 0.0671997C21.2375 0.0671997 27.0172 5.57805 26.95 12.8363C26.8828 20.0945 21.0359 25.6053 13.3745 25.6053C5.71305 25.6053 -0.0666254 20.0945 0.000580113 12.8363C0.0677857 5.51085 5.91467 0.0671997 13.5761 0.0671997ZM13.4417 19.624C17.3396 19.624 20.095 16.8014 20.1622 12.8363C20.2294 8.80392 17.474 6.04849 13.5761 6.04849C9.67818 6.04849 6.92275 8.87113 6.85554 12.8363C6.78834 16.8014 9.54377 19.624 13.4417 19.624Z" fill="url(#paint3_linear_342_2625)"/>
<path d="M13.6432 25.6725C5.91456 25.6725 0.134888 20.1617 0.134888 12.8363C0.134888 5.51085 5.98177 0 13.6432 0C21.3718 0 27.1515 5.51085 27.1515 12.8363C27.1515 20.1617 21.3718 25.6725 13.6432 25.6725ZM13.6432 6.0485C9.67807 6.0485 6.98986 8.87113 6.98986 12.9035C6.98986 16.9358 9.74528 19.7584 13.6432 19.7584C17.6083 19.7584 20.2966 16.9358 20.2966 12.9035C20.2966 8.87113 17.5411 6.0485 13.6432 6.0485Z" fill="url(#paint4_linear_342_2625)"/>
<path d="M0.739746 12.8362C0.739746 5.84685 6.18339 0.672028 13.576 0.672028C20.9686 0.672028 26.4123 5.77965 26.4123 12.8362C26.4123 19.8256 20.9686 25.0004 13.576 25.0004C6.18339 25.0004 0.739746 19.8256 0.739746 12.8362ZM20.9686 12.8362C20.9686 8.40066 17.81 5.30921 13.6432 5.30921C9.47646 5.30921 6.31781 8.33346 6.31781 12.8362C6.31781 17.2718 9.47646 20.3633 13.6432 20.3633C17.81 20.3633 20.9686 17.339 20.9686 12.8362Z" fill="url(#paint5_linear_342_2625)"/>
<path d="M0.739746 12.8362C0.739746 5.84685 6.18339 0.672028 13.576 0.672028C20.9686 0.672028 26.4123 5.77965 26.4123 12.8362C26.4123 19.8256 20.9686 25.0004 13.576 25.0004C6.18339 25.0004 0.739746 19.8256 0.739746 12.8362ZM20.9686 12.8362C20.9686 8.40066 17.81 5.30921 13.6432 5.30921C9.47646 5.30921 6.31781 8.33346 6.31781 12.8362C6.31781 17.2718 9.47646 20.3633 13.6432 20.3633C17.81 20.3633 20.9686 17.339 20.9686 12.8362Z" stroke="url(#paint6_linear_342_2625)" stroke-width="0.5024" stroke-miterlimit="10"/>
<path opacity="0.47" d="M0.739746 12.8362C0.739746 5.84685 6.18339 0.672028 13.576 0.672028C20.9686 0.672028 26.4123 5.77965 26.4123 12.8362C26.4123 19.8256 20.9686 25.0004 13.576 25.0004C6.18339 25.0004 0.739746 19.8256 0.739746 12.8362ZM20.9686 12.8362C20.9686 8.40066 17.81 5.30921 13.6432 5.30921C9.47646 5.30921 6.31781 8.33346 6.31781 12.8362C6.31781 17.2718 9.47646 20.3633 13.6432 20.3633C17.81 20.3633 20.9686 17.339 20.9686 12.8362Z" fill="url(#paint7_linear_342_2625)"/>
<defs>
<linearGradient id="paint0_linear_342_2625" x1="6.83782" y1="13.4401" x2="21.5644" y2="13.4401" gradientUnits="userSpaceOnUse">
<stop stop-color="#472005"/>
<stop offset="0.8871" stop-color="#723F01"/>
</linearGradient>
<linearGradient id="paint1_linear_342_2625" x1="2.81571" y1="16.9077" x2="29.9065" y2="16.9077" gradientUnits="userSpaceOnUse">
<stop stop-color="#472005"/>
<stop offset="0.8871" stop-color="#723F01"/>
</linearGradient>
<linearGradient id="paint2_linear_342_2625" x1="26.8533" y1="24.4571" x2="26.9349" y2="24.4571" gradientUnits="userSpaceOnUse">
<stop stop-color="#472005"/>
<stop offset="0.8871" stop-color="#723F01"/>
</linearGradient>
<linearGradient id="paint3_linear_342_2625" x1="0.0089136" y1="12.7972" x2="26.9799" y2="12.7972" gradientUnits="userSpaceOnUse">
<stop stop-color="#472005"/>
<stop offset="0.8871" stop-color="#723F01"/>
</linearGradient>
<linearGradient id="paint4_linear_342_2625" x1="13.631" y1="25.6984" x2="13.631" y2="0.0348794" gradientUnits="userSpaceOnUse">
<stop stop-color="#472005"/>
<stop offset="0.0183773" stop-color="#643B14"/>
<stop offset="0.0459878" stop-color="#885C26"/>
<stop offset="0.0770681" stop-color="#A87B37"/>
<stop offset="0.1114" stop-color="#C49445"/>
<stop offset="0.1502" stop-color="#DAA850"/>
<stop offset="0.1956" stop-color="#EBB859"/>
<stop offset="0.2516" stop-color="#F6C35F"/>
<stop offset="0.3302" stop-color="#FDC962"/>
<stop offset="0.5484" stop-color="#FFCB63"/>
<stop offset="0.6809" stop-color="#FFD988"/>
<stop offset="0.8078" stop-color="#FEE3A5"/>
<stop offset="0.9182" stop-color="#FEEAB6"/>
<stop offset="1" stop-color="#FEECBC"/>
</linearGradient>
<linearGradient id="paint5_linear_342_2625" x1="13.6309" y1="25.0234" x2="13.6309" y2="0.709999" gradientUnits="userSpaceOnUse">
<stop stop-color="#FFDF9E"/>
<stop offset="0.3495" stop-color="#723F01"/>
<stop offset="0.5108" stop-color="#472005"/>
<stop offset="0.5158" stop-color="#643B14"/>
<stop offset="0.5234" stop-color="#885C26"/>
<stop offset="0.5319" stop-color="#A87B37"/>
<stop offset="0.5413" stop-color="#C49445"/>
<stop offset="0.552" stop-color="#DAA850"/>
<stop offset="0.5644" stop-color="#EBB859"/>
<stop offset="0.5798" stop-color="#F6C35F"/>
<stop offset="0.6014" stop-color="#FDC962"/>
<stop offset="0.6613" stop-color="#FFCB63"/>
<stop offset="0.7607" stop-color="#FFD988"/>
<stop offset="0.8558" stop-color="#FEE3A5"/>
<stop offset="0.9387" stop-color="#FEEAB6"/>
<stop offset="1" stop-color="#FEECBC"/>
</linearGradient>
<linearGradient id="paint6_linear_342_2625" x1="13.6309" y1="25.1922" x2="13.6309" y2="0.541179" gradientUnits="userSpaceOnUse">
<stop stop-color="#472005"/>
<stop offset="0.0183773" stop-color="#643B14"/>
<stop offset="0.0459878" stop-color="#885C26"/>
<stop offset="0.0770681" stop-color="#A87B37"/>
<stop offset="0.1114" stop-color="#C49445"/>
<stop offset="0.1502" stop-color="#DAA850"/>
<stop offset="0.1956" stop-color="#EBB859"/>
<stop offset="0.2516" stop-color="#F6C35F"/>
<stop offset="0.3302" stop-color="#FDC962"/>
<stop offset="0.5484" stop-color="#FFCB63"/>
<stop offset="0.6809" stop-color="#FFD988"/>
<stop offset="0.8078" stop-color="#FEE3A5"/>
<stop offset="0.9182" stop-color="#FEEAB6"/>
<stop offset="1" stop-color="#FEECBC"/>
</linearGradient>
<linearGradient id="paint7_linear_342_2625" x1="0.768577" y1="12.8667" x2="26.4932" y2="12.8667" gradientUnits="userSpaceOnUse">
<stop stop-color="#FEECBC"/>
<stop offset="0.0613243" stop-color="#FEEAB6"/>
<stop offset="0.1442" stop-color="#FEE3A5"/>
<stop offset="0.2393" stop-color="#FFD988"/>
<stop offset="0.3387" stop-color="#FFCB63"/>
<stop offset="0.3986" stop-color="#FDC962"/>
<stop offset="0.4202" stop-color="#F6C35F"/>
<stop offset="0.4356" stop-color="#EBB859"/>
<stop offset="0.448" stop-color="#DAA850"/>
<stop offset="0.4587" stop-color="#C49445"/>
<stop offset="0.4681" stop-color="#A87B37"/>
<stop offset="0.4766" stop-color="#885C26"/>
<stop offset="0.4842" stop-color="#643B14"/>
<stop offset="0.4892" stop-color="#472005"/>
<stop offset="0.6505" stop-color="#723F01"/>
<stop offset="1" stop-color="#FFDF9E"/>
</linearGradient>
</defs>
</svg>
