<svg width="25" height="29" viewBox="0 0 25 29" fill="none" xmlns="http://www.w3.org/2000/svg">
<path d="M6.98951 5.71246L9.87936 9.27436L9.81215 16.0621L6.9223 12.5002L6.98951 5.71246Z" fill="url(#paint0_linear_342_2656)"/>
<path d="M14.3149 6.98936C13.6429 6.1829 12.4332 5.77966 10.6858 5.77966H6.9223L9.87936 9.34156H13.6429C15.3902 9.34156 16.5999 9.74479 17.272 10.5513L14.3149 6.98936Z" fill="url(#paint1_linear_342_2656)"/>
<path d="M6.78783 24.7317L9.74486 28.2263H2.9571L6.10352e-05 24.7317H6.78783Z" fill="url(#paint2_linear_342_2656)"/>
<path d="M6.85505 18.2799L9.81209 21.7746L9.74488 28.2263L6.78784 24.7316L6.85505 18.2799Z" fill="url(#paint3_linear_342_2656)"/>
<path d="M24.7317 11.6266C24.7317 11.5594 24.7317 11.5594 24.7317 11.4922C24.7317 11.3578 24.7317 11.2906 24.6645 11.1561C24.6645 11.0889 24.6645 11.0217 24.6645 10.8873C24.6645 10.6857 24.5973 10.4841 24.5301 10.2825C24.5301 10.2153 24.5301 10.2153 24.5301 10.1481C24.4629 9.94644 24.3957 9.67762 24.3285 9.476C24.3285 9.40879 24.2613 9.34159 24.2613 9.27438C24.1941 9.13997 24.1269 8.93836 24.0597 8.80395C24.0597 8.73674 23.9925 8.66953 23.9253 8.60233C23.858 8.46792 23.7908 8.33351 23.7236 8.1991C23.6564 8.13189 23.6564 8.06469 23.5892 7.99748C23.522 7.86307 23.4548 7.72866 23.3204 7.59425C23.2532 7.52704 23.2532 7.45984 23.186 7.39263C23.0516 7.19101 22.9172 7.0566 22.7828 6.85499L19.8257 3.29309C19.9601 3.49471 20.0945 3.62912 20.229 3.83074C20.2962 3.89794 20.2961 3.96515 20.3633 4.03235C20.4306 4.16676 20.4978 4.30117 20.6322 4.43559C20.6994 4.50279 20.6994 4.57 20.7666 4.6372C20.8338 4.77161 20.901 4.90602 20.9682 5.04044C21.0354 5.10764 21.0354 5.17485 21.1026 5.24205C21.1698 5.37646 21.237 5.57808 21.3042 5.71249C21.3042 5.7797 21.3714 5.8469 21.3714 5.91411C21.4386 6.11572 21.5059 6.38455 21.5731 6.58616C21.5731 6.65337 21.5731 6.65337 21.5731 6.72057C21.6403 6.92219 21.6403 7.12381 21.7075 7.32543C21.7075 7.39263 21.7075 7.45983 21.7075 7.59425C21.7075 7.72866 21.7747 7.86307 21.7747 7.99748C21.7747 8.33351 21.8419 8.66954 21.8419 9.00556C21.8419 9.34159 21.8419 9.61041 21.7747 9.94644C21.7747 10.0136 21.7747 10.0809 21.7747 10.2153C21.7747 10.4169 21.7075 10.6857 21.6403 10.8873C21.6403 10.9545 21.6403 11.0217 21.5731 11.0889C21.5059 11.3578 21.4386 11.6266 21.3714 11.8954C21.3714 11.9626 21.3042 11.9626 21.3042 12.0298C21.237 12.2314 21.1698 12.5003 21.0354 12.7019C21.0354 12.7691 20.9682 12.8363 20.9682 12.9035C20.8338 13.1723 20.6994 13.3739 20.565 13.5755C20.4978 13.6427 20.4978 13.71 20.4306 13.7772C20.2961 13.9788 20.2289 14.1132 20.0945 14.3148C20.0273 14.382 19.9601 14.4492 19.8929 14.5164C19.8257 14.6508 19.6913 14.718 19.6241 14.8524C19.4897 14.9869 19.3553 15.1885 19.1537 15.3229C19.0865 15.3901 18.952 15.5245 18.8848 15.5917C18.6832 15.7261 18.5488 15.9277 18.3472 16.0621C18.28 16.1294 18.1456 16.1966 18.0784 16.2638C17.8095 16.4654 17.4735 16.667 17.1375 16.8014C17.1375 16.8014 17.0703 16.8014 17.0703 16.8686C16.8015 17.003 16.4654 17.1374 16.1294 17.2718C15.995 17.3391 15.9278 17.3391 15.7934 17.4063C15.5246 17.4735 15.3229 17.6079 15.0541 17.6751C14.9197 17.7423 14.7853 17.7423 14.6509 17.8095C14.3821 17.8767 14.1805 17.9439 13.9116 18.0111C13.7772 18.0111 13.6428 18.0783 13.4412 18.0783C13.1724 18.1455 12.9036 18.1455 12.5675 18.2127C12.4331 18.2127 12.2987 18.2127 12.1643 18.2799C11.7611 18.3471 11.2906 18.3471 10.8202 18.3471H6.78784L9.74488 21.909H13.9116C14.3149 21.909 14.7181 21.909 15.1213 21.8418C15.2557 21.8418 15.3902 21.8418 15.5246 21.7746C15.7934 21.7746 16.1294 21.7074 16.3982 21.6402C16.5326 21.6402 16.6671 21.573 16.8687 21.573C17.1375 21.5058 17.4063 21.4386 17.6079 21.3714C17.7423 21.3042 17.8767 21.3042 18.0112 21.237C18.28 21.1698 18.4816 21.1026 18.7504 20.9682C18.8848 20.9009 19.0192 20.9009 19.0864 20.8337C19.4225 20.6993 19.6913 20.5649 20.0273 20.4305C20.0273 20.4305 20.0945 20.4305 20.0945 20.3633C20.4306 20.1617 20.6994 20.0273 21.0354 19.8257C21.1026 19.7584 21.237 19.6912 21.3042 19.624C21.5059 19.4896 21.7075 19.3552 21.8419 19.1536C21.9091 19.0864 22.0435 18.952 22.1107 18.8848C22.2451 18.7504 22.4467 18.5488 22.5811 18.4143C22.6483 18.3471 22.7155 18.3471 22.7155 18.2799C22.7827 18.2127 22.7828 18.1455 22.85 18.0783C22.9172 18.0111 22.9844 17.9439 23.0516 17.8767C23.186 17.7423 23.3204 17.5407 23.3876 17.3391C23.4548 17.2718 23.4548 17.2046 23.522 17.1374C23.522 17.1374 23.522 17.0702 23.5892 17.0702C23.7236 16.8686 23.7908 16.667 23.9253 16.3982C23.9253 16.331 23.9925 16.2638 23.9925 16.1966C24.0597 16.1293 24.0597 15.9949 24.1269 15.9277C24.1941 15.7933 24.1941 15.6589 24.2613 15.5917C24.2613 15.5245 24.3285 15.5245 24.3285 15.4573C24.3957 15.2557 24.4629 14.9869 24.5301 14.7852C24.5301 14.718 24.5301 14.718 24.5301 14.6508C24.5301 14.5836 24.5301 14.5164 24.5973 14.4492C24.6645 14.2476 24.6645 13.9788 24.7317 13.7772C24.7317 13.71 24.7317 13.6427 24.7317 13.5083C24.7317 13.4411 24.7317 13.3739 24.7317 13.3739C24.7317 13.1051 24.7317 12.8363 24.7989 12.6347C24.7317 12.2986 24.7317 11.9626 24.7317 11.6266Z" fill="url(#paint4_linear_342_2656)"/>
<path d="M11.0889 0C17.7423 0 21.909 3.49469 21.8418 9.13995C21.7746 14.6508 17.4734 18.2799 10.8873 18.2799H6.85497L6.78776 24.7316H0L0.201619 0H11.0889ZM10.6857 12.5002C13.5755 12.5002 14.9868 11.3577 15.054 9.13995C15.054 6.85496 13.6427 5.71247 10.7529 5.71247H6.98937L6.92216 12.5002H10.6857Z" fill="url(#paint5_linear_342_2656)"/>
<path d="M0.268982 24.8661V0H11.0891C17.8096 0 21.9764 3.49469 21.9764 9.20716C21.9764 14.7852 17.6752 18.3471 11.0891 18.3471H7.05675V24.7988H0.268982V24.8661ZM10.8203 12.5674C13.7101 12.5674 15.1214 11.4249 15.1214 9.20716C15.1214 6.92217 13.6429 5.77968 10.8203 5.77968H7.05675V12.5674H10.8203Z" fill="url(#paint6_linear_342_2656)"/>
<path d="M21.3043 9.20717C21.3043 14.4492 17.4063 17.6751 11.089 17.6751H6.38463V24.1268H0.940979V0.604858H11.089C17.4063 0.672064 21.3043 3.89793 21.3043 9.20717ZM15.7934 9.20717C15.7934 6.65336 14.1133 5.10763 10.8202 5.10763H6.38463V13.2395H10.8202C14.1133 13.2395 15.7934 11.761 15.7934 9.20717Z" fill="url(#paint7_linear_342_2656)"/>
<path d="M21.3043 9.20717C21.3043 14.4492 17.4063 17.6751 11.089 17.6751H6.38463V24.1268H0.940979V0.604858H11.089C17.4063 0.672064 21.3043 3.89793 21.3043 9.20717ZM15.7934 9.20717C15.7934 6.65336 14.1133 5.10763 10.8202 5.10763H6.38463V13.2395H10.8202C14.1133 13.2395 15.7934 11.761 15.7934 9.20717Z" stroke="url(#paint8_linear_342_2656)" stroke-width="0.5024" stroke-miterlimit="10"/>
<path opacity="0.47" d="M21.3043 9.20717C21.3043 14.4492 17.4063 17.6751 11.089 17.6751H6.38463V24.1268H0.940979V0.604858H11.089C17.4063 0.672064 21.3043 3.89793 21.3043 9.20717ZM15.7934 9.20717C15.7934 6.65336 14.1133 5.10763 10.8202 5.10763H6.38463V13.2395H10.8202C14.1133 13.2395 15.7934 11.761 15.7934 9.20717Z" fill="url(#paint9_linear_342_2656)"/>
<defs>
<linearGradient id="paint0_linear_342_2656" x1="6.91303" y1="10.8974" x2="9.90147" y2="10.8974" gradientUnits="userSpaceOnUse">
<stop stop-color="#472005"/>
<stop offset="0.8871" stop-color="#723F01"/>
</linearGradient>
<linearGradient id="paint1_linear_342_2656" x1="6.97506" y1="8.1287" x2="17.257" y2="8.1287" gradientUnits="userSpaceOnUse">
<stop stop-color="#472005"/>
<stop offset="0.8871" stop-color="#723F01"/>
</linearGradient>
<linearGradient id="paint2_linear_342_2656" x1="0.033059" y1="26.481" x2="9.72759" y2="26.481" gradientUnits="userSpaceOnUse">
<stop stop-color="#472005"/>
<stop offset="0.8871" stop-color="#723F01"/>
</linearGradient>
<linearGradient id="paint3_linear_342_2656" x1="6.80128" y1="23.2567" x2="9.78669" y2="23.2567" gradientUnits="userSpaceOnUse">
<stop stop-color="#472005"/>
<stop offset="0.8871" stop-color="#723F01"/>
</linearGradient>
<linearGradient id="paint4_linear_342_2656" x1="6.86029" y1="12.6171" x2="24.7569" y2="12.6171" gradientUnits="userSpaceOnUse">
<stop stop-color="#472005"/>
<stop offset="0.8871" stop-color="#723F01"/>
</linearGradient>
<linearGradient id="paint5_linear_342_2656" x1="0.0329979" y1="12.3542" x2="21.8306" y2="12.3542" gradientUnits="userSpaceOnUse">
<stop stop-color="#472005"/>
<stop offset="0.8871" stop-color="#723F01"/>
</linearGradient>
<linearGradient id="paint6_linear_342_2656" x1="11.1113" y1="24.8525" x2="11.1113" y2="-0.00524204" gradientUnits="userSpaceOnUse">
<stop stop-color="#472005"/>
<stop offset="0.0183773" stop-color="#643B14"/>
<stop offset="0.0459878" stop-color="#885C26"/>
<stop offset="0.0770681" stop-color="#A87B37"/>
<stop offset="0.1114" stop-color="#C49445"/>
<stop offset="0.1502" stop-color="#DAA850"/>
<stop offset="0.1956" stop-color="#EBB859"/>
<stop offset="0.2516" stop-color="#F6C35F"/>
<stop offset="0.3302" stop-color="#FDC962"/>
<stop offset="0.5484" stop-color="#FFCB63"/>
<stop offset="0.6809" stop-color="#FFD988"/>
<stop offset="0.8078" stop-color="#FEE3A5"/>
<stop offset="0.9182" stop-color="#FEEAB6"/>
<stop offset="1" stop-color="#FEECBC"/>
</linearGradient>
<linearGradient id="paint7_linear_342_2656" x1="11.1113" y1="24.1774" x2="11.1113" y2="0.670115" gradientUnits="userSpaceOnUse">
<stop stop-color="#FFDF9E"/>
<stop offset="0.3495" stop-color="#723F01"/>
<stop offset="0.5108" stop-color="#472005"/>
<stop offset="0.5158" stop-color="#643B14"/>
<stop offset="0.5234" stop-color="#885C26"/>
<stop offset="0.5319" stop-color="#A87B37"/>
<stop offset="0.5413" stop-color="#C49445"/>
<stop offset="0.552" stop-color="#DAA850"/>
<stop offset="0.5644" stop-color="#EBB859"/>
<stop offset="0.5798" stop-color="#F6C35F"/>
<stop offset="0.6014" stop-color="#FDC962"/>
<stop offset="0.6613" stop-color="#FFCB63"/>
<stop offset="0.7607" stop-color="#FFD988"/>
<stop offset="0.8558" stop-color="#FEE3A5"/>
<stop offset="0.9387" stop-color="#FEEAB6"/>
<stop offset="1" stop-color="#FEECBC"/>
</linearGradient>
<linearGradient id="paint8_linear_342_2656" x1="11.1113" y1="24.3462" x2="11.1113" y2="0.501295" gradientUnits="userSpaceOnUse">
<stop stop-color="#472005"/>
<stop offset="0.0183773" stop-color="#643B14"/>
<stop offset="0.0459878" stop-color="#885C26"/>
<stop offset="0.0770681" stop-color="#A87B37"/>
<stop offset="0.1114" stop-color="#C49445"/>
<stop offset="0.1502" stop-color="#DAA850"/>
<stop offset="0.1956" stop-color="#EBB859"/>
<stop offset="0.2516" stop-color="#F6C35F"/>
<stop offset="0.3302" stop-color="#FDC962"/>
<stop offset="0.5484" stop-color="#FFCB63"/>
<stop offset="0.6809" stop-color="#FFD988"/>
<stop offset="0.8078" stop-color="#FEE3A5"/>
<stop offset="0.9182" stop-color="#FEEAB6"/>
<stop offset="1" stop-color="#FEECBC"/>
</linearGradient>
<linearGradient id="paint9_linear_342_2656" x1="0.91907" y1="12.4238" x2="21.3035" y2="12.4238" gradientUnits="userSpaceOnUse">
<stop stop-color="#FEECBC"/>
<stop offset="0.0613243" stop-color="#FEEAB6"/>
<stop offset="0.1442" stop-color="#FEE3A5"/>
<stop offset="0.2393" stop-color="#FFD988"/>
<stop offset="0.3387" stop-color="#FFCB63"/>
<stop offset="0.3986" stop-color="#FDC962"/>
<stop offset="0.4202" stop-color="#F6C35F"/>
<stop offset="0.4356" stop-color="#EBB859"/>
<stop offset="0.448" stop-color="#DAA850"/>
<stop offset="0.4587" stop-color="#C49445"/>
<stop offset="0.4681" stop-color="#A87B37"/>
<stop offset="0.4766" stop-color="#885C26"/>
<stop offset="0.4842" stop-color="#643B14"/>
<stop offset="0.4892" stop-color="#472005"/>
<stop offset="0.6505" stop-color="#723F01"/>
<stop offset="1" stop-color="#FFDF9E"/>
</linearGradient>
</defs>
</svg>
