<svg width="26" height="29" viewBox="0 0 26 29" fill="none" xmlns="http://www.w3.org/2000/svg">
<path d="M9.67849 17.1374L9.81289 3.56189L6.85584 0L6.72144 13.5755C6.72144 15.7261 7.19187 17.0702 7.86393 17.8767L10.821 21.4386C10.1489 20.6321 9.67849 19.288 9.67849 17.1374Z" fill="url(#paint0_linear_342_2744)"/>
<path d="M25.6062 3.62909L22.6492 0.0671997L22.5148 13.8443C22.5148 14.2476 22.5148 14.718 22.4476 15.1212C22.4476 15.1884 22.4476 15.3229 22.4476 15.3901C22.4476 15.6589 22.3803 15.9949 22.3131 16.2637C22.3131 16.3981 22.2459 16.5326 22.2459 16.667C22.1787 16.9358 22.1787 17.1374 22.1115 17.4062C22.1115 17.5406 22.0443 17.6078 22.0443 17.7423C21.9771 18.0111 21.9099 18.2127 21.8427 18.4815C21.8427 18.5487 21.7755 18.6831 21.7755 18.7503C21.6411 19.0864 21.5067 19.3552 21.3723 19.624C21.3723 19.6912 21.305 19.6912 21.305 19.7584C21.1706 20.0272 21.0362 20.2289 20.9018 20.4977C20.8346 20.5649 20.7674 20.6993 20.7002 20.7665C20.5658 20.9681 20.4314 21.1025 20.297 21.3041C20.2298 21.3714 20.1626 21.5058 20.0954 21.573C19.9609 21.7074 19.8937 21.8418 19.7593 21.909C19.6249 22.0434 19.4905 22.245 19.2889 22.3794C19.1545 22.5138 19.0873 22.5811 18.9529 22.7155C18.8184 22.8499 18.6168 22.9843 18.4824 23.1187C18.348 23.1859 18.2136 23.3203 18.0792 23.3875C17.8776 23.5219 17.7432 23.5891 17.5415 23.7235C17.4071 23.7908 17.2727 23.858 17.1383 23.9924C16.9367 24.0596 16.7351 24.194 16.5335 24.2612C16.3991 24.3284 16.2646 24.3956 16.063 24.4628C15.8614 24.53 15.6598 24.5972 15.391 24.6644C15.2566 24.7316 15.0549 24.7988 14.9205 24.7988C14.7189 24.866 14.4501 24.9332 14.1813 24.9332C14.0469 25.0005 13.8452 25.0005 13.7108 25.0005C13.442 25.0677 13.1732 25.0677 12.8372 25.1349C12.7027 25.1349 12.5683 25.2021 12.4339 25.2021C11.9635 25.2693 11.5602 25.2693 11.0898 25.2693C7.25909 25.2693 4.23484 23.9924 2.35309 21.7074L5.31014 25.2693C7.19189 27.5543 10.2161 28.8312 14.0469 28.8312C14.5173 28.8312 14.9877 28.8312 15.391 28.764C15.5254 28.764 15.6598 28.6968 15.7942 28.6968C16.063 28.6968 16.399 28.6296 16.6679 28.5623C16.8023 28.5623 17.0039 28.4951 17.1383 28.4951C17.4071 28.4279 17.6088 28.3607 17.8776 28.3607C18.012 28.2935 18.2136 28.2935 18.348 28.2263C18.5496 28.1591 18.7512 28.0919 19.0201 28.0247C19.1545 27.9575 19.3561 27.8903 19.4905 27.8231C19.6921 27.7559 19.8937 27.6215 20.0954 27.5543C20.2298 27.4871 20.3642 27.4199 20.4986 27.2854C20.7002 27.151 20.8346 27.0838 21.0362 26.9494C21.1706 26.8822 21.3051 26.7478 21.4395 26.6806C21.5739 26.5462 21.7755 26.4118 21.9099 26.2774C22.0443 26.1429 22.1787 26.0757 22.2459 25.9413C22.3803 25.8069 22.5147 25.6725 22.6492 25.4709C22.7164 25.4037 22.7836 25.3365 22.8508 25.2693C22.918 25.2021 22.918 25.2021 22.9852 25.1349C23.0524 25.0677 23.1196 25.0005 23.1868 24.866C23.3212 24.6644 23.4556 24.53 23.59 24.3284C23.6572 24.2612 23.7245 24.1268 23.7917 24.0596C23.8589 23.9924 23.8589 23.9252 23.9261 23.858C24.0605 23.6563 24.1277 23.5219 24.1949 23.3203C24.1949 23.2531 24.2621 23.2531 24.2621 23.1859C24.3965 22.9171 24.4637 22.7155 24.5981 22.4466C24.5981 22.3794 24.5981 22.3794 24.6653 22.3122C24.7325 22.245 24.7325 22.1106 24.7325 22.0434C24.7997 21.7746 24.8669 21.573 24.9341 21.3041C24.9341 21.1697 25.0014 21.1025 25.0014 20.9681C25.0014 20.9009 25.0686 20.8337 25.0686 20.7665C25.1358 20.5649 25.1358 20.4305 25.203 20.2289C25.203 20.0944 25.2702 19.96 25.2702 19.8256C25.3374 19.5568 25.3374 19.2208 25.4046 18.952C25.4046 18.8847 25.4046 18.7503 25.4046 18.6831C25.4046 18.6831 25.4046 18.6831 25.4046 18.6159C25.4046 18.2127 25.4718 17.8095 25.4718 17.4062L23.9933 15.6589L25.4718 17.4062L25.6062 3.62909Z" fill="url(#paint1_linear_342_2744)"/>
<path d="M22.6491 0.0671997L22.5147 13.8443C22.4475 20.9681 18.2136 25.2021 11.157 25.2021C4.1004 25.2021 -0.0663438 20.9681 0.000861774 13.8443L0.135271 0.0671997H6.92303L6.78863 13.6427C6.72142 18.6831 9.34243 19.2208 11.2914 19.2208C13.2404 19.2208 15.8614 18.6159 15.8614 13.6427L15.9958 0.0671997H22.6491Z" fill="url(#paint2_linear_342_2744)"/>
<path d="M11.4258 25.3365C4.3692 25.3365 0.135254 21.0353 0.135254 13.9115V0.0671997H6.92302V13.7099C6.92302 18.7503 9.54404 19.3552 11.493 19.3552C13.442 19.3552 16.063 18.7503 16.063 13.7099V0.0671997H22.7835V13.9115C22.7163 21.0353 18.4824 25.3365 11.4258 25.3365Z" fill="url(#paint3_linear_342_2744)"/>
<path d="M0.807312 13.9115V0.739258H6.25096V13.7099C6.25096 18.1455 8.19993 20.0272 11.493 20.0272C14.7861 20.0272 16.735 18.2127 16.735 13.7099V0.739258H22.1115V13.9115C22.1115 20.8337 18.1463 24.6644 11.493 24.6644C4.83965 24.6644 0.807312 20.8337 0.807312 13.9115Z" fill="url(#paint4_linear_342_2744)"/>
<path d="M0.807312 13.9115V0.739258H6.25096V13.7099C6.25096 18.1455 8.19993 20.0272 11.493 20.0272C14.7861 20.0272 16.735 18.2127 16.735 13.7099V0.739258H22.1115V13.9115C22.1115 20.8337 18.1463 24.6644 11.493 24.6644C4.83965 24.6644 0.807312 20.8337 0.807312 13.9115Z" stroke="url(#paint5_linear_342_2744)" stroke-width="0.5024" stroke-miterlimit="10"/>
<path opacity="0.47" d="M0.807312 13.9115V0.739258H6.25096V13.7099C6.25096 18.1455 8.19993 20.0272 11.493 20.0272C14.7861 20.0272 16.735 18.2127 16.735 13.7099V0.739258H22.1115V13.9115C22.1115 20.8337 18.1463 24.6644 11.493 24.6644C4.83965 24.6644 0.807312 20.8337 0.807312 13.9115Z" fill="url(#paint6_linear_342_2744)"/>
<defs>
<linearGradient id="paint0_linear_342_2744" x1="6.75658" y1="10.7742" x2="10.8092" y2="10.7742" gradientUnits="userSpaceOnUse">
<stop stop-color="#472005"/>
<stop offset="0.8871" stop-color="#723F01"/>
</linearGradient>
<linearGradient id="paint1_linear_342_2744" x1="2.39886" y1="14.4019" x2="25.6022" y2="14.4019" gradientUnits="userSpaceOnUse">
<stop stop-color="#472005"/>
<stop offset="0.8871" stop-color="#723F01"/>
</linearGradient>
<linearGradient id="paint2_linear_342_2744" x1="-0.00753892" y1="12.6375" x2="22.6759" y2="12.6375" gradientUnits="userSpaceOnUse">
<stop stop-color="#472005"/>
<stop offset="0.8871" stop-color="#723F01"/>
</linearGradient>
<linearGradient id="paint3_linear_342_2744" x1="11.4197" y1="25.3363" x2="11.4197" y2="0.0743911" gradientUnits="userSpaceOnUse">
<stop stop-color="#472005"/>
<stop offset="0.0183773" stop-color="#643B14"/>
<stop offset="0.0459878" stop-color="#885C26"/>
<stop offset="0.0770681" stop-color="#A87B37"/>
<stop offset="0.1114" stop-color="#C49445"/>
<stop offset="0.1502" stop-color="#DAA850"/>
<stop offset="0.1956" stop-color="#EBB859"/>
<stop offset="0.2516" stop-color="#F6C35F"/>
<stop offset="0.3302" stop-color="#FDC962"/>
<stop offset="0.5484" stop-color="#FFCB63"/>
<stop offset="0.6809" stop-color="#FFD988"/>
<stop offset="0.8078" stop-color="#FEE3A5"/>
<stop offset="0.9182" stop-color="#FEEAB6"/>
<stop offset="1" stop-color="#FEECBC"/>
</linearGradient>
<linearGradient id="paint4_linear_342_2744" x1="11.4196" y1="24.6609" x2="11.4196" y2="0.749608" gradientUnits="userSpaceOnUse">
<stop stop-color="#FFDF9E"/>
<stop offset="0.3495" stop-color="#723F01"/>
<stop offset="0.5108" stop-color="#472005"/>
<stop offset="0.5158" stop-color="#643B14"/>
<stop offset="0.5234" stop-color="#885C26"/>
<stop offset="0.5319" stop-color="#A87B37"/>
<stop offset="0.5413" stop-color="#C49445"/>
<stop offset="0.552" stop-color="#DAA850"/>
<stop offset="0.5644" stop-color="#EBB859"/>
<stop offset="0.5798" stop-color="#F6C35F"/>
<stop offset="0.6014" stop-color="#FDC962"/>
<stop offset="0.6613" stop-color="#FFCB63"/>
<stop offset="0.7607" stop-color="#FFD988"/>
<stop offset="0.8558" stop-color="#FEE3A5"/>
<stop offset="0.9387" stop-color="#FEEAB6"/>
<stop offset="1" stop-color="#FEECBC"/>
</linearGradient>
<linearGradient id="paint5_linear_342_2744" x1="11.4196" y1="24.8296" x2="11.4196" y2="0.580788" gradientUnits="userSpaceOnUse">
<stop stop-color="#472005"/>
<stop offset="0.0183773" stop-color="#643B14"/>
<stop offset="0.0459878" stop-color="#885C26"/>
<stop offset="0.0770681" stop-color="#A87B37"/>
<stop offset="0.1114" stop-color="#C49445"/>
<stop offset="0.1502" stop-color="#DAA850"/>
<stop offset="0.1956" stop-color="#EBB859"/>
<stop offset="0.2516" stop-color="#F6C35F"/>
<stop offset="0.3302" stop-color="#FDC962"/>
<stop offset="0.5484" stop-color="#FFCB63"/>
<stop offset="0.6809" stop-color="#FFD988"/>
<stop offset="0.8078" stop-color="#FEE3A5"/>
<stop offset="0.9182" stop-color="#FEEAB6"/>
<stop offset="1" stop-color="#FEECBC"/>
</linearGradient>
<linearGradient id="paint6_linear_342_2744" x1="0.774247" y1="12.7052" x2="22.065" y2="12.7052" gradientUnits="userSpaceOnUse">
<stop stop-color="#FEECBC"/>
<stop offset="0.0613243" stop-color="#FEEAB6"/>
<stop offset="0.1442" stop-color="#FEE3A5"/>
<stop offset="0.2393" stop-color="#FFD988"/>
<stop offset="0.3387" stop-color="#FFCB63"/>
<stop offset="0.3986" stop-color="#FDC962"/>
<stop offset="0.4202" stop-color="#F6C35F"/>
<stop offset="0.4356" stop-color="#EBB859"/>
<stop offset="0.448" stop-color="#DAA850"/>
<stop offset="0.4587" stop-color="#C49445"/>
<stop offset="0.4681" stop-color="#A87B37"/>
<stop offset="0.4766" stop-color="#885C26"/>
<stop offset="0.4842" stop-color="#643B14"/>
<stop offset="0.4892" stop-color="#472005"/>
<stop offset="0.6505" stop-color="#723F01"/>
<stop offset="1" stop-color="#FFDF9E"/>
</linearGradient>
</defs>
</svg>
