<svg width="50" height="50" viewBox="0 0 50 50" fill="none" xmlns="http://www.w3.org/2000/svg">
<g opacity="0.2">
<path d="M24.0385 49.3007C36.9042 49.3007 47.3339 38.871 47.3339 26.0052C47.3339 13.1395 36.9042 2.70979 24.0385 2.70979C11.1727 2.70979 0.743011 13.1395 0.743011 26.0052C0.743011 38.871 11.1727 49.3007 24.0385 49.3007Z" fill="#8A6E00"/>
</g>
<path d="M25 50C38.8071 50 50 38.8071 50 25C50 11.1929 38.8071 0 25 0C11.1929 0 0 11.1929 0 25C0 38.8071 11.1929 50 25 50Z" fill="url(#paint0_linear_0_1)"/>
<path d="M25 47.9458C37.6727 47.9458 47.9458 37.6726 47.9458 25C47.9458 12.3274 37.6727 2.0542 25 2.0542C12.3274 2.0542 2.05423 12.3274 2.05423 25C2.05423 37.6726 12.3274 47.9458 25 47.9458Z" fill="url(#paint1_linear_0_1)"/>
<path d="M47.0717 25C47.0717 37.1941 37.1941 47.0717 25 47.0717C12.806 47.0717 2.92834 37.1941 2.92834 25C2.92834 12.8496 12.806 2.97202 25 2.97202C37.1941 2.97202 47.0717 12.8496 47.0717 25Z" fill="url(#paint2_radial_0_1)"/>
<path d="M17.5542 19.9683L19.5372 22.3569L17.6443 26.7284L15.7065 24.3399L17.5542 19.9683Z" fill="url(#paint3_linear_0_1)"/>
<path d="M14.1291 27.9903L16.067 30.3788L14.6699 33.7138L12.687 31.3703L14.1291 27.9903Z" fill="url(#paint4_linear_0_1)"/>
<path d="M12.687 31.3703L14.6699 33.7138L9.93789 33.7138L8 31.3703L12.687 31.3703Z" fill="url(#paint5_linear_0_1)"/>
<path d="M20.799 27.9903L22.782 30.3788L16.067 30.3788L14.1291 27.9903L20.799 27.9903Z" fill="url(#paint6_linear_0_1)"/>
<path d="M26.9732 31.3703L28.9562 33.7138L24.134 33.7138L22.1961 31.3703L26.9732 31.3703Z" fill="url(#paint7_linear_0_1)"/>
<path d="M28.9562 33.7138L26.9732 31.3703L19.7174 14.7856L21.7004 17.1291L27.5591 30.5591L27.9196 31.3703L28.3253 32.2717L28.9562 33.7138Z" fill="url(#paint8_linear_0_1)"/>
<path d="M19.7174 14.7856L26.9732 31.3703L22.1511 31.3703L20.7991 27.9903L14.1291 27.9903L12.732 31.3703L8 31.3703L15.5262 14.7856L19.7174 14.7856ZM15.7065 24.3399L19.3569 24.3399L17.5993 19.9684L15.7065 24.3399Z" fill="url(#paint9_linear_0_1)"/>
<path d="M22.4665 31.4605L21.0694 28.0804L14.3544 28.0804L12.9574 31.4605L8.22531 31.4605L15.6614 14.7856L19.8526 14.7856L27.2887 31.4605L22.4665 31.4605ZM19.5372 24.3849L17.7345 19.9684L15.9318 24.3849L19.5372 24.3849Z" fill="url(#paint10_linear_0_1)"/>
<path d="M21.3849 27.6298L14.039 27.6298L12.6419 31.0098L8.90133 31.0098L15.9318 15.2363L19.5372 15.2363L26.5676 31.0098L22.7369 31.0098L21.3849 27.6298ZM20.2132 24.8356L17.7345 18.7966L15.2558 24.8356L20.2132 24.8356Z" fill="url(#paint11_linear_0_1)"/>
<path d="M21.3849 27.6298L14.039 27.6298L12.6419 31.0098L8.90133 31.0098L15.9318 15.2363L19.5372 15.2363L26.5676 31.0098L22.7369 31.0098L21.3849 27.6298ZM20.2132 24.8356L17.7345 18.7966L15.2558 24.8356L20.2132 24.8356Z" stroke="url(#paint12_linear_0_1)" stroke-width="0.5024" stroke-miterlimit="10"/>
<path opacity="0.47" d="M21.3849 27.6298L14.039 27.6298L12.6419 31.0098L8.90133 31.0098L15.9318 15.2363L19.5372 15.2363L26.5676 31.0098L22.7369 31.0098L21.3849 27.6298ZM20.2132 24.8356L17.7345 18.7966L15.2558 24.8356L20.2132 24.8356Z" fill="url(#paint13_linear_0_1)"/>
<path d="M33.9046 22.6814L35.3323 24.4011L35.2998 26.4129L33.8721 24.6932L33.9046 22.6814Z" fill="url(#paint14_linear_0_1)"/>
<path d="M37.6362 23.1357C37.4415 22.9085 37.0197 22.6814 36.176 22.6814L33.9046 22.6814L35.3324 24.3687L37.6037 24.3687C38.4798 24.3687 38.8692 24.5634 39.0639 24.823L37.6362 23.1357Z" fill="url(#paint15_linear_0_1)"/>
<path d="M33.8721 27.2566L35.2674 28.9764L35.2674 31.118L33.8397 29.3982L33.8721 27.2566Z" fill="url(#paint16_linear_0_1)"/>
<path d="M39.583 29.4306C39.3883 29.1711 38.934 28.9764 38.0255 28.9764L35.2998 28.9764L33.8721 27.2891L36.5978 27.2891C36.6302 27.2891 36.6627 27.2891 36.6951 27.2891C37.5712 27.2891 37.993 27.5162 38.1877 27.7433L39.583 29.4306Z" fill="url(#paint17_linear_0_1)"/>
<path d="M40.4916 21.4808L41.9194 23.2006C42.3412 23.7197 42.5683 24.3363 42.5359 25.0826C42.5359 26.056 42.114 26.9321 41.3677 27.5162L39.94 25.7964C40.6863 25.2124 41.0757 24.3687 41.1081 23.3628C41.1081 22.6165 40.881 21.9675 40.4916 21.4808Z" fill="url(#paint18_linear_0_1)"/>
<path d="M42.5034 24.6607C42.4385 24.0767 42.2439 23.5899 41.8869 23.1681L40.4592 21.4484C40.8161 21.8702 41.0108 22.3569 41.0757 22.941C41.0757 23.0708 41.1082 23.1681 41.0757 23.2979C41.0757 23.3953 41.0757 23.4602 41.0757 23.5575C41.0757 23.7197 41.0433 23.882 41.0108 24.0442C40.9784 24.174 40.9459 24.3363 40.881 24.466C40.8161 24.5958 40.7512 24.7256 40.6863 24.8554C40.589 25.0177 40.4916 25.1475 40.3943 25.2773C40.2645 25.4395 40.1347 25.5693 39.9725 25.6991L41.4002 27.4188C41.5624 27.2891 41.6922 27.1593 41.822 26.997C41.9518 26.8672 42.0492 26.705 42.1141 26.5752C42.179 26.4454 42.2439 26.3156 42.3087 26.1858C42.3736 26.056 42.4061 25.8938 42.4385 25.764C42.471 25.6017 42.5034 25.4395 42.5034 25.2773C42.5034 25.1799 42.5034 25.115 42.5034 25.0177C42.5034 24.9203 42.5034 24.7905 42.5034 24.6607Z" fill="url(#paint19_linear_0_1)"/>
<path d="M42.3412 28.2301L40.9134 26.5103C41.3677 27.0619 41.5949 27.7758 41.5949 28.587C41.5949 29.8525 40.9459 31.9941 36.7276 31.9941L30.5624 31.9941L31.1141 32.6755L31.9577 33.7138L38.1229 33.7138C42.3412 33.7138 42.9901 31.5722 42.9901 30.3068C43.055 29.4955 42.7955 28.7817 42.3412 28.2301Z" fill="url(#paint20_linear_0_1)"/>
<path d="M39.94 25.764C40.6863 25.1799 41.0757 24.3363 41.1081 23.3304C41.1405 21.2861 39.4208 20.0855 36.5329 20.0855L30.6922 20.0855L30.5948 31.4424L30.5948 32.0265L36.76 32.0265C40.9783 32.0265 41.6273 29.8849 41.6273 28.6194C41.6273 27.3215 41.0432 26.3156 39.94 25.764ZM33.9046 22.7138L36.176 22.7138C37.8308 22.7138 37.7984 23.4602 37.7984 23.7197C37.7984 23.8495 37.7984 24.1416 37.5388 24.3687C37.5063 24.4012 37.5063 24.4012 37.4739 24.4336C37.2468 24.5958 36.8249 24.7256 36.1435 24.7256L33.8721 24.7256L33.9046 22.7138ZM36.5653 29.3982L33.8397 29.3982L33.8721 27.2566L36.5978 27.2566C38.35 27.2566 38.35 28.0354 38.35 28.3274C38.35 28.8466 38.1229 29.3982 36.5653 29.3982Z" fill="url(#paint21_linear_0_1)"/>
<path d="M30.7571 32.0914L30.7571 20.0855L36.6303 20.0855C39.5182 20.0855 41.2379 21.3186 41.2379 23.3628C41.2379 24.3363 40.8161 25.2124 40.1022 25.7964C41.2055 26.3481 41.822 27.3864 41.822 28.6519C41.822 29.9174 41.2055 32.059 36.9547 32.059L30.7571 32.059L30.7571 32.0914ZM36.76 29.4631C38.3176 29.4631 38.5123 28.879 38.5123 28.3923C38.5123 28.1003 38.5123 27.3215 36.76 27.3215L34.0344 27.3215L34.0344 29.4631L36.76 29.4631ZM36.3058 24.7256C37.9606 24.7256 37.9606 23.9469 37.9606 23.7197C37.9606 23.4602 37.9606 22.7138 36.3058 22.7138L34.0344 22.7138L34.0344 24.7256L36.3058 24.7256Z" fill="url(#paint22_linear_0_1)"/>
<path d="M41.465 28.6519C41.465 30.5988 39.9075 31.7345 36.9223 31.7345L31.0491 31.7345L31.0491 20.41L36.5978 20.41C39.4208 20.41 40.881 21.5782 40.881 23.3628C40.881 24.4985 40.2969 25.3746 39.3883 25.8613C40.6538 26.2507 41.465 27.2242 41.465 28.6519ZM33.6774 22.3894L33.6774 25.0501L36.2733 25.0501C37.5388 25.0501 38.2527 24.5958 38.2527 23.7197C38.2527 22.8436 37.5712 22.3894 36.2733 22.3894L33.6774 22.3894V22.3894ZM38.8367 28.3923C38.8367 27.4513 38.1229 26.997 36.76 26.997L33.7099 26.997L33.7099 29.7876L36.76 29.7876C38.1229 29.7876 38.8367 29.3657 38.8367 28.3923Z" fill="url(#paint23_linear_0_1)"/>
<path d="M41.465 28.6519C41.465 30.5988 39.9075 31.7345 36.9223 31.7345L31.0491 31.7345L31.0491 20.41L36.5978 20.41C39.4208 20.41 40.881 21.5782 40.881 23.3628C40.881 24.4985 40.2969 25.3746 39.3883 25.8613C40.6538 26.2507 41.465 27.2242 41.465 28.6519ZM33.6774 22.3894L33.6774 25.0501L36.2733 25.0501C37.5388 25.0501 38.2527 24.5958 38.2527 23.7197C38.2527 22.8436 37.5712 22.3894 36.2733 22.3894L33.6774 22.3894V22.3894ZM38.8367 28.3923C38.8367 27.4513 38.1229 26.997 36.76 26.997L33.7099 26.997L33.7099 29.7876L36.76 29.7876C38.1229 29.7876 38.8367 29.3657 38.8367 28.3923Z" stroke="url(#paint24_linear_0_1)" stroke-width="0.5024" stroke-miterlimit="10"/>
<path opacity="0.47" d="M41.465 28.6519C41.465 30.5988 39.9075 31.7345 36.9223 31.7345L31.0491 31.7345L31.0491 20.41L36.5978 20.41C39.4208 20.41 40.881 21.5782 40.881 23.3628C40.881 24.4985 40.2969 25.3746 39.3883 25.8613C40.6538 26.2507 41.465 27.2242 41.465 28.6519ZM33.6774 22.3894L33.6774 25.0501L36.2733 25.0501C37.5388 25.0501 38.2527 24.5958 38.2527 23.7197C38.2527 22.8436 37.5712 22.3894 36.2733 22.3894L33.6774 22.3894V22.3894ZM38.8367 28.3923C38.8367 27.4513 38.1229 26.997 36.76 26.997L33.7099 26.997L33.7099 29.7876L36.76 29.7876C38.1229 29.7876 38.8367 29.3657 38.8367 28.3923Z" fill="url(#paint25_linear_0_1)"/>
<path d="M26.4955 17.5047L25.5722 16.3926C25.2785 16.0359 25.0896 15.5533 25.1106 14.9867C25.1316 13.7278 26.0129 12.8675 27.2509 12.8675C27.9223 12.8675 28.4679 13.1402 28.9295 13.6438L29.8527 14.7559C29.4121 14.2313 28.8456 13.9796 28.1741 13.9796C26.9151 13.9796 26.0339 14.8608 26.0339 16.0988C26.0129 16.6653 26.2017 17.1479 26.4955 17.5047Z" fill="url(#paint26_linear_0_1)"/>
<path d="M28.9295 13.6648C28.4889 13.1402 27.9223 12.8884 27.2509 12.8884C26.5585 12.8884 25.9709 13.1612 25.5932 13.6019C25.5093 13.6858 25.4464 13.7907 25.3834 13.8746C25.3415 13.9586 25.2785 14.0635 25.2575 14.1474C25.2156 14.2523 25.1946 14.3363 25.1526 14.4412C25.1316 14.5461 25.1106 14.672 25.0897 14.7979C25.0897 14.8608 25.0897 14.9238 25.0897 14.9867C25.0897 15.0707 25.0897 15.1756 25.1106 15.2595C25.1526 15.7001 25.3205 16.0778 25.5723 16.3926L26.4955 17.5047C26.2437 17.2109 26.0758 16.8122 26.0339 16.3716C26.0339 16.2877 26.0129 16.1827 26.0129 16.0988C26.0129 16.0359 26.0129 15.9729 26.0129 15.91C26.0129 15.7841 26.0339 15.6582 26.0758 15.5533C26.0968 15.4483 26.1388 15.3434 26.1808 15.2595C26.2227 15.1546 26.2647 15.0707 26.3067 14.9867C26.3696 14.8818 26.4326 14.7979 26.5165 14.7139C26.8942 14.2733 27.4817 14.0005 28.1741 14.0005C28.8456 14.0005 29.3911 14.2733 29.8527 14.7769L28.9295 13.6648Z" fill="url(#paint27_linear_0_1)"/>
<path d="M29.0763 13.8327L29.9786 14.9238L29.8527 14.7559L28.9294 13.6648L29.0763 13.8327Z" fill="url(#paint28_linear_0_1)"/>
<path d="M30.4822 12.5317L31.3844 13.6438L29.9786 14.9238L29.0763 13.8327L30.4822 12.5317Z" fill="url(#paint29_linear_0_1)"/>
<path d="M31.3425 18.5538L31.2166 18.7007L31.1956 18.7426C30.4612 19.6029 29.3281 20.0855 28.0272 20.0855C26.6633 20.0855 25.5093 19.54 24.7749 18.6587L23.8516 17.5466C24.586 18.4279 25.7401 18.9734 27.1039 18.9734C28.4049 18.9734 29.5379 18.4908 30.2723 17.6305C30.2933 17.6096 30.2933 17.6096 30.2933 17.5886L30.4192 17.4417L31.3425 18.5538Z" fill="url(#paint30_linear_0_1)"/>
<path d="M29.0553 16.1618L30.4402 17.4417L30.3143 17.5886C29.5799 18.4699 28.4468 18.9734 27.1249 18.9734C24.7119 18.9734 22.9704 17.2948 22.9913 14.9867C23.0123 12.6786 24.7959 11 27.2089 11C28.5308 11 29.6429 11.4826 30.3773 12.3639L30.5032 12.5108L29.0973 13.7907L28.9504 13.6228C28.5098 13.0983 27.9433 12.8465 27.2718 12.8465C26.0129 12.8465 25.1316 13.7278 25.1316 14.9657C25.1106 16.2247 25.9919 17.085 27.2298 17.085C27.9013 17.085 28.4678 16.8122 28.9085 16.2877L29.0553 16.1618Z" fill="url(#paint31_linear_0_1)"/>
<path d="M27.1879 19.0364C24.7539 19.0364 23.0123 17.3578 23.0123 15.0287C23.0123 12.6996 24.7748 11.021 27.2088 11.021C28.5308 11.021 29.6638 11.5036 30.3982 12.4058L30.5241 12.5527L29.1183 13.8327L28.9714 13.6648C28.5098 13.1402 27.9432 12.8675 27.2928 12.8675C26.0338 12.8675 25.1525 13.7487 25.1525 15.0077C25.1525 16.2667 26.0338 17.1479 27.2928 17.1479C27.9642 17.1479 28.5308 16.8752 28.9714 16.3506L29.1183 16.1827L30.5241 17.4627L30.3772 17.6515C29.6638 18.5328 28.5308 19.0364 27.1879 19.0364Z" fill="url(#paint32_linear_0_1)"/>
<path d="M23.2221 15.0287C23.2221 12.8255 24.9217 11.2308 27.2089 11.2308C28.4678 11.2308 29.5379 11.6924 30.2304 12.5317L29.1393 13.5389C28.6567 12.9724 28.0272 12.6786 27.2928 12.6786C25.9289 12.6786 24.9427 13.6438 24.9427 15.0287C24.9427 16.4136 25.9079 17.3788 27.2928 17.3788C28.0272 17.3788 28.6357 17.085 29.1393 16.5185L30.2304 17.5256C29.5379 18.3649 28.4888 18.8266 27.2089 18.8266C24.9217 18.8266 23.2221 17.2319 23.2221 15.0287Z" fill="url(#paint33_linear_0_1)"/>
<path d="M23.2221 15.0287C23.2221 12.8255 24.9217 11.2308 27.2089 11.2308C28.4678 11.2308 29.5379 11.6924 30.2304 12.5317L29.1393 13.5389C28.6567 12.9724 28.0272 12.6786 27.2928 12.6786C25.9289 12.6786 24.9427 13.6438 24.9427 15.0287C24.9427 16.4136 25.9079 17.3788 27.2928 17.3788C28.0272 17.3788 28.6357 17.085 29.1393 16.5185L30.2304 17.5256C29.5379 18.3649 28.4888 18.8266 27.2089 18.8266C24.9217 18.8266 23.2221 17.2319 23.2221 15.0287Z" stroke="url(#paint34_linear_0_1)" stroke-width="0.5024" stroke-miterlimit="10"/>
<path opacity="0.47" d="M23.2221 15.0287C23.2221 12.8255 24.9217 11.2308 27.2089 11.2308C28.4678 11.2308 29.5379 11.6924 30.2304 12.5317L29.1393 13.5389C28.6567 12.9724 28.0272 12.6786 27.2928 12.6786C25.9289 12.6786 24.9427 13.6438 24.9427 15.0287C24.9427 16.4136 25.9079 17.3788 27.2928 17.3788C28.0272 17.3788 28.6357 17.085 29.1393 16.5185L30.2304 17.5256C29.5379 18.3649 28.4888 18.8266 27.2089 18.8266C24.9217 18.8266 23.2221 17.2319 23.2221 15.0287Z" fill="url(#paint35_linear_0_1)"/>
<defs>
<linearGradient id="paint0_linear_0_1" x1="44.0713" y1="5.96385" x2="7.20717" y2="42.828" gradientUnits="userSpaceOnUse">
<stop stop-color="#FFFB90"/>
<stop offset="0.1415" stop-color="#FBEA78"/>
<stop offset="0.2392" stop-color="#F8DC65"/>
<stop offset="0.2703" stop-color="#E6C758"/>
<stop offset="0.3368" stop-color="#C5A041"/>
<stop offset="0.3979" stop-color="#AD8330"/>
<stop offset="0.451" stop-color="#9E7226"/>
<stop offset="0.4902" stop-color="#996C22"/>
<stop offset="0.52" stop-color="#9D7126"/>
<stop offset="0.5575" stop-color="#AA8131"/>
<stop offset="0.5991" stop-color="#BE9B42"/>
<stop offset="0.6434" stop-color="#DABE5B"/>
<stop offset="0.6865" stop-color="#FBE878"/>
<stop offset="0.7724" stop-color="#FFFFAA"/>
<stop offset="0.8333" stop-color="#FBE878"/>
<stop offset="1" stop-color="#A4631B"/>
</linearGradient>
<linearGradient id="paint1_linear_0_1" x1="8.63924" y1="8.64707" x2="43.4113" y2="43.4191" gradientUnits="userSpaceOnUse">
<stop stop-color="#FFFB90"/>
<stop offset="0.1415" stop-color="#FBEA78"/>
<stop offset="0.2392" stop-color="#F8DC65"/>
<stop offset="0.2703" stop-color="#E6C758"/>
<stop offset="0.3368" stop-color="#C5A041"/>
<stop offset="0.3979" stop-color="#AD8330"/>
<stop offset="0.451" stop-color="#9E7226"/>
<stop offset="0.4902" stop-color="#996C22"/>
<stop offset="0.52" stop-color="#9D7126"/>
<stop offset="0.5575" stop-color="#AA8131"/>
<stop offset="0.5991" stop-color="#BE9B42"/>
<stop offset="0.6434" stop-color="#DABE5B"/>
<stop offset="0.6865" stop-color="#FBE878"/>
<stop offset="0.7724" stop-color="#FFFFAA"/>
<stop offset="0.8333" stop-color="#FBE878"/>
<stop offset="1" stop-color="#A4631B"/>
</linearGradient>
<radialGradient id="paint2_radial_0_1" cx="0" cy="0" r="1" gradientUnits="userSpaceOnUse" gradientTransform="translate(25 25.0218) rotate(90) scale(22.0498 22.0717)">
<stop stop-color="#FFF6C9"/>
<stop offset="1" stop-color="#FF9900"/>
</radialGradient>
<linearGradient id="paint3_linear_0_1" x1="15.7026" y1="23.3386" x2="19.5197" y2="23.3386" gradientUnits="userSpaceOnUse">
<stop stop-color="#472005"/>
<stop offset="0.8871" stop-color="#723F01"/>
</linearGradient>
<linearGradient id="paint4_linear_0_1" x1="12.7073" y1="30.8606" x2="16.0888" y2="30.8606" gradientUnits="userSpaceOnUse">
<stop stop-color="#472005"/>
<stop offset="0.8871" stop-color="#723F01"/>
</linearGradient>
<linearGradient id="paint5_linear_0_1" x1="7.98598" y1="32.5404" x2="14.6697" y2="32.5404" gradientUnits="userSpaceOnUse">
<stop stop-color="#472005"/>
<stop offset="0.8871" stop-color="#723F01"/>
</linearGradient>
<linearGradient id="paint6_linear_0_1" x1="14.1265" y1="29.1807" x2="22.7791" y2="29.1807" gradientUnits="userSpaceOnUse">
<stop stop-color="#472005"/>
<stop offset="0.8871" stop-color="#723F01"/>
</linearGradient>
<linearGradient id="paint7_linear_0_1" x1="22.1743" y1="32.5404" x2="28.9473" y2="32.5404" gradientUnits="userSpaceOnUse">
<stop stop-color="#472005"/>
<stop offset="0.8871" stop-color="#723F01"/>
</linearGradient>
<linearGradient id="paint8_linear_0_1" x1="19.7141" y1="24.2525" x2="28.9465" y2="24.2525" gradientUnits="userSpaceOnUse">
<stop stop-color="#472005"/>
<stop offset="0.8871" stop-color="#723F01"/>
</linearGradient>
<linearGradient id="paint9_linear_0_1" x1="7.98598" y1="23.0692" x2="26.985" y2="23.0692" gradientUnits="userSpaceOnUse">
<stop stop-color="#472005"/>
<stop offset="0.8871" stop-color="#723F01"/>
</linearGradient>
<linearGradient id="paint10_linear_0_1" x1="17.7488" y1="31.4494" x2="17.7488" y2="14.7801" gradientUnits="userSpaceOnUse">
<stop stop-color="#472005"/>
<stop offset="0.0183773" stop-color="#643B14"/>
<stop offset="0.0459878" stop-color="#885C26"/>
<stop offset="0.0770681" stop-color="#A87B37"/>
<stop offset="0.1114" stop-color="#C49445"/>
<stop offset="0.1502" stop-color="#DAA850"/>
<stop offset="0.1956" stop-color="#EBB859"/>
<stop offset="0.2516" stop-color="#F6C35F"/>
<stop offset="0.3302" stop-color="#FDC962"/>
<stop offset="0.5484" stop-color="#FFCB63"/>
<stop offset="0.6809" stop-color="#FFD988"/>
<stop offset="0.8078" stop-color="#FEE3A5"/>
<stop offset="0.9182" stop-color="#FEEAB6"/>
<stop offset="1" stop-color="#FEECBC"/>
</linearGradient>
<linearGradient id="paint11_linear_0_1" x1="17.7484" y1="30.9965" x2="17.7484" y2="15.2329" gradientUnits="userSpaceOnUse">
<stop stop-color="#FFDF9E"/>
<stop offset="0.3495" stop-color="#723F01"/>
<stop offset="0.5108" stop-color="#472005"/>
<stop offset="0.5158" stop-color="#643B14"/>
<stop offset="0.5234" stop-color="#885C26"/>
<stop offset="0.5319" stop-color="#A87B37"/>
<stop offset="0.5413" stop-color="#C49445"/>
<stop offset="0.552" stop-color="#DAA850"/>
<stop offset="0.5644" stop-color="#EBB859"/>
<stop offset="0.5798" stop-color="#F6C35F"/>
<stop offset="0.6014" stop-color="#FDC962"/>
<stop offset="0.6613" stop-color="#FFCB63"/>
<stop offset="0.7607" stop-color="#FFD988"/>
<stop offset="0.8558" stop-color="#FEE3A5"/>
<stop offset="0.9387" stop-color="#FEEAB6"/>
<stop offset="1" stop-color="#FEECBC"/>
</linearGradient>
<linearGradient id="paint12_linear_0_1" x1="17.7485" y1="31.1097" x2="17.7485" y2="15.1197" gradientUnits="userSpaceOnUse">
<stop stop-color="#472005"/>
<stop offset="0.0183773" stop-color="#643B14"/>
<stop offset="0.0459878" stop-color="#885C26"/>
<stop offset="0.0770681" stop-color="#A87B37"/>
<stop offset="0.1114" stop-color="#C49445"/>
<stop offset="0.1502" stop-color="#DAA850"/>
<stop offset="0.1956" stop-color="#EBB859"/>
<stop offset="0.2516" stop-color="#F6C35F"/>
<stop offset="0.3302" stop-color="#FDC962"/>
<stop offset="0.5484" stop-color="#FFCB63"/>
<stop offset="0.6809" stop-color="#FFD988"/>
<stop offset="0.8078" stop-color="#FEE3A5"/>
<stop offset="0.9182" stop-color="#FEEAB6"/>
<stop offset="1" stop-color="#FEECBC"/>
</linearGradient>
<linearGradient id="paint13_linear_0_1" x1="8.90945" y1="23.1147" x2="26.5873" y2="23.1147" gradientUnits="userSpaceOnUse">
<stop stop-color="#FEECBC"/>
<stop offset="0.0613243" stop-color="#FEEAB6"/>
<stop offset="0.1442" stop-color="#FEE3A5"/>
<stop offset="0.2393" stop-color="#FFD988"/>
<stop offset="0.3387" stop-color="#FFCB63"/>
<stop offset="0.3986" stop-color="#FDC962"/>
<stop offset="0.4202" stop-color="#F6C35F"/>
<stop offset="0.4356" stop-color="#EBB859"/>
<stop offset="0.448" stop-color="#DAA850"/>
<stop offset="0.4587" stop-color="#C49445"/>
<stop offset="0.4681" stop-color="#A87B37"/>
<stop offset="0.4766" stop-color="#885C26"/>
<stop offset="0.4842" stop-color="#643B14"/>
<stop offset="0.4892" stop-color="#472005"/>
<stop offset="0.6505" stop-color="#723F01"/>
<stop offset="1" stop-color="#FFDF9E"/>
</linearGradient>
<linearGradient id="paint14_linear_0_1" x1="33.8866" y1="24.5541" x2="35.318" y2="24.5541" gradientUnits="userSpaceOnUse">
<stop stop-color="#472005"/>
<stop offset="0.8871" stop-color="#723F01"/>
</linearGradient>
<linearGradient id="paint15_linear_0_1" x1="33.9044" y1="23.7685" x2="39.0605" y2="23.7685" gradientUnits="userSpaceOnUse">
<stop stop-color="#472005"/>
<stop offset="0.8871" stop-color="#723F01"/>
</linearGradient>
<linearGradient id="paint16_linear_0_1" x1="33.8437" y1="29.1836" x2="35.2762" y2="29.1836" gradientUnits="userSpaceOnUse">
<stop stop-color="#472005"/>
<stop offset="0.8871" stop-color="#723F01"/>
</linearGradient>
<linearGradient id="paint17_linear_0_1" x1="33.8619" y1="28.3459" x2="39.5703" y2="28.3459" gradientUnits="userSpaceOnUse">
<stop stop-color="#472005"/>
<stop offset="0.8871" stop-color="#723F01"/>
</linearGradient>
<linearGradient id="paint18_linear_0_1" x1="39.9451" y1="24.4666" x2="42.5173" y2="24.4666" gradientUnits="userSpaceOnUse">
<stop stop-color="#472005"/>
<stop offset="0.8871" stop-color="#723F01"/>
</linearGradient>
<linearGradient id="paint19_linear_0_1" x1="39.9451" y1="24.4666" x2="42.5173" y2="24.4666" gradientUnits="userSpaceOnUse">
<stop stop-color="#472005"/>
<stop offset="0.8871" stop-color="#723F01"/>
</linearGradient>
<linearGradient id="paint20_linear_0_1" x1="30.5693" y1="30.1292" x2="43.0332" y2="30.1292" gradientUnits="userSpaceOnUse">
<stop stop-color="#472005"/>
<stop offset="0.8871" stop-color="#723F01"/>
</linearGradient>
<linearGradient id="paint21_linear_0_1" x1="30.5692" y1="26.0508" x2="41.6211" y2="26.0508" gradientUnits="userSpaceOnUse">
<stop stop-color="#472005"/>
<stop offset="0.8871" stop-color="#723F01"/>
</linearGradient>
<linearGradient id="paint22_linear_0_1" x1="36.2747" y1="32.0834" x2="36.2747" y2="20.0816" gradientUnits="userSpaceOnUse">
<stop stop-color="#472005"/>
<stop offset="0.0183773" stop-color="#643B14"/>
<stop offset="0.0459878" stop-color="#885C26"/>
<stop offset="0.0770681" stop-color="#A87B37"/>
<stop offset="0.1114" stop-color="#C49445"/>
<stop offset="0.1502" stop-color="#DAA850"/>
<stop offset="0.1956" stop-color="#EBB859"/>
<stop offset="0.2516" stop-color="#F6C35F"/>
<stop offset="0.3302" stop-color="#FDC962"/>
<stop offset="0.5484" stop-color="#FFCB63"/>
<stop offset="0.6809" stop-color="#FFD988"/>
<stop offset="0.8078" stop-color="#FEE3A5"/>
<stop offset="0.9182" stop-color="#FEEAB6"/>
<stop offset="1" stop-color="#FEECBC"/>
</linearGradient>
<linearGradient id="paint23_linear_0_1" x1="36.2746" y1="31.7574" x2="36.2746" y2="20.4076" gradientUnits="userSpaceOnUse">
<stop stop-color="#FFDF9E"/>
<stop offset="0.3495" stop-color="#723F01"/>
<stop offset="0.5108" stop-color="#472005"/>
<stop offset="0.5158" stop-color="#643B14"/>
<stop offset="0.5234" stop-color="#885C26"/>
<stop offset="0.5319" stop-color="#A87B37"/>
<stop offset="0.5413" stop-color="#C49445"/>
<stop offset="0.552" stop-color="#DAA850"/>
<stop offset="0.5644" stop-color="#EBB859"/>
<stop offset="0.5798" stop-color="#F6C35F"/>
<stop offset="0.6014" stop-color="#FDC962"/>
<stop offset="0.6613" stop-color="#FFCB63"/>
<stop offset="0.7607" stop-color="#FFD988"/>
<stop offset="0.8558" stop-color="#FEE3A5"/>
<stop offset="0.9387" stop-color="#FEEAB6"/>
<stop offset="1" stop-color="#FEECBC"/>
</linearGradient>
<linearGradient id="paint24_linear_0_1" x1="36.2746" y1="31.8389" x2="36.2746" y2="20.3261" gradientUnits="userSpaceOnUse">
<stop stop-color="#472005"/>
<stop offset="0.0183773" stop-color="#643B14"/>
<stop offset="0.0459878" stop-color="#885C26"/>
<stop offset="0.0770681" stop-color="#A87B37"/>
<stop offset="0.1114" stop-color="#C49445"/>
<stop offset="0.1502" stop-color="#DAA850"/>
<stop offset="0.1956" stop-color="#EBB859"/>
<stop offset="0.2516" stop-color="#F6C35F"/>
<stop offset="0.3302" stop-color="#FDC962"/>
<stop offset="0.5484" stop-color="#FFCB63"/>
<stop offset="0.6809" stop-color="#FFD988"/>
<stop offset="0.8078" stop-color="#FEE3A5"/>
<stop offset="0.9182" stop-color="#FEEAB6"/>
<stop offset="1" stop-color="#FEECBC"/>
</linearGradient>
<linearGradient id="paint25_linear_0_1" x1="31.0698" y1="26.0825" x2="41.4794" y2="26.0825" gradientUnits="userSpaceOnUse">
<stop stop-color="#FEECBC"/>
<stop offset="0.0613243" stop-color="#FEEAB6"/>
<stop offset="0.1442" stop-color="#FEE3A5"/>
<stop offset="0.2393" stop-color="#FFD988"/>
<stop offset="0.3387" stop-color="#FFCB63"/>
<stop offset="0.3986" stop-color="#FDC962"/>
<stop offset="0.4202" stop-color="#F6C35F"/>
<stop offset="0.4356" stop-color="#EBB859"/>
<stop offset="0.448" stop-color="#DAA850"/>
<stop offset="0.4587" stop-color="#C49445"/>
<stop offset="0.4681" stop-color="#A87B37"/>
<stop offset="0.4766" stop-color="#885C26"/>
<stop offset="0.4842" stop-color="#643B14"/>
<stop offset="0.4892" stop-color="#472005"/>
<stop offset="0.6505" stop-color="#723F01"/>
<stop offset="1" stop-color="#FFDF9E"/>
</linearGradient>
<linearGradient id="paint26_linear_0_1" x1="25.1132" y1="15.1947" x2="29.8479" y2="15.1947" gradientUnits="userSpaceOnUse">
<stop stop-color="#472005"/>
<stop offset="0.8871" stop-color="#723F01"/>
</linearGradient>
<linearGradient id="paint27_linear_0_1" x1="25.1132" y1="15.1947" x2="29.8479" y2="15.1947" gradientUnits="userSpaceOnUse">
<stop stop-color="#472005"/>
<stop offset="0.8871" stop-color="#723F01"/>
</linearGradient>
<linearGradient id="paint28_linear_0_1" x1="28.9342" y1="14.2922" x2="29.9881" y2="14.2922" gradientUnits="userSpaceOnUse">
<stop stop-color="#472005"/>
<stop offset="0.8871" stop-color="#723F01"/>
</linearGradient>
<linearGradient id="paint29_linear_0_1" x1="29.0744" y1="13.7327" x2="31.391" y2="13.7327" gradientUnits="userSpaceOnUse">
<stop stop-color="#472005"/>
<stop offset="0.8871" stop-color="#723F01"/>
</linearGradient>
<linearGradient id="paint30_linear_0_1" x1="23.8508" y1="18.7716" x2="31.3474" y2="18.7716" gradientUnits="userSpaceOnUse">
<stop stop-color="#472005"/>
<stop offset="0.8871" stop-color="#723F01"/>
</linearGradient>
<linearGradient id="paint31_linear_0_1" x1="22.9799" y1="15.0033" x2="30.4767" y2="15.0033" gradientUnits="userSpaceOnUse">
<stop stop-color="#472005"/>
<stop offset="0.8871" stop-color="#723F01"/>
</linearGradient>
<linearGradient id="paint32_linear_0_1" x1="26.7603" y1="19.0311" x2="26.7603" y2="11.0184" gradientUnits="userSpaceOnUse">
<stop stop-color="#472005"/>
<stop offset="0.0183773" stop-color="#643B14"/>
<stop offset="0.0459878" stop-color="#885C26"/>
<stop offset="0.0770681" stop-color="#A87B37"/>
<stop offset="0.1114" stop-color="#C49445"/>
<stop offset="0.1502" stop-color="#DAA850"/>
<stop offset="0.1956" stop-color="#EBB859"/>
<stop offset="0.2516" stop-color="#F6C35F"/>
<stop offset="0.3302" stop-color="#FDC962"/>
<stop offset="0.5484" stop-color="#FFCB63"/>
<stop offset="0.6809" stop-color="#FFD988"/>
<stop offset="0.8078" stop-color="#FEE3A5"/>
<stop offset="0.9182" stop-color="#FEEAB6"/>
<stop offset="1" stop-color="#FEECBC"/>
</linearGradient>
<linearGradient id="paint33_linear_0_1" x1="26.721" y1="18.8204" x2="26.721" y2="11.2293" gradientUnits="userSpaceOnUse">
<stop stop-color="#FFDF9E"/>
<stop offset="0.3495" stop-color="#723F01"/>
<stop offset="0.5108" stop-color="#472005"/>
<stop offset="0.5158" stop-color="#643B14"/>
<stop offset="0.5234" stop-color="#885C26"/>
<stop offset="0.5319" stop-color="#A87B37"/>
<stop offset="0.5413" stop-color="#C49445"/>
<stop offset="0.552" stop-color="#DAA850"/>
<stop offset="0.5644" stop-color="#EBB859"/>
<stop offset="0.5798" stop-color="#F6C35F"/>
<stop offset="0.6014" stop-color="#FDC962"/>
<stop offset="0.6613" stop-color="#FFCB63"/>
<stop offset="0.7607" stop-color="#FFD988"/>
<stop offset="0.8558" stop-color="#FEE3A5"/>
<stop offset="0.9387" stop-color="#FEEAB6"/>
<stop offset="1" stop-color="#FEECBC"/>
</linearGradient>
<linearGradient id="paint34_linear_0_1" x1="26.7308" y1="18.873" x2="26.7308" y2="11.1766" gradientUnits="userSpaceOnUse">
<stop stop-color="#472005"/>
<stop offset="0.0183773" stop-color="#643B14"/>
<stop offset="0.0459878" stop-color="#885C26"/>
<stop offset="0.0770681" stop-color="#A87B37"/>
<stop offset="0.1114" stop-color="#C49445"/>
<stop offset="0.1502" stop-color="#DAA850"/>
<stop offset="0.1956" stop-color="#EBB859"/>
<stop offset="0.2516" stop-color="#F6C35F"/>
<stop offset="0.3302" stop-color="#FDC962"/>
<stop offset="0.5484" stop-color="#FFCB63"/>
<stop offset="0.6809" stop-color="#FFD988"/>
<stop offset="0.8078" stop-color="#FEE3A5"/>
<stop offset="0.9182" stop-color="#FEEAB6"/>
<stop offset="1" stop-color="#FEECBC"/>
</linearGradient>
<linearGradient id="paint35_linear_0_1" x1="23.2189" y1="15.0248" x2="30.223" y2="15.0248" gradientUnits="userSpaceOnUse">
<stop stop-color="#FEECBC"/>
<stop offset="0.0613243" stop-color="#FEEAB6"/>
<stop offset="0.1442" stop-color="#FEE3A5"/>
<stop offset="0.2393" stop-color="#FFD988"/>
<stop offset="0.3387" stop-color="#FFCB63"/>
<stop offset="0.3986" stop-color="#FDC962"/>
<stop offset="0.4202" stop-color="#F6C35F"/>
<stop offset="0.4356" stop-color="#EBB859"/>
<stop offset="0.448" stop-color="#DAA850"/>
<stop offset="0.4587" stop-color="#C49445"/>
<stop offset="0.4681" stop-color="#A87B37"/>
<stop offset="0.4766" stop-color="#885C26"/>
<stop offset="0.4842" stop-color="#643B14"/>
<stop offset="0.4892" stop-color="#472005"/>
<stop offset="0.6505" stop-color="#723F01"/>
<stop offset="1" stop-color="#FFDF9E"/>
</linearGradient>
</defs>
</svg>
